<?xml version="1.0" standalone="no"?>
<!DOCTYPE svg PUBLIC "-//W3C//DTD SVG 1.1//EN" "http://www.w3.org/Graphics/SVG/1.1/DTD/svg11.dtd" >
<svg>
<metadata>
Created by FontForge 20090914 at Thu Sep  6 13:16:58 2012
 By www-data
Copyright (c) 2009 by TypeTogether. All rights reserved.
</metadata>
<defs>
<font id="AdelleBasic-BoldItalic" horiz-adv-x="500" >
  <font-face 
    font-family="Adelle Basic Rg"
    font-weight="700"
    font-style="italic"
    font-stretch="normal"
    units-per-em="1000"
    panose-1="2 0 8 3 0 0 0 9 0 4"
    ascent="755"
    descent="-245"
    x-height="520.999"
    cap-height="724"
    bbox="-157 -293.002 1108 988.001"
    underline-thickness="50"
    underline-position="-50"
    unicode-range="U+0020-U+FB04"
  />
<missing-glyph 
 />
    <glyph glyph-name="ff" unicode="ff" horiz-adv-x="743" 
d="M508 -212h-148.997l88 623c1.33301 6.66699 -1 10 -7 10h-162l-89 -633h-149l89 623c1.33301 6.66699 -1 10 -7 10h-65l13 100h74l7 48c18 121.333 84 182 198 182c61.333 0 117 -16.333 167 -49c34 43.333 86.667 65 158 65c30.667 0 62.167 -5.16699 94.5 -15.5
s58.166 -22.833 77.499 -37.5l-55 -93c-38.667 24 -72.334 36 -101.001 36c-40.667 0 -64 -22.333 -70 -67l-8 -59c-0.666992 -6.66699 1.66602 -10 6.99902 -10h154l-14 -100h-163zM293.003 531c-0.666992 -6.66699 1.66699 -10 7 -10h163l12 84c-34.667 24 -70 36 -106 36
c-39.333 0 -62.333 -22.333 -69 -67z" />
    <glyph glyph-name="fi" unicode="fi" horiz-adv-x="642" 
d="M604 0h-215.998l-3 5l24 135l37 261c2 12.667 -1.33301 19.334 -10 20.001h-158l-89 -633h-149l89 623c1.33301 6.66699 -1 10 -7 10h-65l13 100h74l9 64c17.333 121.333 90 182 218 182c43.333 0 85 -6.33301 125 -19s71.333 -27.334 94 -44.001l-55 -93
c-51.333 30.667 -99.666 46 -144.999 46c-52.667 0 -82.334 -24.333 -89.001 -73l-8 -53c-0.666992 -6.66699 1.66602 -10 6.99902 -10h311l-59 -420c-1.33301 -8 -1.33301 -13.167 0 -15.5s5.66602 -3.83301 12.999 -4.5l48 -7z" />
    <glyph glyph-name="fl" unicode="fl" horiz-adv-x="643" 
d="M604 0h-215.996l-3 5l26 147l66 475c-37.333 20 -70 30 -98 30c-44.667 0 -70.667 -22.333 -78 -67l-8 -59c-0.666992 -6.66699 1.66602 -10 6.99902 -10h119l-14 -100h-127l-89 -633h-149l89 623c1.33301 6.66699 -1 10 -7 10h-65l13 100h74l9 64
c17.333 121.333 87.666 182 210.999 182c59.333 0 114.666 -14.667 165.999 -44l76 32h38l-92 -654c-1.33301 -8 -1.33301 -13.167 0 -15.5s5.66602 -3.83301 12.999 -4.5l48 -7z" />
    <glyph glyph-name="ffi" unicode="ffi" horiz-adv-x="960" 
d="M507 -212l-148.998 0.000976562l89 623c1.33301 6.66699 -1 10 -7 10h-162l-89 -633h-149l89 623c1.33301 6.66699 -1 10 -7 10h-65l13 100h74l7 48c18 121.333 84 182 198 182c64 0 120 -16.667 168 -50c36.667 44 94 66 172 66c43.333 0 85 -6.33301 125 -19
s71.333 -27.334 94 -44.001l-55 -93c-51.333 30.667 -99.666 46 -144.999 46c-52.667 0 -82.334 -24.333 -89.001 -73l-8 -53c-0.666992 -6.66699 1.66602 -10 6.99902 -10h311l-59 -420c-1.33301 -8 -1.33301 -13.167 0 -15.5s5.66602 -3.83301 12.999 -4.5l48 -7l-9 -74
h-216l-3 5l24 135l37 261c2 13.333 -2.33301 20 -13 20h-155zM293.002 531.001c-0.666992 -6.66699 1.66699 -10 7 -10h162l9 64c1.33301 9.33301 2.66602 16.333 3.99902 21c-37.333 23.333 -72.666 35 -105.999 35c-39.333 0 -62.333 -22.333 -69 -67z" />
    <glyph glyph-name="ffl" unicode="ffl" horiz-adv-x="963" 
d="M924 0h-215.996l-3 5l26 147l66 475c-37.333 20 -70 30 -98 30c-46 0 -72 -22.333 -78 -67l-8 -59c-0.666992 -6.66699 1.66602 -10 6.99902 -10h119l-14 -100h-127l-89 -633h-149l89 623c1.33301 6 -0.333984 9.33301 -5.00098 10h-166l-89 -633h-149l89 623
c1.33301 6.66699 -1 10 -7 10h-65l13 100h74l7 48c18 121.333 84 182 198 182c64 0 120 -16.667 168 -50c35.333 44 91 66 167 66c59.333 0 114.666 -14.667 165.999 -44l76 32h38l-92 -654c-1.33301 -8 -1.33301 -13.167 0 -15.5s5.66602 -3.83301 12.999 -4.5l48 -7z
M293.004 531c-0.666992 -6.66699 1.66699 -10 7 -10h164l12 84c-36 24 -71.667 36 -107 36c-39.333 0 -62.333 -22.333 -69 -67z" />
    <glyph glyph-name=".notdef" 
 />
    <glyph glyph-name="space" unicode=" " horiz-adv-x="202" 
 />
    <glyph glyph-name="exclam" unicode="!" horiz-adv-x="283" 
d="M215 192h-127l33 355l25 177h161l-25 -177zM221 79c0 -60.667 -32.333 -91 -97 -91c-51.333 0 -77 21.333 -77 64c0 61.333 33 92 99 92c50 0 75 -21.667 75 -65z" />
    <glyph glyph-name="quotedbl" unicode="&#x22;" horiz-adv-x="415" 
d="M410 447h-135l37 259h135zM210 447h-135l37 259h135z" />
    <glyph glyph-name="numbersign" unicode="#" horiz-adv-x="607" 
d="M522 121h-97l-34 -121h-104l35 121h-87l-34 -121h-104l34 121h-99l36 101h94l33 113h-100l35 102h94l31 106h104l-31 -106h86l31 106h104l-31 -106h101l-34 -102h-96l-33 -113h101zM352 222l33 113h-86l-34 -113h87z" />
    <glyph glyph-name="dollar" unicode="$" horiz-adv-x="518" 
d="M508 435l-105.999 8.99902l-3 69c0 10 -4 16.333 -12 19c-11.333 4 -31.333 6 -60 6c-32.667 0 -58.334 -6 -77.001 -18s-28 -29.333 -28 -52c0 -22 8.66699 -39 26 -51s43.333 -24.333 78 -37c5.33301 -2 9.33301 -3.33301 12 -4c22 -8 40.333 -15.833 55 -23.5
s30.167 -17.834 46.5 -30.501s28.666 -28.667 36.999 -48s12.5 -41.333 12.5 -66c0 -55.333 -16.5 -100 -49.5 -134s-77.833 -56.333 -134.5 -67l-11 -87h-124l11 82c-73.333 4.66699 -127.333 16.667 -162 36l23 164l105 -6l5 -69c0.666992 -12 7 -19.667 19 -23
c16.667 -4.66699 39.667 -7 69 -7c71.333 0 107 25.667 107 77c0 9.33301 -2.33301 18.166 -7 26.499s-9.5 15 -14.5 20s-14 10.5 -27 16.5s-22.5 10.167 -28.5 12.5s-17.667 6.5 -35 12.5c-24 8.66699 -43.167 16.5 -57.5 23.5s-30.166 17 -47.499 30
s-30.333 29.333 -39 49s-13 42.834 -13 69.501c0 57.333 17.333 102.333 52 135s81 53.334 139 62.001l12 76h125l-11 -74c44.667 -3.33301 90 -12.666 136 -27.999z" />
    <glyph glyph-name="percent" unicode="%" horiz-adv-x="908" 
d="M222 257c-51.333 0 -88.667 13.168 -112 39.501s-35 61.166 -35 104.499c0 66 17 119 51 159s85 60 153 60c97.333 0 146 -47.333 146 -142c0 -66.667 -17.667 -120.167 -53 -160.5s-85.333 -60.5 -150 -60.5zM310.999 -16.999h-139l466 638h138zM236.999 339.001
c49.333 0 74 44.333 74 133c0 43.333 -15.333 65 -46 65c-50 0 -75 -42.667 -75 -128c0 -46.667 15.667 -70 47 -70zM673.999 -11.999c-51.333 0 -88.668 13.168 -112.001 39.501s-35 61.166 -35 104.499c0 66 17 119 51 159s85 60 153 60c98 0 147 -47.333 147 -142
c0 -66.667 -17.667 -120.167 -53 -160.5s-85.666 -60.5 -150.999 -60.5zM689.997 70.002c48.667 0 73 44.333 73 133c0 43.333 -15 65 -45 65c-50 0 -75 -42.667 -75 -128c0 -46.667 15.667 -70 47 -70z" />
    <glyph glyph-name="ampersand" unicode="&#x26;" horiz-adv-x="698" 
d="M673 321l-41.999 -5.00195c-10 -0.666992 -15.333 -5.33398 -16 -14.001l-34 -260c-71.333 -36 -156.333 -54 -255 -54c-171.333 0 -257 58 -257 174c0 50 14.5 90.833 43.5 122.5s65.167 52.834 108.5 63.501v2c-24.667 8.66699 -46.334 24.334 -65.001 47.001
s-28 50.667 -28 84c0 64 23.167 113.5 69.5 148.5s108.166 52.5 185.499 52.5c44.667 0 87.834 -5.16699 129.501 -15.5s74.167 -23.166 97.5 -38.499l-25 -155l-108 9l-4 64c-1.33301 10 -5.33301 16 -12 18c-20.667 6 -45 9 -73 9c-74.667 0 -112 -30.667 -112 -92
c0 -26 8.33301 -46.333 25 -61s40.334 -22 71.001 -22h40l-14 -106c-26 0 -48.667 -1.5 -68 -4.5s-37.833 -8 -55.5 -15s-31.334 -18 -41.001 -33s-14.5 -33.167 -14.5 -54.5c0 -58 39 -87 117 -87c38 0 66 2.66699 84 8c8.66699 2.66699 14.5 5.5 17.5 8.5
s5.16699 9.16699 6.5 18.5l37 256l18 12h185z" />
    <glyph glyph-name="quotesingle" unicode="'" horiz-adv-x="215" 
d="M210 447h-135l37 259h135z" />
    <glyph glyph-name="parenleft" unicode="(" horiz-adv-x="362" 
d="M294 -108l-124.999 -64.999c-30.667 49.333 -55.834 107.5 -75.501 174.5s-29.5 135.167 -29.5 204.5c0 180 81.333 359.333 244 538l102 -67c-66.667 -82.667 -114.5 -161.334 -143.5 -236.001s-43.5 -156.667 -43.5 -246c0 -102 23.667 -203 71 -303z" />
    <glyph glyph-name="parenright" unicode=")" horiz-adv-x="362" 
d="M90 -173l-103.001 67c66.667 82.667 114.5 161.167 143.5 235.5s43.5 156.5 43.5 246.5c0 99.333 -23.333 200.333 -70 303l124 65c30.667 -48.667 55.834 -106.667 75.501 -174s29.5 -136 29.5 -206c0 -178.667 -81 -357.667 -243 -537z" />
    <glyph glyph-name="asterisk" unicode="*" horiz-adv-x="477" 
d="M201 382l-78 64l51 56l95 55l-104 -4l-64 22l48 100l64 -22l70 -65l-22 97l10 70h105l-10 -70l-49 -97h-34l-14 -31l25 -19l-43 -99zM437 445l-93 -62l-35 56l-15 99l28 19l-5 31l89 65l70 22l19 -100l-70 -22l-103 4l79 -56z" />
    <glyph glyph-name="plus" unicode="+" horiz-adv-x="570" 
d="M330 121h-120l21 144h-133l16 116h133l20 140h120l-20 -140h134l-16 -116h-134z" />
    <glyph glyph-name="comma" unicode="," horiz-adv-x="258" 
d="M101 -119l-65.002 20.001l43 107c2.66699 6 1.33398 10 -3.99902 12l-39 14l38 108c42.667 -0.666992 74.834 -5.33398 96.501 -14.001s32.5 -27 32.5 -55c0 -17.333 -10.333 -43.333 -31 -78z" />
    <glyph glyph-name="hyphen" unicode="-" horiz-adv-x="311" 
d="M306 227h-271l18 127h271z" />
    <glyph glyph-name="period" unicode="." horiz-adv-x="276" 
d="M216 76c0 -58.667 -32.333 -88 -97 -88c-50.667 0 -76 22.333 -76 67c0 59.333 32.667 89 98 89c50 0 75 -22.667 75 -68z" />
    <glyph glyph-name="slash" unicode="/" horiz-adv-x="455" 
d="M125 -92h-145l388 823h145z" />
    <glyph glyph-name="zero" unicode="0" horiz-adv-x="579" 
d="M567 289c-13.333 -99.333 -43.1689 -174.333 -89.502 -225s-116.166 -76 -209.499 -76c-147.333 0 -221 73.667 -221 221c0 28 2 57 6 87c24.667 196.667 125.334 295 302.001 295c145.333 0 218 -73.333 218 -220c0 -26.667 -2 -54 -6 -82zM282.997 94
c36.667 0 64.8311 14.667 84.498 44s33.834 79 42.501 149c5.33301 45.333 8 74 8 86c0 72.667 -26 109 -78 109c-37.333 0 -66.166 -14.5 -86.499 -43.5s-34.833 -77.833 -43.5 -146.5c-4 -34 -6 -62.667 -6 -86c0 -74.667 26.333 -112 79 -112z" />
    <glyph glyph-name="one" unicode="1" horiz-adv-x="402" 
d="M356 0h-341.001l10 75l85 6c6 0.666992 10 2.16699 12 4.5s3.66699 7.5 5 15.5l50 359c2 11.333 -1.33301 18.333 -10 21l-84 18l12 77h246l-66 -475c-1.33301 -8 -1.16602 -13.167 0.500977 -15.5s6.16699 -3.83301 13.5 -4.5l78 -7z" />
    <glyph glyph-name="two" unicode="2" horiz-adv-x="516" 
d="M470 0l-453.001 -0.00195312l13 93l154 137c74.667 66 119.334 107.667 134.001 125c21.333 24.667 32 50 32 76c0 34.667 -21 52 -63 52c-28.667 0 -49.167 -6.16699 -61.5 -18.5s-20.833 -36.166 -25.5 -71.499l-135 13c5.33301 38.667 15.666 70.834 30.999 96.501
s35 44.667 59 57s47.833 20.833 71.5 25.5s50.834 7 81.501 7c64 0 111.333 -13.5 142 -40.5s46 -62.5 46 -106.5c0 -56 -23.667 -108.333 -71 -157c-12.667 -13.333 -44 -41.333 -94 -84l-125 -107h146c8 0 13 3.66699 15 11l25 80h104z" />
    <glyph glyph-name="three" unicode="3" horiz-adv-x="516" 
d="M372 269l0.000976562 -4c68.667 -18.667 103 -64 103 -136c0 -68.667 -23.333 -121.167 -70 -157.5s-109 -54.5 -187 -54.5c-50 0 -95.667 8.83301 -137 26.5s-72.666 40.5 -93.999 68.5l88 85c43.333 -44.667 90.666 -67 141.999 -67c74 0 111 32.667 111 98
c0 52.667 -30 79 -90 79c-23.333 0 -46.666 -2 -69.999 -6l13 100l47 5c40 4.66699 71.167 17.167 93.5 37.5s33.5 47.5 33.5 81.5c0 38.667 -21.667 58 -65 58c-28.667 0 -49.334 -6.16699 -62.001 -18.5s-21.334 -35.833 -26.001 -70.5l-138 13
c14.667 122.667 96 184 244 184c129.333 0 194 -51.667 194 -155c0 -42.667 -12 -78.167 -36 -106.5s-55.333 -48.5 -94 -60.5z" />
    <glyph glyph-name="four" unicode="4" horiz-adv-x="549" 
d="M430 -67h-135l17 129h-284l14 103l259 429l119 -61l-231 -354h139l23 164l138 18l-26 -182h81l-16 -117h-81z" />
    <glyph glyph-name="five" unicode="5" horiz-adv-x="521" 
d="M491 450h-254.001l-36 -141c36.667 26 79.334 39 128.001 39c50.667 0 90.5 -15.167 119.5 -45.5s43.5 -73.5 43.5 -129.5c0 -75.333 -23.833 -136.833 -71.5 -184.5s-114.167 -71.5 -199.5 -71.5c-52.667 0 -99.334 8.5 -140.001 25.5s-72.667 39.833 -96 68.5l89 87
c40.667 -44.667 88.334 -67 143.001 -67c36.667 0 66.667 10.167 90 30.5s35 50.5 35 90.5c0 30 -7.66699 51.333 -23 64s-34 19 -56 19c-36 0 -69.333 -14.333 -100 -43l-92 43l70 341h367z" />
    <glyph glyph-name="six" unicode="6" horiz-adv-x="552" 
d="M562 586l-76.001 -85.002c-33.333 28.667 -70 43 -110 43c-40.667 0 -75 -17.167 -103 -51.5s-45.333 -76.833 -52 -127.5c50.667 27.333 100.334 41 149.001 41s88 -14 118 -42s45 -69 45 -123c0 -82.667 -24 -145.5 -72 -188.5s-110.667 -64.5 -188 -64.5
c-74.667 0 -128.834 22.833 -162.501 68.5s-50.5 104.834 -50.5 177.501c0 37.333 3.16699 74.5 9.5 111.5s17.333 74.333 33 112s35.167 70.834 58.5 99.501s54 52.167 92 70.5s80.333 27.5 127 27.5c74.667 0 135.334 -23 182.001 -69zM210.999 264.998
c-0.666992 -12 -1 -27.334 -1 -46.001c0 -80.667 25.333 -121 76 -121c34 0 58.333 13.333 73 40s22 56.334 22 89.001c0 47.333 -22 71 -66 71c-32 0 -66.667 -11 -104 -33z" />
    <glyph glyph-name="seven" unicode="7" horiz-adv-x="517" 
d="M270 -67l-157 0.000976562c38 203.333 129.667 375.666 275 516.999h-189c-7.33301 0 -12.333 -4.33301 -15 -13l-26 -84l-104 -8l33 231h482l-18 -113c-67.333 -64.667 -127 -144.667 -179 -240s-86 -192 -102 -290z" />
    <glyph glyph-name="eight" unicode="8" horiz-adv-x="517" 
d="M423 334c52.667 -32.667 79.001 -79.333 79.001 -140c0 -66 -24.833 -116.833 -74.5 -152.5s-114.834 -53.5 -195.501 -53.5c-64 0 -113.833 12.667 -149.5 38s-53.5 62.333 -53.5 111c0 79.333 40.667 146.333 122 201c-40 32.667 -60 74.667 -60 126
c0 60 22 106.833 66 140.5s102.333 50.5 175 50.5c58.667 0 104.5 -12.833 137.5 -38.5s49.5 -60.5 49.5 -104.5c0 -64.667 -32 -124 -96 -178zM240.001 281.001c-56 -42 -83.999 -83.334 -83.999 -124.001c0 -21.333 7.66699 -38.166 23 -50.499s37.666 -18.5 66.999 -18.5
c32.667 0 57.834 7.83301 75.501 23.5s26.5 35.834 26.5 60.501c0 15.333 -5.33301 29.833 -16 43.5s-21.667 24.167 -33 31.5s-27.333 16.666 -48 27.999c-4.66699 2.66699 -8.33398 4.66699 -11.001 6zM324.002 385c46 39.333 68.999 76.335 68.999 111.002
c0 40 -23.667 60 -71 60c-26 0 -47.167 -6.66699 -63.5 -20s-24.5 -30.666 -24.5 -51.999c0 -14.667 4.83301 -28.334 14.5 -41.001s19.834 -22.834 30.501 -30.501s25.667 -16.834 45 -27.501z" />
    <glyph glyph-name="nine" unicode="9" horiz-adv-x="552" 
d="M26 -5l73.0029 88c41.333 -36 83.666 -54 126.999 -54c44.667 0 78.167 14.667 100.5 44s37.833 71 46.5 125c-46.667 -27.333 -94.334 -41 -143.001 -41c-50 0 -90.5 15.333 -121.5 46s-46.5 73.667 -46.5 129c0 80 23.667 143.167 71 189.5s111 69.5 191 69.5
c141.333 0 212 -83 212 -249c0 -28.667 -1.5 -57 -4.5 -85s-8.33301 -58.833 -16 -92.5s-19.334 -64.5 -35.001 -92.5s-34.5 -54 -56.5 -78s-50.5 -42.667 -85.5 -56s-74.167 -20 -117.5 -20c-36.667 0 -73 7.16699 -109 21.5s-64.667 32.833 -86 55.5zM383.003 303
c2 19.333 3.00098 37.333 3.00098 54c1.33301 83.333 -23.667 125 -75 125c-30.667 0 -54.334 -13 -71.001 -39s-25 -57.667 -25 -95c0 -26.667 5 -46.5 15 -59.5s27 -19.5 51 -19.5c31.333 0 65.333 11.333 102 34z" />
    <glyph glyph-name="colon" unicode=":" horiz-adv-x="276" 
d="M274 456c0 -58.667 -32.333 -88 -97 -88c-50.667 0 -76 22.333 -76 67c0 59.333 32.667 89 98 89c50 0 75 -22.667 75 -68zM216 76c0 -58.667 -32.333 -88 -97 -88c-50.667 0 -76 22.333 -76 67c0 59.333 32.667 89 98 89c50 0 75 -22.667 75 -68z" />
    <glyph glyph-name="semicolon" unicode=";" horiz-adv-x="258" 
d="M101 -119l-65.002 20.001l43 107c2.66699 6 1.33398 10 -3.99902 12l-39 14l38 108c42.667 -0.666992 74.834 -5.33398 96.501 -14.001s32.5 -27 32.5 -55c0 -17.333 -10.333 -43.333 -31 -78zM269.998 456.001c0 -58.667 -32.333 -88 -97 -88
c-50.667 0 -76 22.333 -76 67c0 59.333 32.667 89 98 89c50 0 75 -22.667 75 -68z" />
    <glyph glyph-name="less" unicode="&#x3c;" horiz-adv-x="570" 
d="M477 84l-370 137l19 140l408 142l18 -113l-306 -98l280 -98z" />
    <glyph glyph-name="equal" unicode="=" horiz-adv-x="570" 
d="M477 130h-386l16 117h386zM502 316h-385l16 117h386z" />
    <glyph glyph-name="greater" unicode="&#x3e;" horiz-adv-x="570" 
d="M502 221l-410 -137l-14 116l308 98l-278 98l46 107l367 -142z" />
    <glyph glyph-name="question" unicode="?" horiz-adv-x="528" 
d="M299 192l-151 0.00195312l25 186c26.667 2 52 6 76 12s48.167 14.833 72.5 26.5s43.666 27.667 57.999 48s21.5 44.166 21.5 71.499c0 21.333 -6.83301 37.5 -20.5 48.5s-32.167 16.5 -55.5 16.5c-28 0 -50.667 -2.33301 -68 -7
c-10 -2.66699 -16.333 -9.33398 -19 -20.001l-15 -60l-124 -9l24 173c84.667 30.667 159.334 46 224.001 46c144.667 0 217 -61.333 217 -184c0 -66.667 -21.333 -122.167 -64 -166.5s-105.667 -72.833 -189 -85.5zM292 79.002c0 -60.667 -32.667 -91 -98 -91
c-50.667 0 -76 21.333 -76 64c0 61.333 32.667 92 98 92c50.667 0 76 -21.667 76 -65z" />
    <glyph glyph-name="at" unicode="@" horiz-adv-x="841" 
d="M571 -70l12.002 -82c-56 -23.333 -125.333 -35 -208 -35c-98 0 -174.833 24.833 -230.5 74.5s-83.5 122.167 -83.5 217.5c0 134.667 42.667 245.5 128 332.5s192.666 130.5 321.999 130.5c95.333 0 169.666 -24 222.999 -72s80 -115 80 -201
c0 -102 -22.167 -178.667 -66.5 -230s-102.5 -77 -174.5 -77c-56.667 0 -90 23 -100 69c-53.333 -46 -97.333 -69 -132 -69c-64 0 -96 40.667 -96 122c0 74.667 25 141.167 75 199.5s111.333 87.5 184 87.5c48.667 0 93.667 -10.667 135 -32l-39 -130
c-8.66699 -26 -17.334 -57 -26.001 -93c-4.66699 -16.667 -7 -29.667 -7 -39c0 -22 12 -33 36 -33c32 0 58.5 22.167 79.5 66.5s31.5 92.833 31.5 145.5c0 130.667 -73 196 -219 196c-54 0 -102.667 -10.5 -146 -31.5s-78.166 -49 -104.499 -84s-46.5 -73.333 -60.5 -115
s-21 -84.5 -21 -128.5c0 -72.667 19.333 -127.5 58 -164.5s95 -55.5 169 -55.5c60.667 0 121 10.333 181 31zM474.002 128l54.999 183.999c-10 8 -24.333 12 -43 12c-33.333 0 -64.666 -20.167 -93.999 -60.5s-44 -88.166 -44 -143.499c0 -30 11 -45 33 -45
c25.333 0 56.333 17.667 93 53z" />
    <glyph glyph-name="A" unicode="A" horiz-adv-x="744" 
d="M726 0h-306.999l10 73l82 9l-19 109h-246l-49 -109l76 -9l-11 -73h-274l11 73l45 11c13.333 3.33301 22.333 10 27 20l299 620h174l128 -623c1.33301 -8 8.66602 -13.667 21.999 -17l43 -11zM476.001 299l-51 273h-7l-127 -273h185z" />
    <glyph glyph-name="B" unicode="B" horiz-adv-x="648" 
d="M340 0l-322 0.00390625l11 73l62 7c7.33301 1.33301 12.166 3.16602 14.499 5.49902s3.83301 7.16602 4.5 14.499l73 522c1.33301 7.33301 1 12.333 -1 15s-6.33301 4.33398 -13 5.00098l-61 7l10 75h330c68 0 117.167 -14.333 147.5 -43s45.5 -66.334 45.5 -113.001
c0 -52 -13.833 -93.333 -41.5 -124s-62.5 -52.334 -104.5 -65.001v-3c47.333 -5.33301 82.833 -20.833 106.5 -46.5s35.5 -59.834 35.5 -102.501c0 -79.333 -26.667 -137 -80 -173s-125.666 -54 -216.999 -54zM261 108.004h67.999c50.667 0 88.834 9 114.501 27
s38.5 50.667 38.5 98c0 58 -36.333 87 -109 87h-83zM303.999 420.004h40c21.333 0 40.166 1.66699 56.499 5s31.833 9 46.5 17s26 20.167 34 36.5s12 36.5 12 60.5c0 30 -9.16699 50.167 -27.5 60.5s-45.166 15.5 -80.499 15.5h-55z" />
    <glyph glyph-name="C" unicode="C" horiz-adv-x="670" 
d="M636 229l-26.001 -186c-63.333 -36.667 -147.666 -55 -252.999 -55c-100.667 0 -175.5 27.667 -224.5 83s-73.5 131.666 -73.5 228.999c0 131.333 36.167 237 108.5 317s175.5 120 309.5 120c41.333 0 82.333 -5.16699 123 -15.5s72.667 -24.166 96 -41.499l-26 -196
l-107 9l-3 93c0 12 -4.33301 19.333 -13 22c-22 8.66699 -50 13 -84 13c-74.667 0 -134.167 -26.833 -178.5 -80.5s-66.5 -130.167 -66.5 -229.5c0 -68.667 14.167 -120.667 42.5 -156s69.5 -53 123.5 -53c46.667 0 81 4.33301 103 13c7.33301 4 12.333 10.333 15 19l29 95
h105z" />
    <glyph glyph-name="D" unicode="D" horiz-adv-x="739" 
d="M320 0h-302l11 75l63 7c6.66699 0.666992 11 2.16699 13 4.5s3.66699 7.16602 5 14.499l73 522c2 12 -2.33301 18.667 -13 20l-62 7l10 74h318c104.667 0 182.167 -25.667 232.5 -77s75.5 -123.666 75.5 -216.999c0 -128.667 -35.667 -232.5 -107 -311.5
s-177 -118.5 -317 -118.5zM262 107h56c86.667 0 153.5 30 200.5 90s70.5 136.333 70.5 229c0 66.667 -16 115 -48 145s-81.333 45 -148 45h-61z" />
    <glyph glyph-name="E" unicode="E" horiz-adv-x="620" 
d="M561 0l-542.997 0.000976562l10 73l63 7c7.33301 1.33301 12.166 3.16602 14.499 5.49902s3.83301 7.16602 4.5 14.499l73 523c1.33301 7.33301 1.16602 12.333 -0.500977 15s-5.83398 4.33398 -12.501 5.00098l-62 7l10 74h521l-28 -202l-105 5l-3 76
c-0.666992 8.66699 -6 13 -16 13h-155l-27 -197h230l-16 -111h-230l-27 -201h177c9.33301 0 15 3.66699 17 11l28 88h105z" />
    <glyph glyph-name="F" unicode="F" horiz-adv-x="595" 
d="M408 0l-388.999 0.000976562l10 73l62 7c7.33301 1.33301 12.166 3.16602 14.499 5.49902s3.83301 7.16602 4.5 14.499l73 523c1.33301 7.33301 1.16602 12.333 -0.500977 15s-5.83398 4.33398 -12.501 5.00098l-62 7l10 74h518l-28 -202l-106 5l-3 76
c-0.666992 8.66699 -6 13 -16 13h-151l-27 -196h226l-15 -111h-226l-29 -207c-1.33301 -8 -1.16602 -13.167 0.500977 -15.5s5.83398 -3.83301 12.501 -4.5l143 -8z" />
    <glyph glyph-name="G" unicode="G" horiz-adv-x="717" 
d="M721 269l-40.002 -4c-11.333 -0.666992 -17.333 -5.33398 -18 -14.001l-29 -215c-71.333 -32 -158.666 -48 -261.999 -48c-108.667 0 -188.167 28.333 -238.5 85s-75.5 132.334 -75.5 227.001c0 130 36.333 235.333 109 316s176.334 121 311.001 121
c39.333 0 79.333 -5 120 -15s73.667 -24.333 99 -43l-25 -189l-108 8l-3 89c0 12 -4 19 -12 21c-27.333 8.66699 -57 13 -89 13c-74 0 -132.833 -28.167 -176.5 -84.5s-65.5 -131.833 -65.5 -226.5c0 -138 58.667 -207 176 -207c38 0 67.333 3.33301 88 10
c7.33301 2 12 7.66699 14 17l19 129h-110l26 90h301z" />
    <glyph glyph-name="H" unicode="H" horiz-adv-x="802" 
d="M749 0l-309.997 -0.00292969l11 73l62 7c6.66699 0.666992 11 2.33398 13 5.00098s3.66699 7.66699 5 15l31 216h-269l-30 -215c-1.33301 -8 -1.33301 -13.167 0 -15.5s5.33301 -3.83301 12 -4.5l65 -8l-10 -73h-310l10 73l63 7c6.66699 0.666992 11 2.33398 13 5.00098
s3.66699 7.66699 5 15l73 522c1.33301 7.33301 1 12.333 -1 15s-6.33301 4.33398 -13 5.00098l-60 7l10 75h310l-10 -75l-67 -8c-7.33301 -1.33301 -12 -3 -14 -5s-3.33301 -6.66699 -4 -14l-26 -194h268l27 194c1.33301 8 1.16602 13.167 -0.500977 15.5
s-5.83398 3.83301 -12.501 4.5l-61 7l10 75h310l-10 -75l-66 -8c-7.33301 -0.666992 -11.833 -2 -13.5 -4s-3.16699 -7 -4.5 -15l-73 -521c-1.33301 -8 -1.33301 -13.167 0 -15.5s5.66602 -3.83301 12.999 -4.5l65 -8z" />
    <glyph glyph-name="I" unicode="I" horiz-adv-x="382" 
d="M340 0l-329 -0.000976562l8 73l73 7c6.66699 0.666992 11 2.16699 13 4.5s3.66699 7.5 5 15.5l74 522c1.33301 7.33301 1 12.333 -1 15s-6.33301 4.33398 -13 5.00098l-70 7l10 75h330l-11 -75l-76 -8c-7.33301 -0.666992 -11.833 -2 -13.5 -4s-3.16699 -7 -4.5 -15
l-73 -521c-1.33301 -8 -1.33301 -13.167 0 -15.5s5.33301 -3.83301 12 -4.5l75 -8z" />
    <glyph glyph-name="J" unicode="J" 
d="M254 164l63.998 459c2 12 -2.66699 18.333 -14 19l-87 7l10 75h337l-11 -75l-67 -8c-4.66699 -0.666992 -8 -1.5 -10 -2.5s-3.5 -2.5 -4.5 -4.5s-1.83301 -5.66699 -2.5 -11l-65 -460c-8 -60 -28.333 -104.167 -61 -132.5s-81.667 -42.5 -147 -42.5
c-37.333 0 -73.166 4 -107.499 12s-58.166 17 -71.499 27l25 178l106 -8l1 -71c0 -8 2.33301 -12.667 7 -14c10.667 -4 24.667 -6 42 -6c18 0 31 4.33301 39 13s13.667 23.667 17 45z" />
    <glyph glyph-name="K" unicode="K" horiz-adv-x="735" 
d="M710 0h-203.998l-7 5l-35 84l-102 209l-85 -88l-16 -108c-1.33301 -8 -1.33301 -13.167 0 -15.5s5.33301 -3.83301 12 -4.5l66 -8l-10 -74h-310l10 74l62 7c7.33301 0.666992 12.166 2.16699 14.499 4.5s3.83301 7.5 4.5 15.5l73 522c2 12 -2.33301 18.667 -13 20l-60 7
l9 74h310l-9 -74l-68 -8c-7.33301 -1.33301 -12 -3 -14 -5s-3.33301 -6.66699 -4 -14l-36 -254l269 272l-59 8l10 75h257l-10 -75l-42 -7c-12.667 -2 -23.334 -7.66699 -32.001 -17l-210 -213l153 -309c5.33301 -10.667 14.333 -17 27 -19l59 -10z" />
    <glyph glyph-name="L" unicode="L" horiz-adv-x="607" 
d="M562 0h-542.997l10 74l62 7c7.33301 1.33301 12.166 3.16602 14.499 5.49902s3.83301 7.16602 4.5 14.499l73 522c1.33301 7.33301 1.16602 12.333 -0.500977 15s-5.83398 4.33398 -12.501 5.00098l-60 7l8 74h327l-10 -74l-83 -8
c-6.66699 -0.666992 -11 -2.16699 -13 -4.5s-3.66699 -7.16602 -5 -14.499l-72 -516h176c9.33301 0 15.333 3.66699 18 11l29 100h107z" />
    <glyph glyph-name="M" unicode="M" horiz-adv-x="942" 
d="M890 0l-322.998 -0.000976562l10 73l82 7c6 0.666992 10.167 2.33398 12.5 5.00098s4.16602 7.66699 5.49902 15l53 376h-4l-187 -332h-153l-99 331h-5l-52 -374c-1.33301 -8.66699 -1.33301 -14 0 -16s5.33301 -3.33301 12 -4l84 -8l-9 -73h-298l9 73l63 7
c7.33301 1.33301 12.166 3.16602 14.499 5.49902s3.83301 7.5 4.5 15.5l73 522c2 12 -2.33301 18.667 -13 20l-60 7l8 74h246l128 -439h5l240 439h253l-9 -73l-66 -8c-8 -0.666992 -12.833 -2.16699 -14.5 -4.5s-3.16699 -7.83301 -4.5 -16.5l-74 -522
c-2 -11.333 2.33301 -17.666 13 -18.999l65 -8z" />
    <glyph glyph-name="N" unicode="N" horiz-adv-x="812" 
d="M682 0h-159.997l-240 525l-59 -424c-1.33301 -8 -1.16602 -13.167 0.500977 -15.5s5.83398 -3.83301 12.501 -4.5l65 -8l-9 -73h-273l9 73l63 7c7.33301 1.33301 12.166 3.16602 14.499 5.49902s3.83301 7.16602 4.5 14.499l73 523
c1.33301 8 1.16602 13.167 -0.500977 15.5s-5.83398 3.83301 -12.501 4.5l-60 7l8 74h243l236 -526l60 424c1.33301 7.33301 1.16602 12.333 -0.500977 15s-5.83398 4.33398 -12.501 5.00098l-61 7l9 75h272l-10 -75l-67 -8c-4.66699 -0.666992 -8 -1.5 -10 -2.5
s-3.5 -2.66699 -4.5 -5s-1.83301 -6.16602 -2.5 -11.499z" />
    <glyph glyph-name="O" unicode="O" horiz-adv-x="757" 
d="M352 -12c-100.667 0 -174.668 26.167 -222.001 78.5s-71 125.5 -71 219.5c0 132 35.5 240.167 106.5 324.5s171.833 126.5 302.5 126.5c98.667 0 171.834 -26.667 219.501 -80s71.5 -124 71.5 -212c0 -142.667 -35.833 -254.5 -107.5 -335.5s-171.5 -121.5 -299.5 -121.5
zM374.999 111c63.333 0 114.999 24.001 154.999 72.001s63 123.667 69 227c0 26 -0.666992 44.667 -2 56c-11.333 98.667 -60.333 148 -147 148c-49.333 0 -92 -15.333 -128 -46s-62 -68.334 -78 -113.001s-24 -93 -24 -145c0 -22.667 1 -40.667 3 -54
c12.667 -96.667 63.334 -145 152.001 -145z" />
    <glyph glyph-name="P" unicode="P" horiz-adv-x="635" 
d="M402 0l-383.998 0.000976562l11 74l63 7c7.33301 1.33301 12.166 3.16602 14.499 5.49902s3.83301 7.16602 4.5 14.499l72 521c1.33301 7.33301 1 12.333 -1 15s-6.33301 4.33398 -13 5.00098l-60 7l9 75h326c75.333 0 130.166 -16.833 164.499 -50.5
s51.5 -79.5 51.5 -137.5c0 -90 -26.833 -157.333 -80.5 -202s-128.5 -67 -224.5 -67h-72l-22 -165c-1.33301 -8 -1.33301 -13.167 0 -15.5s5.33301 -3.83301 12 -4.5l140 -8zM298.002 374.001l48.001 -0.000976562c21.333 0 40.166 1.83301 56.499 5.5
s32.5 10.334 48.5 20.001s28.5 24.667 37.5 45s13.5 45.833 13.5 76.5c0 35.333 -10 59.833 -30 73.5s-47.667 20.5 -83 20.5h-58z" />
    <glyph glyph-name="Q" unicode="Q" horiz-adv-x="757" 
d="M681 -52l-4.00195 -110.002c-30 -4 -57 -6 -81 -6c-38 0 -73.667 4.83301 -107 14.5s-59.5 20.167 -78.5 31.5s-39.833 21.833 -62.5 31.5s-43.667 14.5 -63 14.5c-33.333 0 -71.666 -14.333 -114.999 -43l-51 90c36.667 25.333 71 42 103 50v2
c-108.667 52.667 -163 140.334 -163 263.001c0 132 35.5 240.167 106.5 324.5s171.833 126.5 302.5 126.5c98.667 0 171.834 -26.667 219.501 -80s71.5 -124 71.5 -212c0 -134 -31.167 -238.167 -93.5 -312.5s-153.5 -117.166 -273.5 -128.499v-2
c83.333 -40 155 -60 215 -60c22 0 46.667 2 74 6zM374.998 110.998c50.667 0 93.499 15.1689 128.499 45.502s59.667 68.166 74 113.499s21.5 96 21.5 152c0 13.333 -0.666992 28 -2 44c-11.333 98.667 -60.333 148 -147 148c-49.333 0 -92 -15.333 -128 -46
s-62 -68.334 -78 -113.001s-24 -93 -24 -145c0 -22.667 1 -40.667 3 -54c12.667 -96.667 63.334 -145 152.001 -145z" />
    <glyph glyph-name="R" unicode="R" horiz-adv-x="673" 
d="M653 0l-206.002 0.000976562l-6 5l-55 246c-3.33301 16 -8.5 27.5 -15.5 34.5s-18.833 10.5 -35.5 10.5h-47l-27 -193c-1.33301 -8 -1.33301 -13.167 0 -15.5s5.33301 -3.83301 12 -4.5l59 -8l-9 -75h-303l9 75l63 7c6.66699 0.666992 11 2.16699 13 4.5
s3.66699 7.5 5 15.5l74 521c2 12 -2.33301 18.667 -13 20l-60 7l8 74h328c72 0 124.833 -16.5 158.5 -49.5s50.5 -75.5 50.5 -127.5c0 -100.667 -52.667 -172.334 -158 -215.001c12.667 -6.66699 22.334 -16 29.001 -28s12.334 -29.333 17.001 -52l33 -148
c2.66699 -12 11 -19 25 -21l61 -8zM302.998 400.001l45.001 0.000976562c100 0 150 42.667 150 128c0 31.333 -9.33301 53.666 -28 66.999s-48.334 20 -89.001 20h-49z" />
    <glyph glyph-name="S" unicode="S" horiz-adv-x="588" 
d="M577 501l-109.001 8.99902l-2 86c0 12 -4.33301 19 -13 21c-11.333 3.33301 -30.666 5 -57.999 5c-36.667 0 -67.667 -8 -93 -24s-38 -38.667 -38 -68c0 -10.667 2.5 -20.5 7.5 -29.5s10.333 -16.333 16 -22s15.334 -11.834 29.001 -18.501s24.167 -11.334 31.5 -14.001
l39 -14c20.667 -7.33301 37.5 -13.833 50.5 -19.5s28.333 -14 46 -25s31.667 -23 42 -36s19.166 -29.667 26.499 -50s11 -43.166 11 -68.499c0 -81.333 -28.333 -142.5 -85 -183.5s-129.667 -61.5 -219 -61.5c-42.667 0 -85.834 4.33301 -129.501 13s-75.167 18 -94.5 28
l27 195h109l7 -94c0.666992 -11.333 6.66699 -18.666 18 -21.999c21.333 -5.33301 47 -8 77 -8c91.333 0 137 34.667 137 104c0 26 -9.16699 45.833 -27.5 59.5s-46.166 27.167 -83.499 40.5c-58.667 20.667 -98.667 38.334 -120 53.001c-45.333 32.667 -68 80 -68 142
c0 77.333 27.667 136.333 83 177s126 61 212 61c68 0 134 -13.667 198 -41z" />
    <glyph glyph-name="T" unicode="T" horiz-adv-x="680" 
d="M523 0l-391.999 -0.00195312l11 74l101 7c6.66699 0.666992 11 2.33398 13 5.00098s3.66699 7.66699 5 15l71 514h-102c-8.66699 0 -14 -3.66699 -16 -11l-28 -87h-107l28 207h631l-28 -207h-106l-4 87c-0.666992 4.66699 -1.83398 7.66699 -3.50098 9
s-5.16699 2 -10.5 2h-102l-71 -514c-1.33301 -7.33301 -1.33301 -12.166 0 -14.499s5.33301 -3.83301 12 -4.5l108 -9z" />
    <glyph glyph-name="U" unicode="U" horiz-adv-x="774" 
d="M555 287l47.001 335.996c1.33301 7.33301 1.16602 12.333 -0.500977 15s-5.83398 4.33398 -12.501 5.00098l-61 7l10 74h290l-10 -74l-68 -8c-7.33301 -0.666992 -11.833 -2.16699 -13.5 -4.5s-2.83398 -7.16602 -3.50098 -14.499l-51 -364
c-13.333 -94 -45.166 -162.667 -95.499 -206s-120.166 -65 -209.499 -65c-86 0 -150.167 17.5 -192.5 52.5s-63.5 88.5 -63.5 160.5c0 16.667 1.66699 37.334 5 62.001l49 360c2 12.667 -2 19.334 -12 20.001l-61 7l10 74h310l-10 -74l-67 -8
c-7.33301 -0.666992 -11.833 -2 -13.5 -4s-3.16699 -7 -4.5 -15l-47 -335c-4 -26 -6 -49.333 -6 -70c0 -37.333 9 -64.5 27 -81.5s47.333 -25.5 88 -25.5c52 0 90.5 13.5 115.5 40.5s41.833 72.167 50.5 135.5z" />
    <glyph glyph-name="V" unicode="V" horiz-adv-x="714" 
d="M448 0h-200l-112 623c-1.33301 8 -8.33301 13.667 -21 17l-43 11l11 73h306l-11 -73l-81 -9l79 -496h5l211 496l-75 9l11 73h268l-11 -73l-43 -11c-14 -4 -23.667 -12.333 -29 -25z" />
    <glyph glyph-name="W" unicode="W" horiz-adv-x="1011" 
d="M784 0h-199l-43 366h-3l-143 -366h-195l-62 615c-0.666992 9.33301 -2.16699 15.333 -4.5 18s-7.83301 5 -16.5 7l-47 11l11 73h299l-11 -73l-83 -10l47 -487h5l173 436h150l48 -446h6l168 497l-79 10l11 73h275l-11 -73l-48 -11c-12 -2 -21 -10.667 -27 -26z" />
    <glyph glyph-name="X" unicode="X" horiz-adv-x="757" 
d="M719 0l-321.001 -0.000976562l11 73l78 9l-110 188l-157 -188l74 -9l-11 -73h-278l10 73l59 11c10.667 2.66699 20 9 28 19l219 253l-159 267c-4.66699 8.66699 -11.667 14.334 -21 17.001l-49 11l12 73h314l-11 -73l-77 -9l105 -185l158 185l-73 9l12 73h264l-10 -73
l-50 -11c-9.33301 -2.66699 -18.666 -9 -27.999 -19l-217 -249l166 -271c6.66699 -10 15 -16 25 -18l47 -10z" />
    <glyph glyph-name="Y" unicode="Y" horiz-adv-x="663" 
d="M516 0h-383.999l9 74l100 7c6 0.666992 10 2.16699 12 4.5s3.66699 7.5 5 15.5l24 169l-146 353c-2.66699 7.33301 -10 13 -22 17l-42 11l11 73h302l-11 -73l-78 -9l87 -240h6l152 240l-74 9l11 73h261l-11 -73l-42 -11c-14 -4.66699 -23.333 -11.334 -28 -20.001
l-224 -348l-24 -171c-1.33301 -7.33301 -1.33301 -12.166 0 -14.499s5.66602 -3.83301 12.999 -4.5l103 -8z" />
    <glyph glyph-name="Z" unicode="Z" horiz-adv-x="658" 
d="M594 0h-568l14 97l434 519h-215c-9.33301 0 -15 -3.66699 -17 -11l-29 -92l-109 -5l31 216h537l-13 -101l-431 -516h241c9.33301 0 15.333 3.66699 18 11l33 107h104z" />
    <glyph glyph-name="bracketleft" unicode="[" horiz-adv-x="311" 
d="M252 -143h-224.001l122 867h224l-8 -71l-66 -11c-6.66699 -0.666992 -11.167 -2.5 -13.5 -5.5s-4.16602 -7.83301 -5.49902 -14.5l-93 -662c-2 -12.667 2.33301 -19.667 13 -21l63 -11z" />
    <glyph glyph-name="backslash" unicode="\" horiz-adv-x="437" 
d="M404 -92h-138l-157 823h137z" />
    <glyph glyph-name="bracketright" unicode="]" horiz-adv-x="308" 
d="M206 -143h-225l9 71l65 11c10.667 1.33301 17 8 19 20l93 662c2 12.667 -2.33301 19.667 -13 21l-63 10l12 72h225z" />
    <glyph glyph-name="asciicircum" unicode="^" horiz-adv-x="609" 
d="M602 299h-143l-100 240l-163 -240h-143l248 365h153z" />
    <glyph glyph-name="underscore" unicode="_" 
d="M475 -181h-500l15 107h499z" />
    <glyph glyph-name="grave" unicode="`" 
d="M458 611l-64 -50l-158 146l93 78z" />
    <glyph glyph-name="a" unicode="a" horiz-adv-x="605" 
d="M563 0l-193.002 -0.000976562l12 81l-5 1c-32.667 -32 -62.834 -55.667 -90.501 -71s-58.167 -23 -91.5 -23c-101.333 0 -152 66.667 -152 200c0 40.667 4.5 80 13.5 118s22.833 74.5 41.5 109.5s45 63 79 84s73.333 31.5 118 31.5c53.333 0 99 -19 137 -57l19 47h128
c-13.333 -65.333 -21.666 -109 -24.999 -131l-40 -290c-1.33301 -7.33301 -1.16602 -12.166 0.500977 -14.499s5.83398 -3.83301 12.501 -4.5l47 -7zM383.998 191.999l25.999 188c-27.333 24.667 -56.666 37 -87.999 37c-23.333 0 -43.5 -7.66699 -60.5 -23
s-30 -34.833 -39 -58.5s-15.5 -47 -19.5 -70s-6 -44.833 -6 -65.5c0 -58 19 -87 57 -87c34 0 77.333 26.333 130 79z" />
    <glyph glyph-name="b" unicode="b" horiz-adv-x="601" 
d="M190 0h-145c17.333 60 28.666 108.667 33.999 146l70 495c0.666992 10.667 -2.66602 17.667 -9.99902 21l-51 17l11 76h209l-45 -313l2 -1c64 60 124.333 90 181 90c95.333 0 143 -64.333 143 -193c0 -37.333 -3.83301 -74.833 -11.5 -112.5s-20 -75.167 -37 -112.5
s-41.667 -67.5 -74 -90.5s-70.5 -34.5 -114.5 -34.5c-56 0 -105 21 -147 63l-3 -1zM252 329l-26.999 -185c33.333 -26.667 65.333 -40 96 -40c25.333 0 46.666 11 63.999 33s29.333 47.667 36 77s10 60 10 92c0 65.333 -17.333 98 -52 98c-28.667 0 -71 -25 -127 -75z" />
    <glyph glyph-name="c" unicode="c" horiz-adv-x="502" 
d="M427 130l24.998 -93.001c-57.333 -32.667 -121.666 -49 -192.999 -49c-73.333 0 -128 19.5 -164 58.5s-54 92.167 -54 159.5c0 106 28.5 186.667 85.5 242s130.167 83 219.5 83c72 0 127.667 -14 167 -42l-22 -157l-102 5l-3 68c0 7.33301 -2.33301 12 -7 14
c-11.333 4.66699 -27.666 7 -48.999 7c-37.333 0 -69 -16.667 -95 -50s-39 -84.666 -39 -153.999c0 -81.333 33 -122 99 -122c37.333 0 81.333 10 132 30z" />
    <glyph glyph-name="d" unicode="d" horiz-adv-x="608" 
d="M564 0l-194.004 -0.000976562l12 80l-5 2c-32.667 -32 -62.667 -55.667 -90 -71s-57.666 -23 -90.999 -23c-102 0 -153 66 -153 198c0 38.667 4.33301 77 13 115s22.334 74.833 41.001 110.5s45 64.5 79 86.5s73.333 33 118 33c50.667 0 95 -14.333 133 -43l20 154
c1.33301 11.333 -2 18 -10 20l-50 17l12 76h206l-91 -655c-1.33301 -7.33301 -1.16602 -12.166 0.500977 -14.499s5.83398 -3.83301 12.501 -4.5l47 -7zM383.996 192.999l27.001 189.998c-26.667 22.667 -55.334 34 -86.001 34c-24 0 -44.833 -7.5 -62.5 -22.5
s-31 -34.667 -40 -59s-15.5 -48.166 -19.5 -71.499s-6 -46.666 -6 -69.999c0 -54 19 -81 57 -81c34.667 0 78 26.667 130 80z" />
    <glyph glyph-name="e" unicode="e" horiz-adv-x="506" 
d="M439 136l22 -97.9971c-72 -33.333 -141 -50 -207 -50c-74 0 -128 19.167 -162 57.5s-51 90.166 -51 155.499c0 102 28.333 182.5 85 241.5s127.334 88.5 212.001 88.5c54 0 94.833 -11.5 122.5 -34.5s41.5 -55.5 41.5 -97.5c0 -34 -8.33301 -63.667 -25 -89
s-40.334 -45.333 -71.001 -60s-62.667 -25.834 -96 -33.501s-71.666 -13.834 -114.999 -18.501c4 -65.333 37 -98 99 -98c39.333 0 87.666 12 144.999 36zM201 295.003c110 15.333 164.999 45.333 164.999 90c0 25.333 -16 38 -48 38c-28 0 -52.667 -11.5 -74 -34.5
s-35.666 -54.167 -42.999 -93.5z" />
    <glyph glyph-name="f" unicode="f" horiz-adv-x="424" 
d="M189 -212h-149l89 623c1.33301 6.66699 -1 10 -7 10h-65l13 100h74l9 64c9.33301 64.667 31 111.167 65 139.5s79.667 42.5 137 42.5c30.667 0 62.334 -5.16699 95.001 -15.5s58.334 -22.833 77.001 -37.5l-55 -93c-38.667 24 -72.334 36 -101.001 36
c-40.667 0 -64 -22.333 -70 -67l-8 -59c-0.666992 -6.66699 1.66602 -10 6.99902 -10h154l-14 -100h-162z" />
    <glyph glyph-name="g" unicode="g" horiz-adv-x="589" 
d="M366 -5l12 86l-3 2c-34 -29.333 -64.167 -51.5 -90.5 -66.5s-55.833 -22.5 -88.5 -22.5c-102 0 -153 64.667 -153 194c0 40 4.5 79 13.5 117s22.667 74.5 41 109.5s44.5 63.167 78.5 84.5s73.333 32 118 32c55.333 0 101.333 -19 138 -57l19 47h129
c-14 -63.333 -22.667 -108 -26 -134l-56 -403c-18.667 -138 -100 -207 -244 -207c-45.333 0 -88.5 6 -129.5 18s-70.5 24.333 -88.5 37l47 93c12 -8.66699 33.333 -18 64 -28s61.334 -15 92.001 -15c39.333 0 69.166 8.83301 89.499 26.5s32.833 46.5 37.5 86.5zM384 193
l27.002 185.999c-26.667 25.333 -56.334 38 -89.001 38c-30.667 0 -56 -13.667 -76 -41s-33.167 -56.166 -39.5 -86.499s-9.5 -60.5 -9.5 -90.5c0 -28.667 4.66699 -49.167 14 -61.5s23.666 -18.5 42.999 -18.5c36 0 79.333 24.667 130 74z" />
    <glyph glyph-name="h" unicode="h" horiz-adv-x="619" 
d="M583 0l-213.998 0.00195312l-2 4l19 108l30 221c4 20.667 4.33301 37.167 1 49.5s-12 18.5 -26 18.5c-30.667 0 -74.334 -23.667 -131.001 -71l-32 -229c-1.33301 -8 -1.16602 -13.167 0.500977 -15.5s6.16699 -3.83301 13.5 -4.5l50 -7l-10 -74h-273l10 75l44 6
c6.66699 1.33301 11.167 3.16602 13.5 5.49902s3.83301 7.16602 4.5 14.499l76 540c2 11.333 -1 18.333 -9 21l-50 17l11 76h204l-44 -316l3 -2l60 49.5c11.333 9 28.666 18.667 51.999 29s47 15.5 71 15.5c35.333 0 63.5 -10.667 84.5 -32s31.5 -51.333 31.5 -90
c0 -10.667 -1.33301 -28 -4 -52l-36 -256c-1.33301 -8 -1.33301 -13.167 0 -15.5s5.66602 -3.83301 12.999 -4.5l49 -7z" />
    <glyph glyph-name="i" unicode="i" horiz-adv-x="318" 
d="M210 601c-24.667 0 -43.668 6.66797 -57.001 20.001s-20 31.666 -20 54.999c0 32 9 57.167 27 75.5s43.333 27.5 76 27.5c24.667 0 43.834 -6.33301 57.501 -19s20.5 -31 20.5 -55c0 -32 -9.33301 -57.333 -28 -76s-44 -28 -76 -28zM279.999 0.000976562h-216.001l-2 5
l24 135l37 267c2 11.333 -1.33301 18.333 -10 21l-49 17l10 76h213l-59 -420c-1.33301 -8 -1.16602 -13.167 0.500977 -15.5s6.16699 -3.83301 13.5 -4.5l48 -7z" />
    <glyph glyph-name="j" unicode="j" horiz-adv-x="315" 
d="M62 -28l61.998 435c0.666992 10.667 -2.66602 17.667 -9.99902 21l-51 17l10 76h213l-79 -574c-8 -59.333 -28.167 -102.5 -60.5 -129.5s-76.833 -40.5 -133.5 -40.5c-35.333 0 -67.5 5.83301 -96.5 17.5s-48.833 22.834 -59.5 33.501l51 83
c26.667 -17.333 54.334 -26 83.001 -26c20.667 0 36.5 6.16699 47.5 18.5s18.833 35.166 23.5 68.499zM209.998 601c-24.667 0 -43.833 6.66797 -57.5 20.001s-20.5 31.666 -20.5 54.999c0 32 9.16699 57.167 27.5 75.5s43.5 27.5 75.5 27.5
c25.333 0 44.833 -6.33301 58.5 -19s20.5 -31 20.5 -55c0 -31.333 -9.33301 -56.5 -28 -75.5s-44 -28.5 -76 -28.5z" />
    <glyph glyph-name="k" unicode="k" horiz-adv-x="608" 
d="M583 0l-187.998 0.00195312l-3 2l-33 110l-53 144l-63 -60l-14 -95c-1.33301 -8 -1.33301 -13.167 0 -15.5s5.66602 -3.83301 12.999 -4.5l50 -7l-10 -74h-273l9 75l46 6c6.66699 1.33301 11.167 3.16602 13.5 5.49902s3.83301 7.16602 4.5 14.499l75 540
c2 10.667 -1.33301 17.667 -10 21l-50 17l11 76h213l-59 -425l154 143c25.333 23.333 47.833 38.833 67.5 46.5s41.5 11.5 65.5 11.5c14.667 0 34 -2 58 -6l-11 -87c-36.667 2 -70.334 -11.333 -101.001 -40l-60 -56l87 -244c4 -10 13.333 -16 28 -18l44 -7z" />
    <glyph glyph-name="l" unicode="l" horiz-adv-x="318" 
d="M279 0h-215.999l-3 5l24 135l71 501c2 11.333 -1.33301 18.333 -10 21l-50 17l11 76h213l-92 -654c-1.33301 -8 -1.33301 -13.167 0 -15.5s5.66602 -3.83301 12.999 -4.5l48 -7z" />
    <glyph glyph-name="m" unicode="m" horiz-adv-x="879" 
d="M843 0l-216.998 0.00390625l-2 3l21 118l31 212c4 22 4.33301 38.5 1 49.5s-11.333 16.5 -24 16.5c-21.333 0 -58 -23 -110 -69l-32 -229c-1.33301 -8 -1.33301 -13.167 0 -15.5s5.33301 -3.83301 12 -4.5l50 -7l-10 -74h-216l-2 4l22 127l29 202
c4 19.333 4.83301 34.833 2.5 46.5s-10.166 17.5 -23.499 17.5c-26 0 -64 -22.333 -114 -67l-31 -229c-1.33301 -8 -1.33301 -13.167 0 -15.5s5.66602 -3.83301 12.999 -4.5l50 -7l-10 -74h-274l10 75l44 6c6.66699 1.33301 11.167 3.16602 13.5 5.49902
s3.83301 7.16602 4.5 14.499l42 305c2 11.333 -1 18.333 -9 21l-49 18l11 76h198l-11 -82l3 -1c25.333 21.333 44 36.666 56 45.999s30.333 19.5 55 30.5s48.667 16.5 72 16.5c28 0 50.5 -7.83301 67.5 -23.5s26.5 -38.167 28.5 -67.5l3 -1
c21.333 18.667 39.333 33.5 54 44.5s33.667 21.667 57 32s46 15.5 68 15.5c36 0 62.167 -9 78.5 -27s25.166 -45 26.499 -81c0 -16.667 -1.66699 -38.334 -5 -65.001l-36 -257c-1.33301 -8 -1.33301 -13.167 0 -15.5s5.66602 -3.83301 12.999 -4.5l49 -7z" />
    <glyph glyph-name="n" unicode="n" horiz-adv-x="620" 
d="M584 0h-216.001l-2 3l22 122l29 208c4 20.667 4.16699 37.334 0.5 50.001s-12.5 19 -26.5 19c-32 0 -75.333 -24 -130 -72l-31 -229c-1.33301 -8 -1.33301 -13.167 0 -15.5s5.66602 -3.83301 12.999 -4.5l50 -7l-10 -74h-274l10 75l44 6
c6.66699 1.33301 11.167 3.16602 13.5 5.49902s3.83301 7.16602 4.5 14.499l42 305c2 11.333 -1 18.333 -9 21l-49 18l11 76h198l-11 -82l3 -1c24 20.667 43.333 36.334 58 47.001s33.834 21 57.501 31s47.834 15 72.501 15c76 0 115.333 -39.667 118 -119
c0 -20 -1.33301 -38.333 -4 -55l-36 -256c-1.33301 -8 -1.33301 -13.167 0 -15.5s5.33301 -3.83301 12 -4.5l50 -7z" />
    <glyph glyph-name="o" unicode="o" horiz-adv-x="578" 
d="M269 -12c-76 0 -132.999 19.167 -170.999 57.5s-57 90.833 -57 157.5c0 98.667 26.667 178 80 238s127.666 90 222.999 90c78.667 0 135.5 -19.333 170.5 -58s52.5 -90 52.5 -154c0 -100.667 -25.5 -181 -76.5 -241s-124.833 -90 -221.5 -90zM281.001 93
c38 0 69 18 93 54s36 92.667 36 170c0 70.667 -27.667 106 -83 106c-38 0 -69.5 -17.5 -94.5 -52.5s-37.5 -90.833 -37.5 -167.5c0 -73.333 28.667 -110 86 -110z" />
    <glyph glyph-name="p" unicode="p" horiz-adv-x="604" 
d="M296 -212l-266.999 -0.000976562l-2 4l29 167l62 447c2 11.333 -1 18.333 -9 21l-49 18l11 76h200l-12 -80l3 -1c65.333 60.667 126.666 91 183.999 91c97.333 0 146 -66.667 146 -200c0 -38 -4 -75.5 -12 -112.5s-20.5 -73.5 -37.5 -109.5s-42 -65.167 -75 -87.5
s-71.5 -33.5 -115.5 -33.5c-20 0 -39.167 2.83301 -57.5 8.5s-32.333 11.334 -42 17.001s-22.5 14.167 -38.5 25.5l-22 -150c-0.666992 -6 0 -10 2 -12s6 -3.33301 12 -4l101 -10zM256.001 328.999l-27.002 -186c30.667 -26 62.334 -39 95.001 -39
c25.333 0 46.833 11 64.5 33s29.834 47.667 36.501 77s10 60 10 92c0 65.333 -17.333 98 -52 98c-28.667 0 -71 -25 -127 -75z" />
    <glyph glyph-name="q" unicode="q" horiz-adv-x="590" 
d="M536 -212l-299.002 -0.000976562l11 76l85 8c12.667 0.666992 20 6.66699 22 18l27 191l-4 2c-23.333 -20 -42 -35.333 -56 -46s-33.667 -21.5 -59 -32.5s-50.333 -16.5 -75 -16.5c-96 0 -144 66.667 -144 200c0 39.333 4.5 78.333 13.5 117s22.667 75.334 41 110.001
s44 62.667 77 84s70.833 32 113.5 32c54 0 102 -19 144 -57l19 47h128c-12 -55.333 -20.333 -100 -25 -134l-69 -497c-1.33301 -8 -1.16602 -13.167 0.500977 -15.5s5.83398 -3.83301 12.501 -4.5l47 -6zM384.998 192.999l26 185.999c-26.667 25.333 -56 38 -88 38
c-30.667 0 -56 -13.667 -76 -41s-33.167 -56.166 -39.5 -86.499s-9.5 -60.5 -9.5 -90.5c0 -57.333 19 -86 57 -86c34.667 0 78 26.667 130 80z" />
    <glyph glyph-name="r" unicode="r" horiz-adv-x="470" 
d="M329 0l-320.001 -0.000976562l10 75l46 6c6.66699 0.666992 11 2.33398 13 5.00098s3.66699 7.66699 5 15l42 305c1.33301 11.333 -2 18.333 -10 21l-50 18l11 76h198l-13 -90l3 -2c47.333 68 100.333 102 159 102c30.667 0 56.334 -3 77.001 -9l-25 -182l-117 4l-3 52
c-0.666992 8 -4.33398 12 -11.001 12c-18.667 0 -44.667 -17.333 -78 -52l-35 -254c-1.33301 -8 -1.16602 -13.167 0.500977 -15.5s6.16699 -3.83301 13.5 -4.5l95 -8z" />
    <glyph glyph-name="s" unicode="s" horiz-adv-x="478" 
d="M457 357l-104.001 5.99902l-2 52c0 8.66699 -4 14 -12 16c-13.333 3.33301 -32 5 -56 5c-50 0 -75 -16 -75 -48c0 -14.667 6.16699 -25.834 18.5 -33.501s32.5 -16.167 60.5 -25.5c21.333 -7.33301 36.5 -12.666 45.5 -15.999s22.833 -9.83301 41.5 -19.5
s32.167 -19.167 40.5 -28.5s16.333 -22.333 24 -39s11.5 -35 11.5 -55c0 -61.333 -22.333 -107.166 -67 -137.499s-101.334 -45.5 -170.001 -45.5c-42.667 0 -82.667 4 -120 12s-61 15.667 -71 23l19 145l102 -6l3 -58c0 -8 3.66699 -13.333 11 -16c18 -6 41.667 -9 71 -9
c27.333 0 48.5 4.83301 63.5 14.5s22.5 23.167 22.5 40.5c0 12.667 -4.66699 23.334 -14 32.001s-18.666 14.667 -27.999 18s-26.666 8.66602 -51.999 15.999c-22.667 6.66699 -41 13 -55 19s-29.333 14.833 -46 26.5s-29 26.667 -37 45s-12 39.833 -12 64.5
c0 58 21.667 101.833 65 131.5s98.333 44.5 165 44.5c72 0 131 -9.66699 177 -29z" />
    <glyph glyph-name="t" unicode="t" horiz-adv-x="422" 
d="M374 116l17.999 -88.999c-54.667 -26 -110.334 -39 -167.001 -39c-50 0 -86.167 9.16699 -108.5 27.5s-33.5 48.166 -33.5 89.499c0 13.333 1 28 3 44l36 262c1.33301 6.66699 -0.666992 10 -6 10h-69l13 92c42.667 4.66699 75.834 19 99.501 43s41.834 63 54.501 117h93
l-20 -142c-0.666992 -6.66699 1.66602 -10 6.99902 -10h138l-14 -100h-146l-33 -239c-2 -13.333 -3 -24 -3 -32c0 -18 4.33301 -30.833 13 -38.5s23.667 -11.5 45 -11.5c24.667 0 51.334 5.33301 80.001 16z" />
    <glyph glyph-name="u" unicode="u" horiz-adv-x="623" 
d="M578 0l-198.002 0.000976562l10 80l-3 1c-2 -1.33301 -7.5 -6 -16.5 -14s-15.333 -13.333 -19 -16s-10.167 -7.66699 -19.5 -15s-16.833 -12.5 -22.5 -15.5l-23 -12c-9.66699 -5 -18.5 -8.66699 -26.5 -11s-17.333 -4.5 -28 -6.5s-21 -3 -31 -3
c-42 0 -72.333 10.333 -91 31s-28 52 -28 94c0 20 1.33301 39 4 57l33 242c1.33301 8.66699 1.33301 14.167 0 16.5s-5.66602 3.83301 -12.999 4.5l-39 7l12 81h195l7 -7l-44 -318c-2.66699 -22.667 -4 -37 -4 -43c0 -12.667 2.33301 -21.834 7 -27.501s13 -8.5 25 -8.5
c30.667 0 72.667 23.667 126 71l31 226c1.33301 8 1.33301 13 0 15s-5.66602 3.66699 -12.999 5l-32 5l13 82h189l7 -8l-59 -411c-2 -12.667 1.66699 -19.667 11 -21l50 -7z" />
    <glyph glyph-name="v" unicode="v" horiz-adv-x="592" 
d="M363 0h-173.001l-90 421c-1.33301 6 -3.16602 10 -5.49902 12s-6.5 3.66699 -12.5 5l-40 9l10 74h191l9 -9l17 -114l44 -252h3l144 293l-65 9l11 73h196l12 -31z" />
    <glyph glyph-name="w" unicode="w" horiz-adv-x="856" 
d="M669 0h-166l-41 335h-3l-118 -335h-179l-63 421c-1.33301 9.33301 -7 15 -17 17l-41 9l13 74h185l8 -9l7 -91l31 -270h3l132 361h157l44 -365h3l123 294l-55 6l12 74h166l11 -29z" />
    <glyph glyph-name="x" unicode="x" horiz-adv-x="590" 
d="M562 0l-172 -0.000976562l-11 9l-45 83l-54 92l-91 -102l53 -9l-8 -73h-234l8 72l44 8c10 1.33301 19.333 7 28 17l147 161l-101 162c-5.33301 9.33301 -12 15 -20 17l-39 9l12 75h159l10 -8l47 -90l44 -74l87 91l-49 7l13 74h227l-10 -74l-44 -10
c-8 -1.33301 -17.333 -7.66602 -28 -18.999l-143 -144l109 -175c6.66699 -10.667 14 -16.667 22 -18l51 -8z" />
    <glyph glyph-name="y" unicode="y" horiz-adv-x="568" 
d="M181 -47l28 49.999l-112 418c-2.66699 8.66699 -8.66699 14.334 -18 17.001l-39 9l12 74h176l10 -11l27 -129l45 -209h5l127 266l-61 9l11 74h185l14 -31l-290 -571c-26.667 -50 -55.167 -86.167 -85.5 -108.5s-71.166 -33.5 -122.499 -33.5
c-32.667 0 -62.5 5.5 -89.5 16.5s-46.5 22.167 -58.5 33.5l51 85c32 -19.333 62.333 -29 91 -29c35.333 0 66.666 23.333 93.999 70z" />
    <glyph glyph-name="z" unicode="z" horiz-adv-x="514" 
d="M470 0h-449l12 84l304 343h-137c-6.66699 0 -11.667 -4 -15 -12l-19 -57l-101 -4l23 167h434l-12 -86l-299 -342h144c7.33301 0 12.333 4.33301 15 13l22 69l103 4z" />
    <glyph glyph-name="braceleft" unicode="{" horiz-adv-x="330" 
d="M281 -69l-21.001 -79.9941c-73.333 1.33301 -124.666 10.666 -153.999 27.999s-44 48 -44 92c0 24.667 7.16699 61.667 21.5 111s21.5 84 21.5 104c0 23.333 -4.66699 39.333 -14 48s-25 13.667 -47 15l12 79c22.667 1.33301 40 6.16602 52 14.499
s20.667 23.166 26 44.499c10.667 43.333 13.667 105.333 9 186c-2.66699 58 14 98.333 50 121s95.333 33.667 178 33l6 -80c-34.667 -4.66699 -56.667 -11.834 -66 -21.501s-14.333 -31.834 -15 -66.501c-0.666992 -20.667 -0.833984 -45.834 -0.500977 -75.501
s0.5 -47.167 0.5 -52.5c-2 -42 -9.66699 -72.833 -23 -92.5s-33.666 -36.5 -60.999 -50.5c33.333 -18.667 50 -48 50 -88c0 -25.333 -7.16699 -62.333 -21.5 -111s-21.5 -83 -21.5 -103c0 -16.667 4.33301 -28.5 13 -35.5s25 -13.5 49 -19.5z" />
    <glyph glyph-name="bar" unicode="|" horiz-adv-x="285" 
d="M172 -143h-137l122 867h137z" />
    <glyph glyph-name="braceright" unicode="}" horiz-adv-x="340" 
d="M101 647l21.001 79.9941c73.333 -1.33301 124.666 -10.666 153.999 -27.999s44 -48 44 -92c0 -24.667 -7.16699 -61.667 -21.5 -111s-21.5 -84 -21.5 -104c0 -23.333 4.66699 -39.333 14 -48s25 -13.667 47 -15l-12 -79c-22.667 -1.33301 -40 -6.16602 -52 -14.499
s-20.667 -23.166 -26 -44.499c-10.667 -43.333 -13.667 -105.333 -9 -186c2.66699 -58 -14 -98.333 -50 -121s-95.333 -33.667 -178 -33l-6 80c34.667 4.66699 56.667 11.834 66 21.501s14.333 31.834 15 66.501c0.666992 20.667 0.833984 45.834 0.500977 75.501
s-0.5 47.167 -0.5 52.5c2 42 9.66699 72.833 23 92.5s33.666 36.5 60.999 50.5c-33.333 18.667 -50 48 -50 88c0 25.333 7.16699 62.333 21.5 111s21.5 83 21.5 103c0 16.667 -4.33301 28.5 -13 35.5s-25 13.5 -49 19.5z" />
    <glyph glyph-name="asciitilde" unicode="~" horiz-adv-x="524" 
d="M473 460l73.999 -28.998c-15.333 -48.667 -33.5 -84.334 -54.5 -107.001s-47.5 -34 -79.5 -34c-25.333 0 -62.666 7.66699 -111.999 23s-83.333 23 -102 23c-16.667 0 -30.5 -3.33301 -41.5 -10s-23.167 -19.334 -36.5 -38.001l-68 36
c15.333 39.333 35.833 71.333 61.5 96s54.167 37 85.5 37c26.667 0 63.334 -7.66699 110.001 -23s80 -23 100 -23c16 0 28.167 3.5 36.5 10.5s17.166 19.833 26.499 38.5z" />
    <glyph glyph-name="uni00A0" unicode="&#xa0;" horiz-adv-x="202" 
 />
    <glyph glyph-name="exclamdown" unicode="&#xa1;" horiz-adv-x="283" 
d="M116 327h127l-33 -355l-25 -177h-161l25 177zM110 440c0 60.667 32.333 91 97 91c51.333 0 77 -21.333 77 -64c0 -61.333 -33 -92 -99 -92c-50 0 -75 21.667 -75 65z" />
    <glyph glyph-name="cent" unicode="&#xa2;" horiz-adv-x="519" 
d="M485 224l-20.001 -150c-37.333 -20.667 -83 -33.667 -137 -39l-13 -102h-124l14 106c-99.333 20.667 -149 87 -149 199c0 81.333 19 147.5 57 198.5s91.333 82.833 160 95.5l16 105h125l-16 -103c50 -6 91.667 -18.333 125 -37l-22 -150l-100 5l-2 63
c0 6.66699 -3 11 -9 13c-15.333 4.66699 -32.333 7 -51 7c-38.667 0 -69 -16 -91 -48s-33 -79.667 -33 -143c0 -37.333 6.83301 -64.666 20.5 -81.999s34.834 -26 63.501 -26c16 0 32.667 2 50 6c6.66699 1.33301 11 5.66602 13 12.999l21 65z" />
    <glyph glyph-name="sterling" unicode="&#xa3;" horiz-adv-x="552" 
d="M507 0l-472.999 0.000976562l-4 90c32.667 18 55.5 37.833 68.5 59.5s22.833 57.167 29.5 106.5l3 23h-72l14 110h69l8 53c10 67.333 32.833 119.666 68.5 156.999s93.167 56 172.5 56c78.667 0 140.667 -21.667 186 -65l-73 -86c-32.667 27.333 -69.334 41 -110.001 41
c-32 0 -55 -8.66699 -69 -26s-23.333 -43 -28 -77l-8 -53h143l-15 -110h-140c-8.66699 -79.333 -37.667 -140 -87 -182h199c7.33301 0 12 4 14 12l25 79h104z" />
    <glyph glyph-name="currency" unicode="&#xa4;" horiz-adv-x="570" 
d="M577 78l-82.999 -81l-87 86c-34.667 -20 -73.667 -30 -117 -30c-48.667 0 -89.334 9.66699 -122.001 29l-38 -38l-47 -47l-80 80l88 89c-16 31.333 -24 69 -24 113c0 39.333 8.66699 74.333 26 105l-40.5 41l-46.5 47l82 83l82 -83c34.667 22.667 76.667 34 126 34
c47.333 0 88.333 -10.667 123 -32l80 80l79 -81l-84 -84c16 -36.667 24 -72 24 -106c0 -40.667 -9.66699 -79.667 -29 -117zM294.001 161c31.333 0 55.832 11.167 73.499 33.5s26.5 50.5 26.5 84.5c0 36.667 -8.66699 65.167 -26 85.5s-42.666 30.5 -75.999 30.5
c-32.667 0 -57.5 -10.667 -74.5 -32s-25.5 -49.333 -25.5 -84s8.5 -63 25.5 -85s42.5 -33 76.5 -33z" />
    <glyph glyph-name="yen" unicode="&#xa5;" horiz-adv-x="601" 
d="M509 215l-127.999 -0.000976562l-15 -111c-1.33301 -7.33301 -1.33301 -12.166 0 -14.499s5.66602 -3.83301 12.999 -4.5l103 -8l-11 -77h-385l10 77l98 8c5.33301 0 9.5 0.833008 12.5 2.5s5 3.66699 6 6s1.83301 6.16602 2.5 11.499l14 110h-118l14 117h93l-107 201
c-5.33301 8.66699 -12.333 14.334 -21 17.001l-40 11l11 75h284l-10 -75l-69 -9l75 -152h5l119 152l-53 9l10 75h239l-11 -75l-43 -9c-8 -2 -18.667 -11.667 -32 -29l-152 -191h101z" />
    <glyph glyph-name="brokenbar" unicode="&#xa6;" horiz-adv-x="285" 
d="M172 -143h-137l55 388h137zM247 389h-137l47 335h137z" />
    <glyph glyph-name="section" unicode="&#xa7;" horiz-adv-x="569" 
d="M149 25l2.00098 -56.999c0 -10.667 5.33301 -17.334 16 -20.001c15.333 -4.66699 38 -7 68 -7c59.333 0 89 20 89 60c0 18.667 -8.33301 32.334 -25 41.001s-42 17.334 -76 26.001c-6 1.33301 -10.333 2.33301 -13 3c-20.667 5.33301 -37.834 10.666 -51.501 15.999
s-28.167 13 -43.5 23s-26.833 23.167 -34.5 39.5s-11.5 35.5 -11.5 57.5c0 58.667 31 110 93 154c-28.667 22.667 -43 55.667 -43 99c0 57.333 22.167 100.5 66.5 129.5s100.5 43.5 168.5 43.5c76 0 138.667 -10 188 -30l-21 -145l-103 6l-2 54
c0 9.33301 -4.66699 15.333 -14 18c-14.667 4 -34.334 6 -59.001 6c-26.667 0 -47.5 -5.5 -62.5 -16.5s-22.5 -24.833 -22.5 -41.5c0 -20.667 18.333 -37.334 55 -50.001c6.66699 -2 23.334 -6.66699 50.001 -14c22 -6 40 -11.667 54 -17s29.333 -13.5 46 -24.5
s29.167 -25 37.5 -42s12.5 -37.5 12.5 -61.5c0 -59.333 -29.333 -108.666 -88 -147.999c26.667 -28 40 -58.333 40 -91c0 -42 -12.333 -76.833 -37 -104.5s-54.667 -46.834 -90 -57.501s-75.333 -16 -120 -16c-40.667 0 -80.5 4.33301 -119.5 13s-63.167 16.667 -72.5 24
l19 136zM259.001 195.001l78 -24c30 20.667 45 44 45 70c0 25.333 -22.333 44.333 -67 57l-73 20c-31.333 -20 -47 -42.667 -47 -68c0 -14 5.16699 -25 15.5 -33s26.5 -15.333 48.5 -22z" />
    <glyph glyph-name="dieresis" unicode="&#xa8;" 
d="M311 674c0 -23.333 -7.66895 -42.167 -23.002 -56.5s-34.666 -21.5 -57.999 -21.5c-19.333 0 -34.666 5.66699 -45.999 17s-17 26.333 -17 45c0 23.333 7.83301 42 23.5 56s35.167 21 58.5 21c20 0 35.333 -5.5 46 -16.5s16 -25.833 16 -44.5zM518.998 673.999
c0 -23.333 -7.50098 -42.167 -22.501 -56.5s-34.5 -21.5 -58.5 -21.5c-19.333 0 -34.666 5.66699 -45.999 17s-17 26.333 -17 45c0 23.333 7.83301 42 23.5 56s35.167 21 58.5 21c20 0 35.333 -5.5 46 -16.5s16 -25.833 16 -44.5z" />
    <glyph glyph-name="copyright" unicode="&#xa9;" horiz-adv-x="770" 
d="M740 319c0 -100 -31 -180.834 -93 -242.501s-143 -92.5 -243 -92.5c-106.667 0 -189.167 29.833 -247.5 89.5s-87.5 136.834 -87.5 231.501c0 102 32 183.167 96 243.5s144.333 90.5 241 90.5c103.333 0 184.833 -28.833 244.5 -86.5s89.5 -135.5 89.5 -233.5z
M406 55.999c78.667 0 140.833 22.999 186.5 68.999s68.5 108.667 68.5 188c0 80.667 -23.5 143.167 -70.5 187.5s-108.5 66.5 -184.5 66.5c-75.333 0 -136.833 -23.167 -184.5 -69.5s-71.5 -110.166 -71.5 -191.499c0 -78 22.667 -139.167 68 -183.5s108 -66.5 188 -66.5z
M529.999 249.998l0.00195312 -105.999c-27.333 -16 -65.333 -24 -114 -24c-64.667 0 -112.167 17.5 -142.5 52.5s-45.5 82.5 -45.5 142.5c0 58.667 16.333 105.667 49 141s80 53 142 53c39.333 0 76.666 -6.66699 111.999 -20v-111h-54l-9 49
c-0.666992 6 -3.33398 9.66699 -8.00098 11c-12.667 4.66699 -28 7 -46 7c-64 0 -96 -44 -96 -132c0 -86.667 34 -130 102 -130c16 0 28.333 1.33301 37 4c5.33301 1.33301 9 5.66602 11 12.999l13 50h49z" />
    <glyph glyph-name="ordfeminine" unicode="&#xaa;" horiz-adv-x="451" 
d="M442 281l-142.999 0.000976562l7 50l-4 2c-22.667 -20.667 -43.167 -35.834 -61.5 -45.501s-38.833 -14.5 -61.5 -14.5c-70 0 -105 43.333 -105 130c0 36 5.16699 70.333 15.5 103s29.166 61.5 56.499 86.5s61 37.5 101 37.5c36.667 0 68 -12.333 94 -37l13 30h99
c-10 -48 -15.667 -77.333 -17 -88l-27 -183c-1.33301 -4.66699 -1.33301 -7.66699 0 -9s4.33301 -2.33301 9 -3l32 -5zM306.001 410.001l18.001 116c-17.333 13.333 -34.666 20 -51.999 20c-18.667 0 -34.334 -8.5 -47.001 -25.5s-20.834 -34.5 -24.501 -52.5
s-5.5 -35.667 -5.5 -53c0 -32.667 10.667 -49 32 -49c22 0 48.333 14.667 79 44z" />
    <glyph glyph-name="guillemotleft" unicode="&#xab;" horiz-adv-x="466" 
d="M422 103h-121.001l-64 154l110 151h123l-100 -140c-5.33301 -6 -6.66602 -12.333 -3.99902 -19zM233.999 103h-121.001l-64 154l110 151h123l-100 -140c-5.33301 -6 -6.66602 -12.333 -3.99902 -19z" />
    <glyph glyph-name="logicalnot" unicode="&#xac;" horiz-adv-x="570" 
d="M482 172h-111l14 94h-276l16 117h387z" />
    <glyph glyph-name="registered" unicode="&#xae;" horiz-adv-x="453" 
d="M459 480c0 -55.333 -17.333 -100.166 -52 -134.499s-79.667 -51.5 -135 -51.5c-58.667 0 -104.167 16.667 -136.5 50s-48.5 76.333 -48.5 129c0 56 17.833 101.167 53.5 135.5s79.834 51.5 132.501 51.5c57.333 0 102.666 -16.333 135.999 -49s50 -76.334 50 -131.001z
M411 477c0 44 -12.833 77.998 -38.5 101.998s-58.834 36 -99.501 36c-39.333 0 -72 -12.667 -98 -38s-39 -59.666 -39 -102.999c0 -42 12.333 -75 37 -99s58 -36 100 -36c42.667 0 76.334 12.333 101.001 37s37 58.334 37 101.001zM369 383.998h-60.002l-23 57
c-2.66699 6.66699 -5.16699 11.167 -7.5 13.5s-6.16602 3.5 -11.499 3.5h-11v-40c0 -4 1.66699 -6.33301 5 -7l20 -2v-25h-90v25l14 3c3.33301 0.666992 5 3 5 7v122c0 3.33301 -1.66699 5.33301 -5 6l-14 2v26h88c46.667 0 70 -18 70 -54c0 -26 -11.667 -43 -35 -51
c6.66699 -2 12.334 -8.33301 17.001 -19l15 -33c1.33301 -3.33301 4 -5.33301 8 -6l15 -3v-25zM255.998 490.998h13c22 0 33 9 33 27c0 15.333 -9.66699 23 -29 23h-17v-50z" />
    <glyph glyph-name="macron" unicode="&#xaf;" 
d="M495 599h-317l14 100h317z" />
    <glyph glyph-name="degree" unicode="&#xb0;" horiz-adv-x="286" 
d="M194 617c15.333 0 28.334 5.66699 39.001 17s16 25 16 41c0 12.667 -3.66699 22.834 -11 30.501s-17.333 11.5 -30 11.5c-14.667 0 -27.334 -5.5 -38.001 -16.5s-16 -24.833 -16 -41.5c0 -12.667 3.5 -22.834 10.5 -30.501s16.833 -11.5 29.5 -11.5zM317.001 684
c0 -38 -12.5 -69.3311 -37.5 -93.998s-56.5 -37 -94.5 -37c-30 0 -54.333 9.16699 -73 27.5s-28 42.166 -28 71.499c0 39.333 12.833 70.666 38.5 93.999s57.167 35 94.5 35c30 0 54.167 -8.66699 72.5 -26s27.5 -41 27.5 -71z" />
    <glyph glyph-name="plusminus" unicode="&#xb1;" horiz-adv-x="570" 
d="M463 0h-387l16 116h387zM500 265h-134l-18 -129h-120l18 129h-133l16 116h133l20 140h120l-20 -140h134z" />
    <glyph glyph-name="twosuperior" unicode="&#xb2;" horiz-adv-x="386" 
d="M393 350h-349.003l11 76l153 147c32 31.333 54.5 55.5 67.5 72.5s19.5 32.833 19.5 47.5c0 18 -11 27 -33 27c-14.667 0 -25.667 -4.16699 -33 -12.5s-12.666 -22.5 -15.999 -42.5l-124 11c8 50.667 28.833 85.167 62.5 103.5s76.834 27.5 129.501 27.5
c48 0 84.5 -9.5 109.5 -28.5s37.5 -45.5 37.5 -79.5c0 -17.333 -4.16699 -34.5 -12.5 -51.5s-16.666 -30.333 -24.999 -40s-22.166 -24.5 -41.499 -44.5l-137 -134h85c3.33301 0 6.66602 3 9.99902 9l13 44h93z" />
    <glyph glyph-name="threesuperior" unicode="&#xb3;" horiz-adv-x="397" 
d="M341 587l-1 -2.99902c22 -4.66699 39.5 -14.667 52.5 -30s19.5 -35 19.5 -59c0 -50 -18.5 -88 -55.5 -114s-84.167 -39 -141.5 -39c-36.667 0 -70.5 6 -101.5 18s-54.833 28 -71.5 48l74 71c27.333 -28.667 60.333 -43 99 -43c20 0 36 5 48 15s18 23.667 18 41
c0 31.333 -16.667 47 -50 47c-14 0 -30.667 -1.66699 -50 -5l12 82l32 3c51.333 5.33301 77 27.666 77 66.999c0 21.333 -11 32 -33 32c-16 0 -27.167 -3.66699 -33.5 -11s-10.833 -21.333 -13.5 -42l-127 10c10 88 72 132 186 132c100.667 0 151 -34 151 -102
c0 -32 -9.16699 -58 -27.5 -78s-39.5 -33.333 -63.5 -40z" />
    <glyph glyph-name="acute" unicode="&#xb4;" 
d="M458 697l-186 -136l-55 58l164 163z" />
    <glyph glyph-name="mu" unicode="&#xb5;" horiz-adv-x="645" 
d="M595 0h-193l9 60l-4 2c-56.667 -44 -106.334 -66 -149.001 -66c-14.667 0 -28 2 -40 6l-14 -178h-156l98 697h151l-47 -331c-2 -16.667 -3 -31 -3 -43s4 -21.5 12 -28.5s20.667 -10.5 38 -10.5c34.667 0 69.334 14.667 104.001 44l52 369h151l-59 -420
c-2 -11.333 1.66699 -17.333 11 -18l49 -7z" />
    <glyph glyph-name="paragraph" unicode="&#xb6;" horiz-adv-x="657" 
d="M412 38l74 514.999h-64l-71 -497h-40c-73.333 0 -131 22.333 -173 67s-63 106 -63 184c0 104.667 31.167 187.167 93.5 247.5s148.5 90.5 258.5 90.5h273l-11 -76l-68 -8c-7.33301 -0.666992 -12 -2.16699 -14 -4.5s-3.66699 -7.16602 -5 -14.499l-73 -518
c-18.667 -134.667 -95 -202 -229 -202c-84.667 0 -154.667 18.667 -210 56l46 88c13.333 -8.66699 34.5 -18 63.5 -28s58.833 -15 89.5 -15c70.667 0 111.667 38.333 123 115z" />
    <glyph glyph-name="periodcentered" unicode="&#xb7;" horiz-adv-x="238" 
d="M243 334c0 -58.667 -32.333 -88 -97 -88c-50.667 0 -76 22.333 -76 67c0 59.333 32.667 89 98 89c50 0 75 -22.667 75 -68z" />
    <glyph glyph-name="cedilla" unicode="&#xb8;" 
d="M118 -248l16.001 69c8 -2.66699 19.667 -4 35 -4c18 0 33.333 3.83301 46 11.5s19 19.834 19 36.501c0 25.333 -20.333 38.666 -61 39.999l34 125l70 -8l-18 -67c46.667 -13.333 70 -42.333 70 -87c0 -38.667 -14.667 -69 -44 -91s-64.333 -33 -105 -33
c-30.667 0 -51.334 2.66699 -62.001 8z" />
    <glyph glyph-name="onesuperior" unicode="&#xb9;" horiz-adv-x="310" 
d="M320 350l-261 -0.000976562l9 63l52 4c8 0.666992 12.667 5 14 13l40 277c1.33301 8 -0.666992 12.333 -6 13l-55 13l11 64h199l-55 -367c-1.33301 -5.33301 -1.5 -8.66602 -0.5 -9.99902s4.16699 -2.33301 9.5 -3l52 -5z" />
    <glyph glyph-name="ordmasculine" unicode="&#xba;" horiz-adv-x="415" 
d="M228 273c-106 0 -158.999 47.666 -158.999 142.999c0 6 0.666992 16.333 2 31c6 56 27.667 100.5 65 133.5s86.666 49.5 147.999 49.5c54 0 93.5 -13.333 118.5 -40s37.5 -61 37.5 -103c0 -14 -0.333008 -24.333 -1 -31c-7.33301 -57.333 -28.5 -102.166 -63.5 -134.499
s-84.167 -48.5 -147.5 -48.5zM240.001 351.999c20.667 0 37.167 7.66699 49.5 23s21.166 41.666 26.499 78.999c2 13.333 3 25 3 35c0 42 -16.333 63 -49 63c-43.333 0 -69.666 -33 -78.999 -99c-1.33301 -9.33301 -2 -21.666 -2 -36.999c0 -42.667 17 -64 51 -64z" />
    <glyph glyph-name="guillemotright" unicode="&#xbb;" horiz-adv-x="466" 
d="M343 103h-122l98 146c4 6.66699 4.66699 13 2 19l-60 140h122l67 -152zM155 103h-122l98 146c4 6.66699 4.66699 13 2 19l-60 140h122l67 -152z" />
    <glyph glyph-name="onequarter" unicode="&#xbc;" horiz-adv-x="980" 
d="M341 281l-261 -0.000976562l9 63l52 4c8 0.666992 12.667 5 14 13l40 277c1.33301 8 -0.666992 12.333 -6 13l-55 13l11 64h199l-55 -367c-1.33301 -5.33301 -1.5 -8.66602 -0.5 -9.99902s4.16699 -2.33301 9.5 -3l52 -5zM344 -17.001h-139l462 741h138z
M849 -0.000976562h-121l12 86h-201l12 82l223 278h140l-40 -274h54l-13 -85h-54zM752 171.999l22 150h-3l-118 -150h99z" />
    <glyph glyph-name="onehalf" unicode="&#xbd;" horiz-adv-x="980" 
d="M339 281l-261 -0.000976562l9 63l52 4c8 0.666992 12.667 5 14 13l40 277c1.33301 8 -0.666992 12.333 -6 13l-55 13l11 64h199l-55 -367c-1.33301 -5.33301 -1.5 -8.66602 -0.5 -9.99902s4.16699 -2.33301 9.5 -3l52 -5zM326 -17.001h-139l462 741h138z
M910 -0.000976562h-349.004l11 76l153 147c32 31.333 54.5 55.5 67.5 72.5s19.5 32.833 19.5 47.5c0 18 -11 27 -33 27c-14.667 0 -25.667 -4.16699 -33 -12.5s-12.666 -22.5 -15.999 -42.5l-124 11c8 50.667 28.833 85.167 62.5 103.5s76.834 27.5 129.501 27.5
c48 0 84.5 -9.5 109.5 -28.5s37.5 -45.5 37.5 -79.5c0 -17.333 -4.16699 -34.5 -12.5 -51.5s-16.666 -30.333 -24.999 -40s-22.166 -24.5 -41.499 -44.5l-137 -134h85c4 0 7.33301 3 10 9l13 44h93z" />
    <glyph glyph-name="threequarters" unicode="&#xbe;" horiz-adv-x="980" 
d="M359 518l-1 -2.99902c22 -4.66699 39.5 -14.667 52.5 -30s19.5 -35 19.5 -59c0 -50 -18.5 -88 -55.5 -114s-84.167 -39 -141.5 -39c-36.667 0 -70.5 6 -101.5 18s-54.833 28 -71.5 48l74 71c27.333 -28.667 60.333 -43 99 -43c20 0 36 5 48 15s18 23.667 18 41
c0 31.333 -16.667 47 -50 47c-14 0 -30.667 -1.66699 -50 -5l12 82l32 3c51.333 5.33301 77 27.666 77 66.999c0 21.333 -11 32 -33 32c-16 0 -27.167 -3.66699 -33.5 -11s-10.833 -21.333 -13.5 -42l-127 10c10 88 72 132 186 132c100.667 0 151 -34 151 -102
c0 -32 -9.16699 -58 -27.5 -78s-39.5 -33.333 -63.5 -40zM371 -16.999h-139l462 741h138zM859 0.000976562h-121l12 86h-201l12 82l223 278h140l-40 -274h54l-13 -85h-54zM762 172.001l22 150h-3l-118 -150h99z" />
    <glyph glyph-name="questiondown" unicode="&#xbf;" horiz-adv-x="536" 
d="M292 327l151 -0.00195312l-25 -186c-26.667 -2 -52 -6 -76 -12s-48.167 -14.833 -72.5 -26.5s-43.666 -27.667 -57.999 -48s-21.5 -44.166 -21.5 -71.499c0 -21.333 6.83301 -37.5 20.5 -48.5s32.167 -16.5 55.5 -16.5c28 0 50.667 2.33301 68 7
c10 2.66699 16.333 9.33398 19 20.001l15 60l124 9l-24 -173c-84.667 -30.667 -159.334 -46 -224.001 -46c-144.667 0 -217 61.333 -217 184c0 66.667 21.333 122.167 64 166.5s105.667 72.833 189 85.5zM299 439.998c0 60.667 32.667 91 98 91c50.667 0 76 -21.333 76 -64
c0 -61.333 -32.667 -92 -98 -92c-50.667 0 -76 21.667 -76 65z" />
    <glyph glyph-name="Agrave" unicode="&#xc0;" horiz-adv-x="744" 
d="M726 0h-306.999l10 73l82 9l-19 109h-246l-49 -109l76 -9l-11 -73h-274l11 73l45 11c13.333 3.33301 22.333 10 27 20l299 620h174l128 -623c1.33301 -8 8.66602 -13.667 21.999 -17l43 -11zM476.001 299l-51 273h-7l-127 -273h185zM546.001 766l-210 90l65 99l190 -122z
" />
    <glyph glyph-name="Aacute" unicode="&#xc1;" horiz-adv-x="744" 
d="M726 0h-306.999l10 73l82 9l-19 109h-246l-49 -109l76 -9l-11 -73h-274l11 73l45 11c13.333 3.33301 22.333 10 27 20l299 620h174l128 -623c1.33301 -8 8.66602 -13.667 21.999 -17l43 -11zM476.001 299l-51 273h-7l-127 -273h185zM597.001 852l-225 -85l-32 71l212 117
z" />
    <glyph glyph-name="Acircumflex" unicode="&#xc2;" horiz-adv-x="744" 
d="M726 0h-306.999l10 73l82 9l-19 109h-246l-49 -109l76 -9l-11 -73h-274l11 73l45 11c13.333 3.33301 22.333 10 27 20l299 620h174l128 -623c1.33301 -8 8.66602 -13.667 21.999 -17l43 -11zM476.001 299l-51 273h-7l-127 -273h185zM636.001 823l-61 -56l-107 81
l-129 -81l-49 56l137 112h104z" />
    <glyph glyph-name="Atilde" unicode="&#xc3;" horiz-adv-x="744" 
d="M726 0h-306.999l10 73l82 9l-19 109h-246l-49 -109l76 -9l-11 -73h-274l11 73l45 11c13.333 3.33301 22.333 10 27 20l299 620h174l128 -623c1.33301 -8 8.66602 -13.667 21.999 -17l43 -11zM476.001 299l-51 273h-7l-127 -273h185zM648.001 882l-27.999 -41
c-15.333 -22 -28.666 -37.5 -39.999 -46.5s-24.333 -13.5 -39 -13.5c-18 0 -44.667 4.66699 -80 14l-75 20c-6.66699 2 -12.334 0.666992 -17.001 -4l-35 -32l-58 39l36 52c20.667 31.333 45.667 47 75 47c21.333 0 53.666 -5.66699 96.999 -17
c34.667 -9.33301 55 -14 61 -14c6.66699 0 11.667 2 15 6l27 29z" />
    <glyph glyph-name="Adieresis" unicode="&#xc4;" horiz-adv-x="744" 
d="M726 0h-306.999l10 73l82 9l-19 109h-246l-49 -109l76 -9l-11 -73h-274l11 73l45 11c13.333 3.33301 22.333 10 27 20l299 620h174l128 -623c1.33301 -8 8.66602 -13.667 21.999 -17l43 -11zM476.001 299l-51 273h-7l-127 -273h185zM436.001 859
c0 -23.333 -7.66895 -42.167 -23.002 -56.5s-34.666 -21.5 -57.999 -21.5c-19.333 0 -34.666 5.66699 -45.999 17s-17 26.333 -17 45c0 23.333 7.83301 42 23.5 56s35.167 21 58.5 21c20 0 35.333 -5.5 46 -16.5s16 -25.833 16 -44.5zM643.999 858.999
c0 -23.333 -7.50098 -42.167 -22.501 -56.5s-34.5 -21.5 -58.5 -21.5c-19.333 0 -34.666 5.66699 -45.999 17s-17 26.333 -17 45c0 23.333 7.83301 42 23.5 56s35.167 21 58.5 21c20 0 35.333 -5.5 46 -16.5s16 -25.833 16 -44.5z" />
    <glyph glyph-name="Aring" unicode="&#xc5;" horiz-adv-x="744" 
d="M476 891c26 0 48.168 -8.00098 66.501 -24.001s27.5 -38 27.5 -66c0 -29.333 -8.66699 -55.333 -26 -78l128 -622c1.33301 -8 8.66602 -13.667 21.999 -17l43 -11l-11 -73h-307l10 73l82 9l-19 109h-246l-49 -109l76 -9l-11 -73h-274l11 73l45 11
c13.333 3.33301 22.333 10 27 20l298 619c-9.33301 14.667 -14 32.334 -14 53.001c0 34 11.167 61.667 33.5 83s51.5 32 87.5 32zM476.001 298.999l-51 273h-7l-127 -273h185zM459.001 746.999c28.667 0 43 16 43 48c0 21.333 -11.333 32 -34 32
c-12.667 0 -23.167 -4.5 -31.5 -13.5s-12.5 -20.5 -12.5 -34.5c0 -21.333 11.667 -32 35 -32z" />
    <glyph glyph-name="AE" unicode="&#xc6;" horiz-adv-x="1000" 
d="M940 0l-544 0.000976562l10 73l66 8c6 0.666992 10 2 12 4s3.33301 6.33301 4 13l29 204h-192l-134 -220l76 -9l-10 -73h-269l11 73l43 11c14 3.33301 23.667 9.66602 29 18.999l332 536l-73 10l10 75h680l-29 -202l-107 5l-3 76c0 8.66699 -5.33301 13 -16 13h-157
l-28 -203h233l-16 -111h-232l-28 -195h179c9.33301 0 15.333 3.66699 18 11l28 88h107zM533 413.001l28 203h-49l-126 -203h147z" />
    <glyph glyph-name="Ccedilla" unicode="&#xc7;" horiz-adv-x="670" 
d="M239 -248l16 69c8 -2.66699 19.667 -4 35 -4c18 0 33.333 3.83301 46 11.5s19 19.834 19 36.501c0 25.333 -20.333 38.666 -61 39.999l23 85c-87.333 7.33301 -152.166 38.166 -194.499 92.499s-63.5 126.833 -63.5 217.5c0 131.333 36.167 237 108.5 317
s175.5 120 309.5 120c41.333 0 82.333 -5.16699 123 -15.5s72.667 -24.166 96 -41.499l-26 -196l-107 9l-3 93c0 12 -4.33301 19.333 -13 22c-22 8.66699 -50 13 -84 13c-74.667 0 -134.167 -26.833 -178.5 -80.5s-66.5 -130.167 -66.5 -229.5
c0 -68.667 14.167 -120.667 42.5 -156s69.5 -53 123.5 -53c46.667 0 81 4.33301 103 13c7.33301 4 12.333 10.333 15 19l29 95h105l-26 -186c-54 -31.333 -127.667 -49.333 -221 -54l-9 -34c46.667 -13.333 70 -42.333 70 -87c0 -38.667 -14.667 -69 -44 -91
s-64.333 -33 -105 -33c-30.667 0 -51.334 2.66699 -62.001 8z" />
    <glyph glyph-name="Egrave" unicode="&#xc8;" horiz-adv-x="620" 
d="M561 0l-542.997 0.000976562l10 73l63 7c7.33301 1.33301 12.166 3.16602 14.499 5.49902s3.83301 7.16602 4.5 14.499l73 523c1.33301 7.33301 1.16602 12.333 -0.500977 15s-5.83398 4.33398 -12.501 5.00098l-62 7l10 74h521l-28 -202l-105 5l-3 76
c-0.666992 8.66699 -6 13 -16 13h-155l-27 -197h230l-16 -111h-230l-27 -201h177c9.33301 0 15 3.66699 17 11l28 88h105zM486.003 766.001l-210 90l65 99l190 -122z" />
    <glyph glyph-name="Eacute" unicode="&#xc9;" horiz-adv-x="620" 
d="M561 0l-542.997 0.000976562l10 73l63 7c7.33301 1.33301 12.166 3.16602 14.499 5.49902s3.83301 7.16602 4.5 14.499l73 523c1.33301 7.33301 1.16602 12.333 -0.500977 15s-5.83398 4.33398 -12.501 5.00098l-62 7l10 74h521l-28 -202l-105 5l-3 76
c-0.666992 8.66699 -6 13 -16 13h-155l-27 -197h230l-16 -111h-230l-27 -201h177c9.33301 0 15 3.66699 17 11l28 88h105zM537.003 852.001l-225 -85l-32 71l212 117z" />
    <glyph glyph-name="Ecircumflex" unicode="&#xca;" horiz-adv-x="620" 
d="M561 0l-542.997 0.000976562l10 73l63 7c7.33301 1.33301 12.166 3.16602 14.499 5.49902s3.83301 7.16602 4.5 14.499l73 523c1.33301 7.33301 1.16602 12.333 -0.500977 15s-5.83398 4.33398 -12.501 5.00098l-62 7l10 74h521l-28 -202l-105 5l-3 76
c-0.666992 8.66699 -6 13 -16 13h-155l-27 -197h230l-16 -111h-230l-27 -201h177c9.33301 0 15 3.66699 17 11l28 88h105zM576.003 823.001l-61 -56l-107 81l-129 -81l-49 56l137 112h104z" />
    <glyph glyph-name="Edieresis" unicode="&#xcb;" horiz-adv-x="620" 
d="M561 0l-542.997 0.000976562l10 73l63 7c7.33301 1.33301 12.166 3.16602 14.499 5.49902s3.83301 7.16602 4.5 14.499l73 523c1.33301 7.33301 1.16602 12.333 -0.500977 15s-5.83398 4.33398 -12.501 5.00098l-62 7l10 74h521l-28 -202l-105 5l-3 76
c-0.666992 8.66699 -6 13 -16 13h-155l-27 -197h230l-16 -111h-230l-27 -201h177c9.33301 0 15 3.66699 17 11l28 88h105zM376.003 859.001c0 -23.333 -7.66895 -42.167 -23.002 -56.5s-34.666 -21.5 -57.999 -21.5c-19.333 0 -34.666 5.66699 -45.999 17s-17 26.333 -17 45
c0 23.333 7.83301 42 23.5 56s35.167 21 58.5 21c20 0 35.333 -5.5 46 -16.5s16 -25.833 16 -44.5zM584.001 859c0 -23.333 -7.50098 -42.167 -22.501 -56.5s-34.5 -21.5 -58.5 -21.5c-19.333 0 -34.666 5.66699 -45.999 17s-17 26.333 -17 45c0 23.333 7.83301 42 23.5 56
s35.167 21 58.5 21c20 0 35.333 -5.5 46 -16.5s16 -25.833 16 -44.5z" />
    <glyph glyph-name="Igrave" unicode="&#xcc;" horiz-adv-x="382" 
d="M340 0l-329 -0.000976562l8 73l73 7c6.66699 0.666992 11 2.16699 13 4.5s3.66699 7.5 5 15.5l74 522c1.33301 7.33301 1 12.333 -1 15s-6.33301 4.33398 -13 5.00098l-70 7l10 75h330l-11 -75l-76 -8c-7.33301 -0.666992 -11.833 -2 -13.5 -4s-3.16699 -7 -4.5 -15
l-73 -521c-1.33301 -8 -1.33301 -13.167 0 -15.5s5.33301 -3.83301 12 -4.5l75 -8zM358 765.999l-210 90l65 99l190 -122z" />
    <glyph glyph-name="Iacute" unicode="&#xcd;" horiz-adv-x="382" 
d="M340 0l-329 -0.000976562l8 73l73 7c6.66699 0.666992 11 2.16699 13 4.5s3.66699 7.5 5 15.5l74 522c1.33301 7.33301 1 12.333 -1 15s-6.33301 4.33398 -13 5.00098l-70 7l10 75h330l-11 -75l-76 -8c-7.33301 -0.666992 -11.833 -2 -13.5 -4s-3.16699 -7 -4.5 -15
l-73 -521c-1.33301 -8 -1.33301 -13.167 0 -15.5s5.33301 -3.83301 12 -4.5l75 -8zM417 851.999l-225 -85l-32 71l212 117z" />
    <glyph glyph-name="Icircumflex" unicode="&#xce;" horiz-adv-x="382" 
d="M340 0l-329 -0.000976562l8 73l73 7c6.66699 0.666992 11 2.16699 13 4.5s3.66699 7.5 5 15.5l74 522c1.33301 7.33301 1 12.333 -1 15s-6.33301 4.33398 -13 5.00098l-70 7l10 75h330l-11 -75l-76 -8c-7.33301 -0.666992 -11.833 -2 -13.5 -4s-3.16699 -7 -4.5 -15
l-73 -521c-1.33301 -8 -1.33301 -13.167 0 -15.5s5.33301 -3.83301 12 -4.5l75 -8zM456 822.999l-61 -56l-107 81l-129 -81l-49 56l137 112h104z" />
    <glyph glyph-name="Idieresis" unicode="&#xcf;" horiz-adv-x="382" 
d="M340 0l-329 -0.000976562l8 73l73 7c6.66699 0.666992 11 2.16699 13 4.5s3.66699 7.5 5 15.5l74 522c1.33301 7.33301 1 12.333 -1 15s-6.33301 4.33398 -13 5.00098l-70 7l10 75h330l-11 -75l-76 -8c-7.33301 -0.666992 -11.833 -2 -13.5 -4s-3.16699 -7 -4.5 -15
l-73 -521c-1.33301 -8 -1.33301 -13.167 0 -15.5s5.33301 -3.83301 12 -4.5l75 -8zM256 858.999c0 -23.333 -7.66895 -42.167 -23.002 -56.5s-34.666 -21.5 -57.999 -21.5c-19.333 0 -34.666 5.66699 -45.999 17s-17 26.333 -17 45c0 23.333 7.83301 42 23.5 56
s35.167 21 58.5 21c20 0 35.333 -5.5 46 -16.5s16 -25.833 16 -44.5zM463.998 858.998c0 -23.333 -7.50098 -42.167 -22.501 -56.5s-34.5 -21.5 -58.5 -21.5c-19.333 0 -34.666 5.66699 -45.999 17s-17 26.333 -17 45c0 23.333 7.83301 42 23.5 56s35.167 21 58.5 21
c20 0 35.333 -5.5 46 -16.5s16 -25.833 16 -44.5z" />
    <glyph glyph-name="Eth" unicode="&#xd0;" horiz-adv-x="745" 
d="M326 0h-302l11 75l63 7c6.66699 0.666992 11 2.16699 13 4.5s3.66699 7.16602 5 14.499l29 209h-80l15 107h80l29 206c2 12 -2.33301 18.667 -13 20l-62 7l10 74h318c104.667 0 182.167 -25.667 232.5 -77s75.5 -123.666 75.5 -216.999
c0 -128.667 -35.667 -232.5 -107 -311.5s-177 -118.5 -317 -118.5zM268 107h56c86.667 0 153.5 30 200.5 90s70.5 136.333 70.5 229c0 66.667 -16 115 -48 145s-81.333 45 -148 45h-61l-28 -199h141l-14 -107h-141z" />
    <glyph glyph-name="Ntilde" unicode="&#xd1;" horiz-adv-x="812" 
d="M682 0h-159.997l-240 525l-59 -424c-1.33301 -8 -1.16602 -13.167 0.500977 -15.5s5.83398 -3.83301 12.501 -4.5l65 -8l-9 -73h-273l9 73l63 7c7.33301 1.33301 12.166 3.16602 14.499 5.49902s3.83301 7.16602 4.5 14.499l73 523
c1.33301 8 1.16602 13.167 -0.500977 15.5s-5.83398 3.83301 -12.501 4.5l-60 7l8 74h243l236 -526l60 424c1.33301 7.33301 1.16602 12.333 -0.500977 15s-5.83398 4.33398 -12.501 5.00098l-61 7l9 75h272l-10 -75l-67 -8c-4.66699 -0.666992 -8 -1.5 -10 -2.5
s-3.5 -2.66699 -4.5 -5s-1.83301 -6.16602 -2.5 -11.499zM676.003 882l-27.999 -41c-15.333 -22 -28.666 -37.5 -39.999 -46.5s-24.333 -13.5 -39 -13.5c-18 0 -44.667 4.66699 -80 14l-75 20c-6.66699 2 -12.334 0.666992 -17.001 -4l-35 -32l-58 39l36 52
c20.667 31.333 45.667 47 75 47c21.333 0 53.666 -5.66699 96.999 -17c34.667 -9.33301 55 -14 61 -14c6.66699 0 11.667 2 15 6l27 29z" />
    <glyph glyph-name="Ograve" unicode="&#xd2;" horiz-adv-x="757" 
d="M352 -12c-100.667 0 -174.668 26.167 -222.001 78.5s-71 125.5 -71 219.5c0 132 35.5 240.167 106.5 324.5s171.833 126.5 302.5 126.5c98.667 0 171.834 -26.667 219.501 -80s71.5 -124 71.5 -212c0 -142.667 -35.833 -254.5 -107.5 -335.5s-171.5 -121.5 -299.5 -121.5
zM374.999 111c63.333 0 114.999 24.001 154.999 72.001s63 123.667 69 227c0 26 -0.666992 44.667 -2 56c-11.333 98.667 -60.333 148 -147 148c-49.333 0 -92 -15.333 -128 -46s-62 -68.334 -78 -113.001s-24 -93 -24 -145c0 -22.667 1 -40.667 3 -54
c12.667 -96.667 63.334 -145 152.001 -145zM553.998 766.001l-210 90l65 99l190 -122z" />
    <glyph glyph-name="Oacute" unicode="&#xd3;" horiz-adv-x="757" 
d="M352 -12c-100.667 0 -174.668 26.167 -222.001 78.5s-71 125.5 -71 219.5c0 132 35.5 240.167 106.5 324.5s171.833 126.5 302.5 126.5c98.667 0 171.834 -26.667 219.501 -80s71.5 -124 71.5 -212c0 -142.667 -35.833 -254.5 -107.5 -335.5s-171.5 -121.5 -299.5 -121.5
zM374.999 111c63.333 0 114.999 24.001 154.999 72.001s63 123.667 69 227c0 26 -0.666992 44.667 -2 56c-11.333 98.667 -60.333 148 -147 148c-49.333 0 -92 -15.333 -128 -46s-62 -68.334 -78 -113.001s-24 -93 -24 -145c0 -22.667 1 -40.667 3 -54
c12.667 -96.667 63.334 -145 152.001 -145zM604.998 852.001l-225 -85l-32 71l212 117z" />
    <glyph glyph-name="Ocircumflex" unicode="&#xd4;" horiz-adv-x="757" 
d="M352 -12c-100.667 0 -174.668 26.167 -222.001 78.5s-71 125.5 -71 219.5c0 132 35.5 240.167 106.5 324.5s171.833 126.5 302.5 126.5c98.667 0 171.834 -26.667 219.501 -80s71.5 -124 71.5 -212c0 -142.667 -35.833 -254.5 -107.5 -335.5s-171.5 -121.5 -299.5 -121.5
zM374.999 111c63.333 0 114.999 24.001 154.999 72.001s63 123.667 69 227c0 26 -0.666992 44.667 -2 56c-11.333 98.667 -60.333 148 -147 148c-49.333 0 -92 -15.333 -128 -46s-62 -68.334 -78 -113.001s-24 -93 -24 -145c0 -22.667 1 -40.667 3 -54
c12.667 -96.667 63.334 -145 152.001 -145zM643.998 823.001l-61 -56l-107 81l-129 -81l-49 56l137 112h104z" />
    <glyph glyph-name="Otilde" unicode="&#xd5;" horiz-adv-x="757" 
d="M352 -12c-100.667 0 -174.668 26.167 -222.001 78.5s-71 125.5 -71 219.5c0 132 35.5 240.167 106.5 324.5s171.833 126.5 302.5 126.5c98.667 0 171.834 -26.667 219.501 -80s71.5 -124 71.5 -212c0 -142.667 -35.833 -254.5 -107.5 -335.5s-171.5 -121.5 -299.5 -121.5
zM374.999 111c63.333 0 114.999 24.001 154.999 72.001s63 123.667 69 227c0 26 -0.666992 44.667 -2 56c-11.333 98.667 -60.333 148 -147 148c-49.333 0 -92 -15.333 -128 -46s-62 -68.334 -78 -113.001s-24 -93 -24 -145c0 -22.667 1 -40.667 3 -54
c12.667 -96.667 63.334 -145 152.001 -145zM655.998 882.001l-27.999 -41c-15.333 -22 -28.666 -37.5 -39.999 -46.5s-24.333 -13.5 -39 -13.5c-18 0 -44.667 4.66699 -80 14l-75 20c-6.66699 2 -12.334 0.666992 -17.001 -4l-35 -32l-58 39l36 52
c20.667 31.333 45.667 47 75 47c21.333 0 53.666 -5.66699 96.999 -17c34.667 -9.33301 55 -14 61 -14c6.66699 0 11.667 2 15 6l27 29z" />
    <glyph glyph-name="Odieresis" unicode="&#xd6;" horiz-adv-x="757" 
d="M352 -12c-100.667 0 -174.668 26.167 -222.001 78.5s-71 125.5 -71 219.5c0 132 35.5 240.167 106.5 324.5s171.833 126.5 302.5 126.5c98.667 0 171.834 -26.667 219.501 -80s71.5 -124 71.5 -212c0 -142.667 -35.833 -254.5 -107.5 -335.5s-171.5 -121.5 -299.5 -121.5
zM374.999 111c63.333 0 114.999 24.001 154.999 72.001s63 123.667 69 227c0 26 -0.666992 44.667 -2 56c-11.333 98.667 -60.333 148 -147 148c-49.333 0 -92 -15.333 -128 -46s-62 -68.334 -78 -113.001s-24 -93 -24 -145c0 -22.667 1 -40.667 3 -54
c12.667 -96.667 63.334 -145 152.001 -145zM443.998 859.001c0 -23.333 -7.66895 -42.167 -23.002 -56.5s-34.666 -21.5 -57.999 -21.5c-19.333 0 -34.666 5.66699 -45.999 17s-17 26.333 -17 45c0 23.333 7.83301 42 23.5 56s35.167 21 58.5 21c20 0 35.333 -5.5 46 -16.5
s16 -25.833 16 -44.5zM651.996 859c0 -23.333 -7.50098 -42.167 -22.501 -56.5s-34.5 -21.5 -58.5 -21.5c-19.333 0 -34.666 5.66699 -45.999 17s-17 26.333 -17 45c0 23.333 7.83301 42 23.5 56s35.167 21 58.5 21c20 0 35.333 -5.5 46 -16.5s16 -25.833 16 -44.5z" />
    <glyph glyph-name="multiply" unicode="&#xd7;" horiz-adv-x="570" 
d="M493 413l-108 -94l85 -97l-96 -81l-83 96l-111 -97l-68 83l109 95l-83 96l96 81l81 -95l110 96z" />
    <glyph glyph-name="Oslash" unicode="&#xd8;" horiz-adv-x="757" 
d="M231 -79h-136l66 118c-68 48.667 -102 131 -102 247c0 132 35.5 240.167 106.5 324.5s171.833 126.5 302.5 126.5c27.333 0 54.333 -2.66699 81 -8l35 64h137l-62 -112c66.667 -50 100 -128.667 100 -236c0 -142.667 -35.833 -254.5 -107.5 -335.5
s-171.5 -121.5 -299.5 -121.5c-25.333 0 -52 2.33301 -80 7zM223 256c4 -30.667 11.667 -56.999 23 -78.999l238 434c-10 2 -21.333 3 -34 3c-49.333 0 -92 -15.333 -128 -46s-62 -68.334 -78 -113.001s-24 -93 -24 -145c0 -22.667 1 -40.667 3 -54zM375 111.001
c63.333 0 115 24 155 72s63 123.667 69 227c0 26 -0.666992 44.667 -2 56c-2.66699 26.667 -8.66699 50 -18 70l-233 -424c6 -0.666992 15.667 -1 29 -1z" />
    <glyph glyph-name="Ugrave" unicode="&#xd9;" horiz-adv-x="774" 
d="M555 287l47.001 335.996c1.33301 7.33301 1.16602 12.333 -0.500977 15s-5.83398 4.33398 -12.501 5.00098l-61 7l10 74h290l-10 -74l-68 -8c-7.33301 -0.666992 -11.833 -2.16699 -13.5 -4.5s-2.83398 -7.16602 -3.50098 -14.499l-51 -364
c-13.333 -94 -45.166 -162.667 -95.499 -206s-120.166 -65 -209.499 -65c-86 0 -150.167 17.5 -192.5 52.5s-63.5 88.5 -63.5 160.5c0 16.667 1.66699 37.334 5 62.001l49 360c2 12.667 -2 19.334 -12 20.001l-61 7l10 74h310l-10 -74l-67 -8
c-7.33301 -0.666992 -11.833 -2 -13.5 -4s-3.16699 -7 -4.5 -15l-47 -335c-4 -26 -6 -49.333 -6 -70c0 -37.333 9 -64.5 27 -81.5s47.333 -25.5 88 -25.5c52 0 90.5 13.5 115.5 40.5s41.833 72.167 50.5 135.5zM557.001 765.996l-210 90l65 99l190 -122z" />
    <glyph glyph-name="Uacute" unicode="&#xda;" horiz-adv-x="774" 
d="M555 287l47.001 335.996c1.33301 7.33301 1.16602 12.333 -0.500977 15s-5.83398 4.33398 -12.501 5.00098l-61 7l10 74h290l-10 -74l-68 -8c-7.33301 -0.666992 -11.833 -2.16699 -13.5 -4.5s-2.83398 -7.16602 -3.50098 -14.499l-51 -364
c-13.333 -94 -45.166 -162.667 -95.499 -206s-120.166 -65 -209.499 -65c-86 0 -150.167 17.5 -192.5 52.5s-63.5 88.5 -63.5 160.5c0 16.667 1.66699 37.334 5 62.001l49 360c2 12.667 -2 19.334 -12 20.001l-61 7l10 74h310l-10 -74l-67 -8
c-7.33301 -0.666992 -11.833 -2 -13.5 -4s-3.16699 -7 -4.5 -15l-47 -335c-4 -26 -6 -49.333 -6 -70c0 -37.333 9 -64.5 27 -81.5s47.333 -25.5 88 -25.5c52 0 90.5 13.5 115.5 40.5s41.833 72.167 50.5 135.5zM622.001 851.996l-225 -85l-32 71l212 117z" />
    <glyph glyph-name="Ucircumflex" unicode="&#xdb;" horiz-adv-x="774" 
d="M555 287l47.001 335.996c1.33301 7.33301 1.16602 12.333 -0.500977 15s-5.83398 4.33398 -12.501 5.00098l-61 7l10 74h290l-10 -74l-68 -8c-7.33301 -0.666992 -11.833 -2.16699 -13.5 -4.5s-2.83398 -7.16602 -3.50098 -14.499l-51 -364
c-13.333 -94 -45.166 -162.667 -95.499 -206s-120.166 -65 -209.499 -65c-86 0 -150.167 17.5 -192.5 52.5s-63.5 88.5 -63.5 160.5c0 16.667 1.66699 37.334 5 62.001l49 360c2 12.667 -2 19.334 -12 20.001l-61 7l10 74h310l-10 -74l-67 -8
c-7.33301 -0.666992 -11.833 -2 -13.5 -4s-3.16699 -7 -4.5 -15l-47 -335c-4 -26 -6 -49.333 -6 -70c0 -37.333 9 -64.5 27 -81.5s47.333 -25.5 88 -25.5c52 0 90.5 13.5 115.5 40.5s41.833 72.167 50.5 135.5zM661.001 822.996l-61 -56l-107 81l-129 -81l-49 56l137 112
h104z" />
    <glyph glyph-name="Udieresis" unicode="&#xdc;" horiz-adv-x="774" 
d="M555 287l47.001 335.996c1.33301 7.33301 1.16602 12.333 -0.500977 15s-5.83398 4.33398 -12.501 5.00098l-61 7l10 74h290l-10 -74l-68 -8c-7.33301 -0.666992 -11.833 -2.16699 -13.5 -4.5s-2.83398 -7.16602 -3.50098 -14.499l-51 -364
c-13.333 -94 -45.166 -162.667 -95.499 -206s-120.166 -65 -209.499 -65c-86 0 -150.167 17.5 -192.5 52.5s-63.5 88.5 -63.5 160.5c0 16.667 1.66699 37.334 5 62.001l49 360c2 12.667 -2 19.334 -12 20.001l-61 7l10 74h310l-10 -74l-67 -8
c-7.33301 -0.666992 -11.833 -2 -13.5 -4s-3.16699 -7 -4.5 -15l-47 -335c-4 -26 -6 -49.333 -6 -70c0 -37.333 9 -64.5 27 -81.5s47.333 -25.5 88 -25.5c52 0 90.5 13.5 115.5 40.5s41.833 72.167 50.5 135.5zM461.001 858.996c0 -23.333 -7.66895 -42.167 -23.002 -56.5
s-34.666 -21.5 -57.999 -21.5c-19.333 0 -34.666 5.66699 -45.999 17s-17 26.333 -17 45c0 23.333 7.83301 42 23.5 56s35.167 21 58.5 21c20 0 35.333 -5.5 46 -16.5s16 -25.833 16 -44.5zM668.999 858.995c0 -23.333 -7.50098 -42.167 -22.501 -56.5
s-34.5 -21.5 -58.5 -21.5c-19.333 0 -34.666 5.66699 -45.999 17s-17 26.333 -17 45c0 23.333 7.83301 42 23.5 56s35.167 21 58.5 21c20 0 35.333 -5.5 46 -16.5s16 -25.833 16 -44.5z" />
    <glyph glyph-name="Yacute" unicode="&#xdd;" horiz-adv-x="663" 
d="M516 0h-383.999l9 74l100 7c6 0.666992 10 2.16699 12 4.5s3.66699 7.5 5 15.5l24 169l-146 353c-2.66699 7.33301 -10 13 -22 17l-42 11l11 73h302l-11 -73l-78 -9l87 -240h6l152 240l-74 9l11 73h261l-11 -73l-42 -11c-14 -4.66699 -23.333 -11.334 -28 -20.001
l-224 -348l-24 -171c-1.33301 -7.33301 -1.33301 -12.166 0 -14.499s5.66602 -3.83301 12.999 -4.5l103 -8zM574.001 852l-225 -85l-32 71l212 117z" />
    <glyph glyph-name="Thorn" unicode="&#xde;" horiz-adv-x="640" 
d="M402 0l-383.998 -0.000976562l10 74l63 7c7.33301 1.33301 12.166 3.16602 14.499 5.49902s3.83301 7.16602 4.5 14.499l73 521c1.33301 7.33301 1 12.333 -1 15s-6.33301 4.33398 -13 5.00098l-60 7l9 75h312l-10 -75l-72 -8c-10 -1.33301 -15.333 -6.66602 -16 -15.999
l-4 -28h98c75.333 0 130.666 -16.5 165.999 -49.5s53 -78.5 53 -136.5c0 -83.333 -26.833 -146.166 -80.5 -188.499s-128.5 -63.5 -224.5 -63.5h-72l-7 -57c-1.33301 -8 -1.33301 -13.167 0 -15.5s5.33301 -3.83301 12 -4.5l140 -8zM283.002 264.999h47.002
c21.333 0 40.166 1.66699 56.499 5s32.666 9.5 48.999 18.5s29 23 38 42s13.5 42.833 13.5 71.5c0 57.333 -38 86 -114 86h-59z" />
    <glyph glyph-name="germandbls" unicode="&#xdf;" horiz-adv-x="686" 
d="M173 -212l-147.996 0.00488281l109 761c6 43.333 17.833 79.833 35.5 109.5s40 52.167 67 67.5s54.667 26 83 32s60.166 9 95.499 9c40.667 0 76.167 -4.83301 106.5 -14.5s53.666 -22.167 69.999 -37.5s28.333 -31 36 -47s11.5 -32.333 11.5 -49
c0 -47.333 -24.333 -94 -73 -140l-14 -13.5l-14.5 -13.5c-3 -2.66699 -6.83301 -6.66699 -11.5 -12s-8 -9.66602 -10 -12.999s-3.83301 -7.16602 -5.5 -11.499s-2.5 -8.5 -2.5 -12.5c0 -6.66699 1.16699 -13 3.5 -19s6.66602 -12 12.999 -18s11.833 -10.833 16.5 -14.5
s12.334 -9.33398 23.001 -17.001l23 -16.5c24.667 -18.667 44 -38.834 58 -60.501s21 -48.834 21 -81.501c0 -56.667 -19.333 -102.167 -58 -136.5s-91.334 -51.5 -158.001 -51.5c-40 0 -77.167 4 -111.5 12s-56.5 15.667 -66.5 23l19 138l102 -6l3 -58
c1.33301 -12 6.66602 -19 15.999 -21c8.66699 -2.66699 21.334 -4 38.001 -4c24 0 42.833 6.33301 56.5 19s20.5 29 20.5 49c0 19.333 -5.83301 35.5 -17.5 48.5s-28.834 26.5 -51.501 40.5c-16.667 10.667 -28.667 18.667 -36 24s-17 13.666 -29 24.999
s-20.5 23.666 -25.5 36.999s-7.5 28.666 -7.5 45.999c0 9.33301 0.666992 18.166 2 26.499s4 16.666 8 24.999l10 20.5c2.66699 5.33301 7.5 12 14.5 20s11.833 13.667 14.5 17s8.16699 9.33301 16.5 18l15.5 16c31.333 32.667 47 62.334 47 89.001
c0 18.667 -7.33301 34 -22 46s-36 18 -64 18c-36 0 -64 -9.66699 -84 -29s-33.333 -52 -40 -98z" />
    <glyph glyph-name="agrave" unicode="&#xe0;" horiz-adv-x="605" 
d="M563 0l-193.002 -0.000976562l12 81l-5 1c-32.667 -32 -62.834 -55.667 -90.501 -71s-58.167 -23 -91.5 -23c-101.333 0 -152 66.667 -152 200c0 40.667 4.5 80 13.5 118s22.833 74.5 41.5 109.5s45 63 79 84s73.333 31.5 118 31.5c53.333 0 99 -19 137 -57l19 47h128
c-13.333 -65.333 -21.666 -109 -24.999 -131l-40 -290c-1.33301 -7.33301 -1.16602 -12.166 0.500977 -14.499s5.83398 -3.83301 12.501 -4.5l47 -7zM383.998 191.999l25.999 188c-27.333 24.667 -56.666 37 -87.999 37c-23.333 0 -43.5 -7.66699 -60.5 -23
s-30 -34.833 -39 -58.5s-15.5 -47 -19.5 -70s-6 -44.833 -6 -65.5c0 -58 19 -87 57 -87c34 0 77.333 26.333 130 79zM471.997 610.999l-64 -50l-158 146l93 78z" />
    <glyph glyph-name="aacute" unicode="&#xe1;" horiz-adv-x="605" 
d="M563 0l-193.002 -0.000976562l12 81l-5 1c-32.667 -32 -62.834 -55.667 -90.501 -71s-58.167 -23 -91.5 -23c-101.333 0 -152 66.667 -152 200c0 40.667 4.5 80 13.5 118s22.833 74.5 41.5 109.5s45 63 79 84s73.333 31.5 118 31.5c53.333 0 99 -19 137 -57l19 47h128
c-13.333 -65.333 -21.666 -109 -24.999 -131l-40 -290c-1.33301 -7.33301 -1.16602 -12.166 0.500977 -14.499s5.83398 -3.83301 12.501 -4.5l47 -7zM383.998 191.999l25.999 188c-27.333 24.667 -56.666 37 -87.999 37c-23.333 0 -43.5 -7.66699 -60.5 -23
s-30 -34.833 -39 -58.5s-15.5 -47 -19.5 -70s-6 -44.833 -6 -65.5c0 -58 19 -87 57 -87c34 0 77.333 26.333 130 79zM486.997 696.999l-186 -136l-55 58l164 163z" />
    <glyph glyph-name="acircumflex" unicode="&#xe2;" horiz-adv-x="605" 
d="M563 0l-193.002 -0.000976562l12 81l-5 1c-32.667 -32 -62.834 -55.667 -90.501 -71s-58.167 -23 -91.5 -23c-101.333 0 -152 66.667 -152 200c0 40.667 4.5 80 13.5 118s22.833 74.5 41.5 109.5s45 63 79 84s73.333 31.5 118 31.5c53.333 0 99 -19 137 -57l19 47h128
c-13.333 -65.333 -21.666 -109 -24.999 -131l-40 -290c-1.33301 -7.33301 -1.16602 -12.166 0.500977 -14.499s5.83398 -3.83301 12.501 -4.5l47 -7zM383.998 191.999l25.999 188c-27.333 24.667 -56.666 37 -87.999 37c-23.333 0 -43.5 -7.66699 -60.5 -23
s-30 -34.833 -39 -58.5s-15.5 -47 -19.5 -70s-6 -44.833 -6 -65.5c0 -58 19 -87 57 -87c34 0 77.333 26.333 130 79zM526.997 613.999l-65 -52l-101 93l-129 -93l-54 52l140 129h104z" />
    <glyph glyph-name="atilde" unicode="&#xe3;" horiz-adv-x="605" 
d="M563 0l-193.002 -0.000976562l12 81l-5 1c-32.667 -32 -62.834 -55.667 -90.501 -71s-58.167 -23 -91.5 -23c-101.333 0 -152 66.667 -152 200c0 40.667 4.5 80 13.5 118s22.833 74.5 41.5 109.5s45 63 79 84s73.333 31.5 118 31.5c53.333 0 99 -19 137 -57l19 47h128
c-13.333 -65.333 -21.666 -109 -24.999 -131l-40 -290c-1.33301 -7.33301 -1.16602 -12.166 0.500977 -14.499s5.83398 -3.83301 12.501 -4.5l47 -7zM383.998 191.999l25.999 188c-27.333 24.667 -56.666 37 -87.999 37c-23.333 0 -43.5 -7.66699 -60.5 -23
s-30 -34.833 -39 -58.5s-15.5 -47 -19.5 -70s-6 -44.833 -6 -65.5c0 -58 19 -87 57 -87c34 0 77.333 26.333 130 79zM559.997 683.999l-29 -41.0029c-14.667 -21.333 -27.5 -36.666 -38.5 -45.999s-23.5 -14 -37.5 -14c-16.667 0 -42 5.33301 -76 16
c-8 2 -18.5 4.83301 -31.5 8.5l-33 9.5c-9 2.66699 -15.833 4.33398 -20.5 5.00098s-10.334 -1.66602 -17.001 -6.99902l-35 -32l-54 37l37 51c23.333 33.333 47.666 50 72.999 50c14.667 0 35.334 -4 62.001 -12c50 -15.333 81.333 -24 94 -26
c4.66699 0 9.33398 2 14.001 6l32 32z" />
    <glyph glyph-name="adieresis" unicode="&#xe4;" horiz-adv-x="605" 
d="M563 0l-193.002 -0.000976562l12 81l-5 1c-32.667 -32 -62.834 -55.667 -90.501 -71s-58.167 -23 -91.5 -23c-101.333 0 -152 66.667 -152 200c0 40.667 4.5 80 13.5 118s22.833 74.5 41.5 109.5s45 63 79 84s73.333 31.5 118 31.5c53.333 0 99 -19 137 -57l19 47h128
c-13.333 -65.333 -21.666 -109 -24.999 -131l-40 -290c-1.33301 -7.33301 -1.16602 -12.166 0.500977 -14.499s5.83398 -3.83301 12.501 -4.5l47 -7zM383.998 191.999l25.999 188c-27.333 24.667 -56.666 37 -87.999 37c-23.333 0 -43.5 -7.66699 -60.5 -23
s-30 -34.833 -39 -58.5s-15.5 -47 -19.5 -70s-6 -44.833 -6 -65.5c0 -58 19 -87 57 -87c34 0 77.333 26.333 130 79zM329.997 673.999c0 -23.333 -7.66895 -42.167 -23.002 -56.5s-34.666 -21.5 -57.999 -21.5c-19.333 0 -34.666 5.66699 -45.999 17s-17 26.333 -17 45
c0 23.333 7.83301 42 23.5 56s35.167 21 58.5 21c20 0 35.333 -5.5 46 -16.5s16 -25.833 16 -44.5zM537.995 673.998c0 -23.333 -7.50098 -42.167 -22.501 -56.5s-34.5 -21.5 -58.5 -21.5c-19.333 0 -34.666 5.66699 -45.999 17s-17 26.333 -17 45
c0 23.333 7.83301 42 23.5 56s35.167 21 58.5 21c20 0 35.333 -5.5 46 -16.5s16 -25.833 16 -44.5z" />
    <glyph glyph-name="aring" unicode="&#xe5;" horiz-adv-x="605" 
d="M563 0l-193.002 -0.000976562l12 81l-5 1c-32.667 -32 -62.834 -55.667 -90.501 -71s-58.167 -23 -91.5 -23c-101.333 0 -152 66.667 -152 200c0 40.667 4.5 80 13.5 118s22.833 74.5 41.5 109.5s45 63 79 84s73.333 31.5 118 31.5c53.333 0 99 -19 137 -57l19 47h128
c-13.333 -65.333 -21.666 -109 -24.999 -131l-40 -290c-1.33301 -7.33301 -1.16602 -12.166 0.500977 -14.499s5.83398 -3.83301 12.501 -4.5l47 -7zM383.998 191.999l25.999 188c-27.333 24.667 -56.666 37 -87.999 37c-23.333 0 -43.5 -7.66699 -60.5 -23
s-30 -34.833 -39 -58.5s-15.5 -47 -19.5 -70s-6 -44.833 -6 -65.5c0 -58 19 -87 57 -87c34 0 77.333 26.333 130 79zM384.997 763.999c23.333 0 43.168 -7.16797 59.501 -21.501s24.5 -34.166 24.5 -59.499c0 -32 -9.83301 -58.167 -29.5 -78.5s-45.834 -30.5 -78.501 -30.5
c-25.333 0 -46.166 7.5 -62.499 22.5s-24.5 35.5 -24.5 61.5c0 32 10.167 57.667 30.5 77s47.166 29 80.499 29zM367.999 631.998c26 0 39 15 39 45c0 19.333 -10 29 -30 29c-26.667 0 -40 -15 -40 -45c0 -19.333 10.333 -29 31 -29z" />
    <glyph glyph-name="ae" unicode="&#xe6;" horiz-adv-x="836" 
d="M765 136l22.999 -98.001c-72 -33.333 -141 -50 -207 -50c-93.333 0 -156.333 32.667 -189 98c-38 -34.667 -72.167 -59.667 -102.5 -75s-61.833 -23 -94.5 -23c-101.333 0 -152 66.667 -152 200c0 40.667 4.5 80 13.5 118s22.833 74.5 41.5 109.5s45 63 79 84
s73.333 31.5 118 31.5c66 0 124 -25.333 174 -76c57.333 50.667 125.333 76 204 76c48.667 0 86.667 -11.5 114 -34.5s41 -55.167 41 -96.5c0 -115.333 -102.333 -182.666 -307 -201.999c2.66699 -31.333 11 -55.5 25 -72.5s38.333 -25.5 73 -25.5
c40.667 0 89.334 12 146.001 36zM407.999 379.999c-29.333 24.667 -58 37.001 -86 37.001c-23.333 0 -43.5 -7.66699 -60.5 -23s-30 -34.833 -39 -58.5s-15.5 -47 -19.5 -70s-6 -44.833 -6 -65.5c0 -58 19 -87 57 -87c30 0 68 21 114 63c-0.666992 10 -1 24.667 -1 44
c2 61.333 15.667 114.666 41 159.999zM526.999 295c15.333 2 30.501 4.66699 45.501 8s32.5 8.33301 52.5 15s36.167 15.667 48.5 27s18.5 24 18.5 38c0 26.667 -16 40 -48 40c-28 0 -52.833 -11.667 -74.5 -35s-35.834 -54.333 -42.501 -93z" />
    <glyph glyph-name="ccedilla" unicode="&#xe7;" horiz-adv-x="502" 
d="M139 -248l16 68.999c8 -2.66699 19.667 -4 35 -4c18 0 33.333 3.83301 46 11.5s19 19.834 19 36.501c0 25.333 -20.333 38.666 -61 39.999l23 86c-59.333 6.66699 -103.5 29 -132.5 67s-43.5 87.333 -43.5 148c0 106 28.5 186.667 85.5 242s130.167 83 219.5 83
c72 0 127.667 -14 167 -42l-22 -157l-102 5l-3 68c0 7.33301 -2.33301 12 -7 14c-11.333 4.66699 -27.666 7 -48.999 7c-37.333 0 -69 -16.667 -95 -50s-39 -84.666 -39 -153.999c0 -81.333 33 -122 99 -122c37.333 0 81.333 10 132 30l25 -93
c-46 -26 -100.333 -41.667 -163 -47l-9 -35c46.667 -13.333 70 -42.333 70 -87c0 -38.667 -14.667 -69 -44 -91s-64.333 -33 -105 -33c-30.667 0 -51.334 2.66699 -62.001 8z" />
    <glyph glyph-name="egrave" unicode="&#xe8;" horiz-adv-x="506" 
d="M439 136l22 -97.9971c-72 -33.333 -141 -50 -207 -50c-74 0 -128 19.167 -162 57.5s-51 90.166 -51 155.499c0 102 28.333 182.5 85 241.5s127.334 88.5 212.001 88.5c54 0 94.833 -11.5 122.5 -34.5s41.5 -55.5 41.5 -97.5c0 -34 -8.33301 -63.667 -25 -89
s-40.334 -45.333 -71.001 -60s-62.667 -25.834 -96 -33.501s-71.666 -13.834 -114.999 -18.501c4 -65.333 37 -98 99 -98c39.333 0 87.666 12 144.999 36zM201 295.003c110 15.333 164.999 45.333 164.999 90c0 25.333 -16 38 -48 38c-28 0 -52.667 -11.5 -74 -34.5
s-35.666 -54.167 -42.999 -93.5zM450.999 611.003l-64 -50l-158 146l93 78z" />
    <glyph glyph-name="eacute" unicode="&#xe9;" horiz-adv-x="506" 
d="M439 136l22 -97.9971c-72 -33.333 -141 -50 -207 -50c-74 0 -128 19.167 -162 57.5s-51 90.166 -51 155.499c0 102 28.333 182.5 85 241.5s127.334 88.5 212.001 88.5c54 0 94.833 -11.5 122.5 -34.5s41.5 -55.5 41.5 -97.5c0 -34 -8.33301 -63.667 -25 -89
s-40.334 -45.333 -71.001 -60s-62.667 -25.834 -96 -33.501s-71.666 -13.834 -114.999 -18.501c4 -65.333 37 -98 99 -98c39.333 0 87.666 12 144.999 36zM201 295.003c110 15.333 164.999 45.333 164.999 90c0 25.333 -16 38 -48 38c-28 0 -52.667 -11.5 -74 -34.5
s-35.666 -54.167 -42.999 -93.5zM465.999 697.003l-186 -136l-55 58l164 163z" />
    <glyph glyph-name="ecircumflex" unicode="&#xea;" horiz-adv-x="506" 
d="M439 136l22 -97.9971c-72 -33.333 -141 -50 -207 -50c-74 0 -128 19.167 -162 57.5s-51 90.166 -51 155.499c0 102 28.333 182.5 85 241.5s127.334 88.5 212.001 88.5c54 0 94.833 -11.5 122.5 -34.5s41.5 -55.5 41.5 -97.5c0 -34 -8.33301 -63.667 -25 -89
s-40.334 -45.333 -71.001 -60s-62.667 -25.834 -96 -33.501s-71.666 -13.834 -114.999 -18.501c4 -65.333 37 -98 99 -98c39.333 0 87.666 12 144.999 36zM201 295.003c110 15.333 164.999 45.333 164.999 90c0 25.333 -16 38 -48 38c-28 0 -52.667 -11.5 -74 -34.5
s-35.666 -54.167 -42.999 -93.5zM505.999 614.003l-65 -52l-101 93l-129 -93l-54 52l140 129h104z" />
    <glyph glyph-name="edieresis" unicode="&#xeb;" horiz-adv-x="506" 
d="M439 136l22 -97.9971c-72 -33.333 -141 -50 -207 -50c-74 0 -128 19.167 -162 57.5s-51 90.166 -51 155.499c0 102 28.333 182.5 85 241.5s127.334 88.5 212.001 88.5c54 0 94.833 -11.5 122.5 -34.5s41.5 -55.5 41.5 -97.5c0 -34 -8.33301 -63.667 -25 -89
s-40.334 -45.333 -71.001 -60s-62.667 -25.834 -96 -33.501s-71.666 -13.834 -114.999 -18.501c4 -65.333 37 -98 99 -98c39.333 0 87.666 12 144.999 36zM201 295.003c110 15.333 164.999 45.333 164.999 90c0 25.333 -16 38 -48 38c-28 0 -52.667 -11.5 -74 -34.5
s-35.666 -54.167 -42.999 -93.5zM308.999 674.003c0 -23.333 -7.66895 -42.167 -23.002 -56.5s-34.666 -21.5 -57.999 -21.5c-19.333 0 -34.666 5.66699 -45.999 17s-17 26.333 -17 45c0 23.333 7.83301 42 23.5 56s35.167 21 58.5 21c20 0 35.333 -5.5 46 -16.5
s16 -25.833 16 -44.5zM516.997 674.002c0 -23.333 -7.50098 -42.167 -22.501 -56.5s-34.5 -21.5 -58.5 -21.5c-19.333 0 -34.666 5.66699 -45.999 17s-17 26.333 -17 45c0 23.333 7.83301 42 23.5 56s35.167 21 58.5 21c20 0 35.333 -5.5 46 -16.5s16 -25.833 16 -44.5z" />
    <glyph glyph-name="igrave" unicode="&#xec;" horiz-adv-x="318" 
d="M304 609l-64 -50l-158 146l93 78zM280 0h-216.001l-2 5l24 135l37 267c2 11.333 -1.33301 18.333 -10 21l-49 17l10 76h213l-59 -420c-1.33301 -8 -1.16602 -13.167 0.500977 -15.5s6.16699 -3.83301 13.5 -4.5l48 -7z" />
    <glyph glyph-name="iacute" unicode="&#xed;" horiz-adv-x="318" 
d="M319 694l-186 -136l-55 58l164 163zM280 0h-216.001l-2 5l24 135l37 267c2 11.333 -1.33301 18.333 -10 21l-49 17l10 76h213l-59 -420c-1.33301 -8 -1.16602 -13.167 0.500977 -15.5s6.16699 -3.83301 13.5 -4.5l48 -7z" />
    <glyph glyph-name="icircumflex" unicode="&#xee;" horiz-adv-x="318" 
d="M356 618l-65 -52l-91 93l-119 -93l-54 52l130 129h104zM280 0h-216.001l-2 5l24 135l37 267c2 11.333 -1.33301 18.333 -10 21l-49 17l10 76h213l-59 -420c-1.33301 -8 -1.16602 -13.167 0.500977 -15.5s6.16699 -3.83301 13.5 -4.5l48 -7z" />
    <glyph glyph-name="idieresis" unicode="&#xef;" horiz-adv-x="318" 
d="M175 661c0 -23.333 -7.66895 -42.167 -23.002 -56.5s-34.666 -21.5 -57.999 -21.5c-19.333 0 -34.666 5.66699 -45.999 17s-17 26.333 -17 45c0 23.333 7.83301 42 23.5 56s35.167 21 58.5 21c20 0 35.333 -5.5 46 -16.5s16 -25.833 16 -44.5zM362.998 660.999
c0 -23.333 -7.50098 -42.167 -22.501 -56.5s-34.5 -21.5 -58.5 -21.5c-19.333 0 -34.666 5.66699 -45.999 17s-17 26.333 -17 45c0 23.333 7.83301 42 23.5 56s35.167 21 58.5 21c20 0 35.333 -5.5 46 -16.5s16 -25.833 16 -44.5zM279.997 -0.00195312h-216.001l-2 5l24 135
l37 267c2 11.333 -1.33301 18.333 -10 21l-49 17l10 76h213l-59 -420c-1.33301 -8 -1.16602 -13.167 0.500977 -15.5s6.16699 -3.83301 13.5 -4.5l48 -7z" />
    <glyph glyph-name="eth" unicode="&#xf0;" horiz-adv-x="587" 
d="M612 673l-88 -50c39.333 -66 59 -142 59 -228c0 -54.667 -5.33301 -105 -16 -151s-27.667 -88.833 -51 -128.5s-56.5 -70.834 -99.5 -93.501s-93.833 -34 -152.5 -34c-73.333 0 -129 19.5 -167 58.5s-57 92.167 -57 159.5c0 84 23.667 155 71 213s113 87 197 87
c44.667 0 89 -13 133 -39c-8.66699 55.333 -29.5 99 -62.5 131s-84.5 57.333 -154.5 76l56 106c58.667 -11.333 111 -32.666 157 -63.999l112 67zM427 366c-24 22.667 -56.333 34 -97 34c-87.333 0 -131 -66.333 -131 -199c0 -72 27.667 -108 83 -108
c88 0 136.333 91 145 273z" />
    <glyph glyph-name="ntilde" unicode="&#xf1;" horiz-adv-x="620" 
d="M584 0h-216.001l-2 3l22 122l29 208c4 20.667 4.16699 37.334 0.5 50.001s-12.5 19 -26.5 19c-32 0 -75.333 -24 -130 -72l-31 -229c-1.33301 -8 -1.33301 -13.167 0 -15.5s5.66602 -3.83301 12.999 -4.5l50 -7l-10 -74h-274l10 75l44 6
c6.66699 1.33301 11.167 3.16602 13.5 5.49902s3.83301 7.16602 4.5 14.499l42 305c2 11.333 -1 18.333 -9 21l-49 18l11 76h198l-11 -82l3 -1c24 20.667 43.333 36.334 58 47.001s33.834 21 57.501 31s47.834 15 72.501 15c76 0 115.333 -39.667 118 -119
c0 -20 -1.33301 -38.333 -4 -55l-36 -256c-1.33301 -8 -1.33301 -13.167 0 -15.5s5.33301 -3.83301 12 -4.5l50 -7zM564.999 684l-28.999 -41.0029c-14.667 -21.333 -27.5 -36.666 -38.5 -45.999s-23.5 -14 -37.5 -14c-16.667 0 -42 5.33301 -76 16
c-8 2 -18.5 4.83301 -31.5 8.5l-33 9.5c-9 2.66699 -15.833 4.33398 -20.5 5.00098s-10.334 -1.66602 -17.001 -6.99902l-35 -32l-54 37l37 51c23.333 33.333 47.666 50 72.999 50c14 0 34.667 -4 62 -12c50 -15.333 81.333 -24 94 -26c4.66699 0 9.33398 2 14.001 6l32 32z
" />
    <glyph glyph-name="ograve" unicode="&#xf2;" horiz-adv-x="578" 
d="M269 -12c-76 0 -132.999 19.167 -170.999 57.5s-57 90.833 -57 157.5c0 98.667 26.667 178 80 238s127.666 90 222.999 90c78.667 0 135.5 -19.333 170.5 -58s52.5 -90 52.5 -154c0 -100.667 -25.5 -181 -76.5 -241s-124.833 -90 -221.5 -90zM281.001 93
c38 0 69 18 93 54s36 92.667 36 170c0 70.667 -27.667 106 -83 106c-38 0 -69.5 -17.5 -94.5 -52.5s-37.5 -90.833 -37.5 -167.5c0 -73.333 28.667 -110 86 -110zM466.001 611l-64 -50l-158 146l93 78z" />
    <glyph glyph-name="oacute" unicode="&#xf3;" horiz-adv-x="578" 
d="M269 -12c-76 0 -132.999 19.167 -170.999 57.5s-57 90.833 -57 157.5c0 98.667 26.667 178 80 238s127.666 90 222.999 90c78.667 0 135.5 -19.333 170.5 -58s52.5 -90 52.5 -154c0 -100.667 -25.5 -181 -76.5 -241s-124.833 -90 -221.5 -90zM281.001 93
c38 0 69 18 93 54s36 92.667 36 170c0 70.667 -27.667 106 -83 106c-38 0 -69.5 -17.5 -94.5 -52.5s-37.5 -90.833 -37.5 -167.5c0 -73.333 28.667 -110 86 -110zM489.001 697l-186 -136l-55 58l164 163z" />
    <glyph glyph-name="ocircumflex" unicode="&#xf4;" horiz-adv-x="578" 
d="M269 -12c-76 0 -132.999 19.167 -170.999 57.5s-57 90.833 -57 157.5c0 98.667 26.667 178 80 238s127.666 90 222.999 90c78.667 0 135.5 -19.333 170.5 -58s52.5 -90 52.5 -154c0 -100.667 -25.5 -181 -76.5 -241s-124.833 -90 -221.5 -90zM281.001 93
c38 0 69 18 93 54s36 92.667 36 170c0 70.667 -27.667 106 -83 106c-38 0 -69.5 -17.5 -94.5 -52.5s-37.5 -90.833 -37.5 -167.5c0 -73.333 28.667 -110 86 -110zM521.001 614l-65 -52l-101 93l-129 -93l-54 52l140 129h104z" />
    <glyph glyph-name="otilde" unicode="&#xf5;" horiz-adv-x="578" 
d="M269 -12c-76 0 -132.999 19.167 -170.999 57.5s-57 90.833 -57 157.5c0 98.667 26.667 178 80 238s127.666 90 222.999 90c78.667 0 135.5 -19.333 170.5 -58s52.5 -90 52.5 -154c0 -100.667 -25.5 -181 -76.5 -241s-124.833 -90 -221.5 -90zM281.001 93
c38 0 69 18 93 54s36 92.667 36 170c0 70.667 -27.667 106 -83 106c-38 0 -69.5 -17.5 -94.5 -52.5s-37.5 -90.833 -37.5 -167.5c0 -73.333 28.667 -110 86 -110zM538.001 684l-29 -41.0029c-14.667 -21.333 -27.5 -36.666 -38.5 -45.999s-23.5 -14 -37.5 -14
c-16.667 0 -42 5.33301 -76 16c-8 2 -18.5 4.83301 -31.5 8.5l-33 9.5c-9 2.66699 -15.833 4.33398 -20.5 5.00098s-10.334 -1.66602 -17.001 -6.99902l-35 -32l-54 37l37 51c23.333 33.333 47.666 50 72.999 50c14.667 0 35.334 -4 62.001 -12
c50 -15.333 81.333 -24 94 -26c4.66699 0 9.33398 2 14.001 6l32 32z" />
    <glyph glyph-name="odieresis" unicode="&#xf6;" horiz-adv-x="578" 
d="M269 -12c-76 0 -132.999 19.167 -170.999 57.5s-57 90.833 -57 157.5c0 98.667 26.667 178 80 238s127.666 90 222.999 90c78.667 0 135.5 -19.333 170.5 -58s52.5 -90 52.5 -154c0 -100.667 -25.5 -181 -76.5 -241s-124.833 -90 -221.5 -90zM281.001 93
c38 0 69 18 93 54s36 92.667 36 170c0 70.667 -27.667 106 -83 106c-38 0 -69.5 -17.5 -94.5 -52.5s-37.5 -90.833 -37.5 -167.5c0 -73.333 28.667 -110 86 -110zM324.001 674c0 -23.333 -7.66895 -42.167 -23.002 -56.5s-34.666 -21.5 -57.999 -21.5
c-19.333 0 -34.666 5.66699 -45.999 17s-17 26.333 -17 45c0 23.333 7.83301 42 23.5 56s35.167 21 58.5 21c20 0 35.333 -5.5 46 -16.5s16 -25.833 16 -44.5zM531.999 673.999c0 -23.333 -7.50098 -42.167 -22.501 -56.5s-34.5 -21.5 -58.5 -21.5
c-19.333 0 -34.666 5.66699 -45.999 17s-17 26.333 -17 45c0 23.333 7.83301 42 23.5 56s35.167 21 58.5 21c20 0 35.333 -5.5 46 -16.5s16 -25.833 16 -44.5z" />
    <glyph glyph-name="divide" unicode="&#xf7;" horiz-adv-x="570" 
d="M365 166c0 -25.333 -7.66895 -45.501 -23.002 -60.501s-37.333 -22.5 -66 -22.5c-46.667 0 -70 20 -70 60c0 25.333 7.83301 46 23.5 62s37.834 24 66.501 24c22.667 0 39.834 -5.66699 51.501 -17s17.5 -26.666 17.5 -45.999zM495.998 262.999h-387l17 116h387z
M410.998 496.999c0 -26 -7.50195 -46.333 -22.502 -61s-37.167 -22 -66.5 -22c-46.667 0 -70 20 -70 60c0 25.333 7.83301 45.833 23.5 61.5s37.834 23.5 66.501 23.5c22.667 0 39.834 -5.5 51.501 -16.5s17.5 -26.167 17.5 -45.5z" />
    <glyph glyph-name="oslash" unicode="&#xf8;" horiz-adv-x="578" 
d="M167 -82h-123l67 116c-46.667 36.667 -70 93 -70 169c0 98.667 26.667 178 80 238s127.666 90 222.999 90c12.667 0 30.334 -1.33301 53.001 -4l39 67h122l-62 -106c47.333 -36 71 -92.333 71 -169c0 -100.667 -25.5 -181 -76.5 -241s-124.833 -90 -221.5 -90
c-19.333 0 -39 1.66699 -59 5zM195 203c0 -18 1.33301 -32.667 4 -44l151 262c-9.33301 1.33301 -17 2 -23 2c-38 0 -69.5 -17.5 -94.5 -52.5s-37.5 -90.833 -37.5 -167.5zM281 93c38 0 69 18 93 54s36 92.667 36 170c0 16 -1.33301 29 -4 39l-149 -261
c9.33301 -1.33301 17.333 -2 24 -2z" />
    <glyph glyph-name="ugrave" unicode="&#xf9;" horiz-adv-x="623" 
d="M578 0l-198.002 0.000976562l10 80l-3 1c-2 -1.33301 -7.5 -6 -16.5 -14s-15.333 -13.333 -19 -16s-10.167 -7.66699 -19.5 -15s-16.833 -12.5 -22.5 -15.5l-23 -12c-9.66699 -5 -18.5 -8.66699 -26.5 -11s-17.333 -4.5 -28 -6.5s-21 -3 -31 -3
c-42 0 -72.333 10.333 -91 31s-28 52 -28 94c0 20 1.33301 39 4 57l33 242c1.33301 8.66699 1.33301 14.167 0 16.5s-5.66602 3.83301 -12.999 4.5l-39 7l12 81h195l7 -7l-44 -318c-2.66699 -22.667 -4 -37 -4 -43c0 -12.667 2.33301 -21.834 7 -27.501s13 -8.5 25 -8.5
c30.667 0 72.667 23.667 126 71l31 226c1.33301 8 1.33301 13 0 15s-5.66602 3.66699 -12.999 5l-32 5l13 82h189l7 -8l-59 -411c-2 -12.667 1.66699 -19.667 11 -21l50 -7zM456.998 611.001l-64 -50l-158 146l93 78z" />
    <glyph glyph-name="uacute" unicode="&#xfa;" horiz-adv-x="623" 
d="M578 0l-198.002 0.000976562l10 80l-3 1c-2 -1.33301 -7.5 -6 -16.5 -14s-15.333 -13.333 -19 -16s-10.167 -7.66699 -19.5 -15s-16.833 -12.5 -22.5 -15.5l-23 -12c-9.66699 -5 -18.5 -8.66699 -26.5 -11s-17.333 -4.5 -28 -6.5s-21 -3 -31 -3
c-42 0 -72.333 10.333 -91 31s-28 52 -28 94c0 20 1.33301 39 4 57l33 242c1.33301 8.66699 1.33301 14.167 0 16.5s-5.66602 3.83301 -12.999 4.5l-39 7l12 81h195l7 -7l-44 -318c-2.66699 -22.667 -4 -37 -4 -43c0 -12.667 2.33301 -21.834 7 -27.501s13 -8.5 25 -8.5
c30.667 0 72.667 23.667 126 71l31 226c1.33301 8 1.33301 13 0 15s-5.66602 3.66699 -12.999 5l-32 5l13 82h189l7 -8l-59 -411c-2 -12.667 1.66699 -19.667 11 -21l50 -7zM492.998 697.001l-186 -136l-55 58l164 163z" />
    <glyph glyph-name="ucircumflex" unicode="&#xfb;" horiz-adv-x="623" 
d="M578 0l-198.002 0.000976562l10 80l-3 1c-2 -1.33301 -7.5 -6 -16.5 -14s-15.333 -13.333 -19 -16s-10.167 -7.66699 -19.5 -15s-16.833 -12.5 -22.5 -15.5l-23 -12c-9.66699 -5 -18.5 -8.66699 -26.5 -11s-17.333 -4.5 -28 -6.5s-21 -3 -31 -3
c-42 0 -72.333 10.333 -91 31s-28 52 -28 94c0 20 1.33301 39 4 57l33 242c1.33301 8.66699 1.33301 14.167 0 16.5s-5.66602 3.83301 -12.999 4.5l-39 7l12 81h195l7 -7l-44 -318c-2.66699 -22.667 -4 -37 -4 -43c0 -12.667 2.33301 -21.834 7 -27.501s13 -8.5 25 -8.5
c30.667 0 72.667 23.667 126 71l31 226c1.33301 8 1.33301 13 0 15s-5.66602 3.66699 -12.999 5l-32 5l13 82h189l7 -8l-59 -411c-2 -12.667 1.66699 -19.667 11 -21l50 -7zM531.998 614.001l-65 -52l-101 93l-129 -93l-54 52l140 129h104z" />
    <glyph glyph-name="udieresis" unicode="&#xfc;" horiz-adv-x="623" 
d="M578 0l-198.002 0.000976562l10 80l-3 1c-2 -1.33301 -7.5 -6 -16.5 -14s-15.333 -13.333 -19 -16s-10.167 -7.66699 -19.5 -15s-16.833 -12.5 -22.5 -15.5l-23 -12c-9.66699 -5 -18.5 -8.66699 -26.5 -11s-17.333 -4.5 -28 -6.5s-21 -3 -31 -3
c-42 0 -72.333 10.333 -91 31s-28 52 -28 94c0 20 1.33301 39 4 57l33 242c1.33301 8.66699 1.33301 14.167 0 16.5s-5.66602 3.83301 -12.999 4.5l-39 7l12 81h195l7 -7l-44 -318c-2.66699 -22.667 -4 -37 -4 -43c0 -12.667 2.33301 -21.834 7 -27.501s13 -8.5 25 -8.5
c30.667 0 72.667 23.667 126 71l31 226c1.33301 8 1.33301 13 0 15s-5.66602 3.66699 -12.999 5l-32 5l13 82h189l7 -8l-59 -411c-2 -12.667 1.66699 -19.667 11 -21l50 -7zM330.998 674.001c0 -23.333 -7.66895 -42.167 -23.002 -56.5s-34.666 -21.5 -57.999 -21.5
c-19.333 0 -34.666 5.66699 -45.999 17s-17 26.333 -17 45c0 23.333 7.83301 42 23.5 56s35.167 21 58.5 21c20 0 35.333 -5.5 46 -16.5s16 -25.833 16 -44.5zM538.996 674c0 -23.333 -7.50098 -42.167 -22.501 -56.5s-34.5 -21.5 -58.5 -21.5
c-19.333 0 -34.666 5.66699 -45.999 17s-17 26.333 -17 45c0 23.333 7.83301 42 23.5 56s35.167 21 58.5 21c20 0 35.333 -5.5 46 -16.5s16 -25.833 16 -44.5z" />
    <glyph glyph-name="yacute" unicode="&#xfd;" horiz-adv-x="568" 
d="M181 -47l28 49.999l-112 418c-2.66699 8.66699 -8.66699 14.334 -18 17.001l-39 9l12 74h176l10 -11l27 -129l45 -209h5l127 266l-61 9l11 74h185l14 -31l-290 -571c-26.667 -50 -55.167 -86.167 -85.5 -108.5s-71.166 -33.5 -122.499 -33.5
c-32.667 0 -62.5 5.5 -89.5 16.5s-46.5 22.167 -58.5 33.5l51 85c32 -19.333 62.333 -29 91 -29c35.333 0 66.666 23.333 93.999 70zM470 696.999l-186 -136l-55 58l164 163z" />
    <glyph glyph-name="thorn" unicode="&#xfe;" horiz-adv-x="600" 
d="M292 -212h-268l-2 4l30 172l96 677c2 10 -1.33301 17 -10 21l-48 17l10 76h208l-45 -313l3 -2c64 60.667 123.333 91 178 91c96 0 144 -66.667 144 -200c0 -105.333 -21.167 -188.833 -63.5 -250.5s-101.833 -92.5 -178.5 -92.5c-54 0 -97.667 16.667 -131 50h-5
l-22 -149c-0.666992 -6 0 -10 2 -12s6 -3.33301 12 -4l101 -10zM252 329l-27 -186c30.667 -26 61 -39 91 -39c38.667 0 67.5 20.667 86.5 62s28.5 88 28.5 140c0 65.333 -17.333 98 -52 98c-28.667 0 -71 -25 -127 -75z" />
    <glyph glyph-name="ydieresis" unicode="&#xff;" horiz-adv-x="568" 
d="M181 -47l28 49.999l-112 418c-2.66699 8.66699 -8.66699 14.334 -18 17.001l-39 9l12 74h176l10 -11l27 -129l45 -209h5l127 266l-61 9l11 74h185l14 -31l-290 -571c-26.667 -50 -55.167 -86.167 -85.5 -108.5s-71.166 -33.5 -122.499 -33.5
c-32.667 0 -62.5 5.5 -89.5 16.5s-46.5 22.167 -58.5 33.5l51 85c32 -19.333 62.333 -29 91 -29c35.333 0 66.666 23.333 93.999 70zM311 673.999c0 -23.333 -7.66895 -42.167 -23.002 -56.5s-34.666 -21.5 -57.999 -21.5c-19.333 0 -34.666 5.66699 -45.999 17
s-17 26.333 -17 45c0 23.333 7.83301 42 23.5 56s35.167 21 58.5 21c20 0 35.333 -5.5 46 -16.5s16 -25.833 16 -44.5zM518.998 673.998c0 -23.333 -7.50098 -42.167 -22.501 -56.5s-34.5 -21.5 -58.5 -21.5c-19.333 0 -34.666 5.66699 -45.999 17s-17 26.333 -17 45
c0 23.333 7.83301 42 23.5 56s35.167 21 58.5 21c20 0 35.333 -5.5 46 -16.5s16 -25.833 16 -44.5z" />
    <glyph glyph-name="Amacron" unicode="&#x100;" horiz-adv-x="744" 
d="M726 0h-306.999l10 73l82 9l-19 109h-246l-49 -109l76 -9l-11 -73h-274l11 73l45 11c13.333 3.33301 22.333 10 27 20l299 620h174l128 -623c1.33301 -8 8.66602 -13.667 21.999 -17l43 -11zM476.001 299l-51 273h-7l-127 -273h185zM625.001 785h-317l13 100h317z" />
    <glyph glyph-name="amacron" unicode="&#x101;" horiz-adv-x="605" 
d="M563 0l-193.002 -0.000976562l12 81l-5 1c-32.667 -32 -62.834 -55.667 -90.501 -71s-58.167 -23 -91.5 -23c-101.333 0 -152 66.667 -152 200c0 40.667 4.5 80 13.5 118s22.833 74.5 41.5 109.5s45 63 79 84s73.333 31.5 118 31.5c53.333 0 99 -19 137 -57l19 47h128
c-13.333 -65.333 -21.666 -109 -24.999 -131l-40 -290c-1.33301 -7.33301 -1.16602 -12.166 0.500977 -14.499s5.83398 -3.83301 12.501 -4.5l47 -7zM383.998 191.999l25.999 188c-27.333 24.667 -56.666 37 -87.999 37c-23.333 0 -43.5 -7.66699 -60.5 -23
s-30 -34.833 -39 -58.5s-15.5 -47 -19.5 -70s-6 -44.833 -6 -65.5c0 -58 19 -87 57 -87c34 0 77.333 26.333 130 79zM521.997 598.999h-317l14 100h317z" />
    <glyph glyph-name="Abreve" unicode="&#x102;" horiz-adv-x="744" 
d="M726 0h-306.999l10 73l82 9l-19 109h-246l-49 -109l76 -9l-11 -73h-274l11 73l45 11c13.333 3.33301 22.333 10 27 20l299 620h174l128 -623c1.33301 -8 8.66602 -13.667 21.999 -17l43 -11zM476.001 299l-51 273h-7l-127 -273h185zM573.001 941l74 -28
c-34 -87.333 -94.667 -131 -182 -131c-92.667 0 -143.667 43.667 -153 131l78 27c10 -45.333 37.333 -68 82 -68c43.333 0 77 23 101 69z" />
    <glyph glyph-name="abreve" unicode="&#x103;" horiz-adv-x="605" 
d="M563 0l-193.002 -0.000976562l12 81l-5 1c-32.667 -32 -62.834 -55.667 -90.501 -71s-58.167 -23 -91.5 -23c-101.333 0 -152 66.667 -152 200c0 40.667 4.5 80 13.5 118s22.833 74.5 41.5 109.5s45 63 79 84s73.333 31.5 118 31.5c53.333 0 99 -19 137 -57l19 47h128
c-13.333 -65.333 -21.666 -109 -24.999 -131l-40 -290c-1.33301 -7.33301 -1.16602 -12.166 0.500977 -14.499s5.83398 -3.83301 12.501 -4.5l47 -7zM383.998 191.999l25.999 188c-27.333 24.667 -56.666 37 -87.999 37c-23.333 0 -43.5 -7.66699 -60.5 -23
s-30 -34.833 -39 -58.5s-15.5 -47 -19.5 -70s-6 -44.833 -6 -65.5c0 -58 19 -87 57 -87c34 0 77.333 26.333 130 79zM470.997 736.999l73.999 -28c-35.333 -91.333 -98.333 -137 -189 -137c-94 0 -145.667 45.667 -155 137l78 28c10.667 -50 39.334 -75 86.001 -75
c44 0 79.333 25 106 75z" />
    <glyph glyph-name="Aogonek" unicode="&#x104;" horiz-adv-x="744" 
d="M630 -133l17.002 -74c-40.667 -18 -81.334 -27 -122.001 -27c-63.333 0 -95 24.667 -95 74c0 54 38 107.333 114 160h-125l10 73l82 9l-19 109h-246l-49 -109l76 -9l-11 -73h-274l11 73l45 11c13.333 3.33301 22.333 10 27 20l299 620h174l128 -623
c1.33301 -8 8.66602 -13.667 21.999 -17l43 -11l-11 -73h-83c-61.333 -47.333 -92 -87 -92 -119c0 -16 8.33301 -24 25 -24c14 0 32 3.33301 54 10zM476.002 299l-51 273h-7l-127 -273h185z" />
    <glyph glyph-name="aogonek" unicode="&#x105;" horiz-adv-x="605" 
d="M514 -133l16.999 -74.001c-40.667 -18 -81.334 -27 -122.001 -27c-63.333 0 -95 24.667 -95 74c0 54 38.333 107.333 115 160h-59l12 81l-5 1c-32.667 -32 -62.834 -55.667 -90.501 -71s-58.167 -23 -91.5 -23c-101.333 0 -152 66.667 -152 200c0 40.667 4.5 80 13.5 118
s22.833 74.5 41.5 109.5s45 63 79 84s73.333 31.5 118 31.5c53.333 0 99 -19 137 -57l19 47h128c-13.333 -65.333 -21.666 -109 -24.999 -131l-40 -290c-1.33301 -7.33301 -1.16602 -12.166 0.500977 -14.499s5.83398 -3.83301 12.501 -4.5l47 -7l-11 -74
c-31.333 -12 -60.5 -29.833 -87.5 -53.5s-40.5 -45.5 -40.5 -65.5c0 -16 8.33301 -24 25 -24c14 0 32 3.33301 54 10zM383.999 191.999l25.999 188c-27.333 24.667 -56.666 37 -87.999 37c-23.333 0 -43.5 -7.66699 -60.5 -23s-30 -34.833 -39 -58.5s-15.5 -47 -19.5 -70
s-6 -44.833 -6 -65.5c0 -58 19 -87 57 -87c34 0 77.333 26.333 130 79z" />
    <glyph glyph-name="Cacute" unicode="&#x106;" horiz-adv-x="670" 
d="M636 229l-26.001 -186c-63.333 -36.667 -147.666 -55 -252.999 -55c-100.667 0 -175.5 27.667 -224.5 83s-73.5 131.666 -73.5 228.999c0 131.333 36.167 237 108.5 317s175.5 120 309.5 120c41.333 0 82.333 -5.16699 123 -15.5s72.667 -24.166 96 -41.499l-26 -196
l-107 9l-3 93c0 12 -4.33301 19.333 -13 22c-22 8.66699 -50 13 -84 13c-74.667 0 -134.167 -26.833 -178.5 -80.5s-66.5 -130.167 -66.5 -229.5c0 -68.667 14.167 -120.667 42.5 -156s69.5 -53 123.5 -53c46.667 0 81 4.33301 103 13c7.33301 4 12.333 10.333 15 19l29 95
h105zM605.999 852l-225 -85l-32 71l212 117z" />
    <glyph glyph-name="cacute" unicode="&#x107;" horiz-adv-x="502" 
d="M427 130l24.998 -93.001c-57.333 -32.667 -121.666 -49 -192.999 -49c-73.333 0 -128 19.5 -164 58.5s-54 92.167 -54 159.5c0 106 28.5 186.667 85.5 242s130.167 83 219.5 83c72 0 127.667 -14 167 -42l-22 -157l-102 5l-3 68c0 7.33301 -2.33301 12 -7 14
c-11.333 4.66699 -27.666 7 -48.999 7c-37.333 0 -69 -16.667 -95 -50s-39 -84.666 -39 -153.999c0 -81.333 33 -122 99 -122c37.333 0 81.333 10 132 30zM478.998 696.999l-186 -136l-55 58l164 163z" />
    <glyph glyph-name="Ccircumflex" unicode="&#x108;" horiz-adv-x="670" 
d="M636 229l-26.001 -186c-63.333 -36.667 -147.666 -55 -252.999 -55c-100.667 0 -175.5 27.667 -224.5 83s-73.5 131.666 -73.5 228.999c0 131.333 36.167 237 108.5 317s175.5 120 309.5 120c41.333 0 82.333 -5.16699 123 -15.5s72.667 -24.166 96 -41.499l-26 -196
l-107 9l-3 93c0 12 -4.33301 19.333 -13 22c-22 8.66699 -50 13 -84 13c-74.667 0 -134.167 -26.833 -178.5 -80.5s-66.5 -130.167 -66.5 -229.5c0 -68.667 14.167 -120.667 42.5 -156s69.5 -53 123.5 -53c46.667 0 81 4.33301 103 13c7.33301 4 12.333 10.333 15 19l29 95
h105zM644.999 823l-61 -56l-107 81l-129 -81l-49 56l137 112h104z" />
    <glyph glyph-name="ccircumflex" unicode="&#x109;" horiz-adv-x="502" 
d="M427 130l24.998 -93.001c-57.333 -32.667 -121.666 -49 -192.999 -49c-73.333 0 -128 19.5 -164 58.5s-54 92.167 -54 159.5c0 106 28.5 186.667 85.5 242s130.167 83 219.5 83c72 0 127.667 -14 167 -42l-22 -157l-102 5l-3 68c0 7.33301 -2.33301 12 -7 14
c-11.333 4.66699 -27.666 7 -48.999 7c-37.333 0 -69 -16.667 -95 -50s-39 -84.666 -39 -153.999c0 -81.333 33 -122 99 -122c37.333 0 81.333 10 132 30zM518.998 613.999l-65 -52l-101 93l-129 -93l-54 52l140 129h104z" />
    <glyph glyph-name="Cdotaccent" unicode="&#x10a;" horiz-adv-x="670" 
d="M636 229l-26.001 -186c-63.333 -36.667 -147.666 -55 -252.999 -55c-100.667 0 -175.5 27.667 -224.5 83s-73.5 131.666 -73.5 228.999c0 131.333 36.167 237 108.5 317s175.5 120 309.5 120c41.333 0 82.333 -5.16699 123 -15.5s72.667 -24.166 96 -41.499l-26 -196
l-107 9l-3 93c0 12 -4.33301 19.333 -13 22c-22 8.66699 -50 13 -84 13c-74.667 0 -134.167 -26.833 -178.5 -80.5s-66.5 -130.167 -66.5 -229.5c0 -68.667 14.167 -120.667 42.5 -156s69.5 -53 123.5 -53c46.667 0 81 4.33301 103 13c7.33301 4 12.333 10.333 15 19l29 95
h105zM577.999 885c0 -31.333 -9.33301 -56.499 -28 -75.499s-44.334 -28.5 -77.001 -28.5c-25.333 0 -45 6.66699 -59 20s-21 31.666 -21 54.999c0 32 9.33301 57.167 28 75.5s44.334 27.5 77.001 27.5c25.333 0 45 -6.33301 59 -19s21 -31 21 -55z" />
    <glyph glyph-name="cdotaccent" unicode="&#x10b;" horiz-adv-x="502" 
d="M427 130l24.998 -93.001c-57.333 -32.667 -121.666 -49 -192.999 -49c-73.333 0 -128 19.5 -164 58.5s-54 92.167 -54 159.5c0 106 28.5 186.667 85.5 242s130.167 83 219.5 83c72 0 127.667 -14 167 -42l-22 -157l-102 5l-3 68c0 7.33301 -2.33301 12 -7 14
c-11.333 4.66699 -27.666 7 -48.999 7c-37.333 0 -69 -16.667 -95 -50s-39 -84.666 -39 -153.999c0 -81.333 33 -122 99 -122c37.333 0 81.333 10 132 30zM350.998 602.999c-24.667 0 -43.668 6.66797 -57.001 20.001s-20 31.666 -20 54.999c0 32 9 57.167 27 75.5
s43.333 27.5 76 27.5c24.667 0 43.834 -6.33301 57.501 -19s20.5 -31 20.5 -55c0 -32 -9.33301 -57.333 -28 -76s-44 -28 -76 -28z" />
    <glyph glyph-name="Ccaron" unicode="&#x10c;" horiz-adv-x="670" 
d="M636 229l-26.001 -186c-63.333 -36.667 -147.666 -55 -252.999 -55c-100.667 0 -175.5 27.667 -224.5 83s-73.5 131.666 -73.5 228.999c0 131.333 36.167 237 108.5 317s175.5 120 309.5 120c41.333 0 82.333 -5.16699 123 -15.5s72.667 -24.166 96 -41.499l-26 -196
l-107 9l-3 93c0 12 -4.33301 19.333 -13 22c-22 8.66699 -50 13 -84 13c-74.667 0 -134.167 -26.833 -178.5 -80.5s-66.5 -130.167 -66.5 -229.5c0 -68.667 14.167 -120.667 42.5 -156s69.5 -53 123.5 -53c46.667 0 81 4.33301 103 13c7.33301 4 12.333 10.333 15 19l29 95
h105zM655.999 890l-136 -111h-104l-106 111l60 57l107 -81l130 81z" />
    <glyph glyph-name="ccaron" unicode="&#x10d;" horiz-adv-x="502" 
d="M427 130l24.998 -93.001c-57.333 -32.667 -121.666 -49 -192.999 -49c-73.333 0 -128 19.5 -164 58.5s-54 92.167 -54 159.5c0 106 28.5 186.667 85.5 242s130.167 83 219.5 83c72 0 127.667 -14 167 -42l-22 -157l-102 5l-3 68c0 7.33301 -2.33301 12 -7 14
c-11.333 4.66699 -27.666 7 -48.999 7c-37.333 0 -69 -16.667 -95 -50s-39 -84.666 -39 -153.999c0 -81.333 33 -122 99 -122c37.333 0 81.333 10 132 30zM540.998 710.999l-141 -129h-104l-104 129l64 52l102 -93l128 93z" />
    <glyph glyph-name="Dcaron" unicode="&#x10e;" horiz-adv-x="739" 
d="M320 0h-302l11 75l63 7c6.66699 0.666992 11 2.16699 13 4.5s3.66699 7.16602 5 14.499l73 522c2 12 -2.33301 18.667 -13 20l-62 7l10 74h318c104.667 0 182.167 -25.667 232.5 -77s75.5 -123.666 75.5 -216.999c0 -128.667 -35.667 -232.5 -107 -311.5
s-177 -118.5 -317 -118.5zM262 107h56c86.667 0 153.5 30 200.5 90s70.5 136.333 70.5 229c0 66.667 -16 115 -48 145s-81.333 45 -148 45h-61zM604 890l-136 -111h-104l-106 111l60 57l107 -81l130 81z" />
    <glyph glyph-name="dcaron" unicode="&#x10f;" horiz-adv-x="712" 
d="M564 0l-194.004 -0.000976562l12 80l-5 2c-32.667 -32 -62.667 -55.667 -90 -71s-57.666 -23 -90.999 -23c-102 0 -153 66 -153 198c0 38.667 4.33301 77 13 115s22.334 74.833 41.001 110.5s45 64.5 79 86.5s73.333 33 118 33c50.667 0 95 -14.333 133 -43l20 154
c1.33301 11.333 -2 18 -10 20l-50 17l12 76h206l-91 -655c-1.33301 -7.33301 -1.16602 -12.166 0.500977 -14.499s5.83398 -3.83301 12.501 -4.5l47 -7zM383.996 192.999l27.001 189.998c-26.667 22.667 -55.334 34 -86.001 34c-24 0 -44.833 -7.5 -62.5 -22.5
s-31 -34.667 -40 -59s-15.5 -48.166 -19.5 -71.499s-6 -46.666 -6 -69.999c0 -54 19 -81 57 -81c34.667 0 78 26.667 130 80zM685.997 530.997l-69 29c25.333 56 38 100.667 38 134c0 11.333 -3 27 -9 47l98 34c18.667 -20 28 -38 28 -54c0 -18 -4.66699 -37.667 -14 -59
c-9.33301 -23.333 -33.333 -67 -72 -131z" />
    <glyph glyph-name="Dcroat" unicode="&#x110;" horiz-adv-x="745" 
d="M326 0h-302l11 75l63 7c6.66699 0.666992 11 2.16699 13 4.5s3.66699 7.16602 5 14.499l29 209h-80l15 107h80l29 206c2 12 -2.33301 18.667 -13 20l-62 7l10 74h318c104.667 0 182.167 -25.667 232.5 -77s75.5 -123.666 75.5 -216.999
c0 -128.667 -35.667 -232.5 -107 -311.5s-177 -118.5 -317 -118.5zM268 107h56c86.667 0 153.5 30 200.5 90s70.5 136.333 70.5 229c0 66.667 -16 115 -48 145s-81.333 45 -148 45h-61l-28 -199h141l-14 -107h-141z" />
    <glyph glyph-name="dcroat" unicode="&#x111;" horiz-adv-x="608" 
d="M564 0l-194.006 -0.00195312l12 80l-5 2c-32.667 -32 -62.667 -55.667 -90 -71s-57.666 -23 -90.999 -23c-49.333 0 -87.166 16.167 -113.499 48.5s-39.5 80.5 -39.5 144.5c0 39.333 4.66699 77 14 113s23.333 69.5 42 100.5s44.334 55.833 77.001 74.5
s70.334 28 113.001 28c50.667 0 95 -14.333 133 -43l11 82h-153l12 84h152l3 22c2 10.667 -1.33301 17.334 -10 20.001l-50 17l12 76h206l-19 -135h72l-12 -84h-72l-60 -436c-1.33301 -7.33301 -1.16602 -12.166 0.500977 -14.499s5.83398 -3.83301 12.501 -4.5l47 -7z
M383.994 192.998l22 155.999c-26.667 22.667 -55.334 34 -86.001 34s-55.667 -10.5 -75 -31.5s-32.166 -44.667 -38.499 -71s-9.5 -55.166 -9.5 -86.499c0 -54 19 -81 57 -81c34.667 0 78 26.667 130 80z" />
    <glyph glyph-name="Emacron" unicode="&#x112;" horiz-adv-x="620" 
d="M561 0l-542.997 0.000976562l10 73l63 7c7.33301 1.33301 12.166 3.16602 14.499 5.49902s3.83301 7.16602 4.5 14.499l73 523c1.33301 7.33301 1.16602 12.333 -0.500977 15s-5.83398 4.33398 -12.501 5.00098l-62 7l10 74h521l-28 -202l-105 5l-3 76
c-0.666992 8.66699 -6 13 -16 13h-155l-27 -197h230l-16 -111h-230l-27 -201h177c9.33301 0 15 3.66699 17 11l28 88h105zM565.003 785.001h-317l13 100h317z" />
    <glyph glyph-name="emacron" unicode="&#x113;" horiz-adv-x="506" 
d="M439 136l22 -97.9971c-72 -33.333 -141 -50 -207 -50c-74 0 -128 19.167 -162 57.5s-51 90.166 -51 155.499c0 102 28.333 182.5 85 241.5s127.334 88.5 212.001 88.5c54 0 94.833 -11.5 122.5 -34.5s41.5 -55.5 41.5 -97.5c0 -34 -8.33301 -63.667 -25 -89
s-40.334 -45.333 -71.001 -60s-62.667 -25.834 -96 -33.501s-71.666 -13.834 -114.999 -18.501c4 -65.333 37 -98 99 -98c39.333 0 87.666 12 144.999 36zM201 295.003c110 15.333 164.999 45.333 164.999 90c0 25.333 -16 38 -48 38c-28 0 -52.667 -11.5 -74 -34.5
s-35.666 -54.167 -42.999 -93.5zM500.999 599.003h-317l14 100h317z" />
    <glyph glyph-name="Ebreve" unicode="&#x114;" horiz-adv-x="620" 
d="M561 0l-542.997 0.000976562l10 73l63 7c7.33301 1.33301 12.166 3.16602 14.499 5.49902s3.83301 7.16602 4.5 14.499l73 523c1.33301 7.33301 1.16602 12.333 -0.500977 15s-5.83398 4.33398 -12.501 5.00098l-62 7l10 74h521l-28 -202l-105 5l-3 76
c-0.666992 8.66699 -6 13 -16 13h-155l-27 -197h230l-16 -111h-230l-27 -201h177c9.33301 0 15 3.66699 17 11l28 88h105zM513.003 941.001l74 -28c-34 -87.333 -94.667 -131 -182 -131c-92.667 0 -143.667 43.667 -153 131l78 27c10 -45.333 37.333 -68 82 -68
c43.333 0 77 23 101 69z" />
    <glyph glyph-name="ebreve" unicode="&#x115;" horiz-adv-x="506" 
d="M439 136l22 -97.9971c-72 -33.333 -141 -50 -207 -50c-74 0 -128 19.167 -162 57.5s-51 90.166 -51 155.499c0 102 28.333 182.5 85 241.5s127.334 88.5 212.001 88.5c54 0 94.833 -11.5 122.5 -34.5s41.5 -55.5 41.5 -97.5c0 -34 -8.33301 -63.667 -25 -89
s-40.334 -45.333 -71.001 -60s-62.667 -25.834 -96 -33.501s-71.666 -13.834 -114.999 -18.501c4 -65.333 37 -98 99 -98c39.333 0 87.666 12 144.999 36zM201 295.003c110 15.333 164.999 45.333 164.999 90c0 25.333 -16 38 -48 38c-28 0 -52.667 -11.5 -74 -34.5
s-35.666 -54.167 -42.999 -93.5zM449.999 737.003l73.999 -28c-35.333 -91.333 -98.333 -137 -189 -137c-94 0 -145.667 45.667 -155 137l78 28c10.667 -50 39.334 -75 86.001 -75c44 0 79.333 25 106 75z" />
    <glyph glyph-name="Edotaccent" unicode="&#x116;" horiz-adv-x="620" 
d="M561 0l-542.997 0.000976562l10 73l63 7c7.33301 1.33301 12.166 3.16602 14.499 5.49902s3.83301 7.16602 4.5 14.499l73 523c1.33301 7.33301 1.16602 12.333 -0.500977 15s-5.83398 4.33398 -12.501 5.00098l-62 7l10 74h521l-28 -202l-105 5l-3 76
c-0.666992 8.66699 -6 13 -16 13h-155l-27 -197h230l-16 -111h-230l-27 -201h177c9.33301 0 15 3.66699 17 11l28 88h105zM509.003 885.001c0 -31.333 -9.50098 -56.499 -28.501 -75.499s-44.5 -28.5 -76.5 -28.5c-25.333 0 -45 6.66699 -59 20s-21 31.666 -21 54.999
c0 32 9.33301 57.167 28 75.5s44.334 27.5 77.001 27.5c25.333 0 45 -6.33301 59 -19s21 -31 21 -55z" />
    <glyph glyph-name="edotaccent" unicode="&#x117;" horiz-adv-x="506" 
d="M439 136l22 -97.9971c-72 -33.333 -141 -50 -207 -50c-74 0 -128 19.167 -162 57.5s-51 90.166 -51 155.499c0 102 28.333 182.5 85 241.5s127.334 88.5 212.001 88.5c54 0 94.833 -11.5 122.5 -34.5s41.5 -55.5 41.5 -97.5c0 -34 -8.33301 -63.667 -25 -89
s-40.334 -45.333 -71.001 -60s-62.667 -25.834 -96 -33.501s-71.666 -13.834 -114.999 -18.501c4 -65.333 37 -98 99 -98c39.333 0 87.666 12 144.999 36zM201 295.003c110 15.333 164.999 45.333 164.999 90c0 25.333 -16 38 -48 38c-28 0 -52.667 -11.5 -74 -34.5
s-35.666 -54.167 -42.999 -93.5zM337.999 603.003c-24.667 0 -43.668 6.66797 -57.001 20.001s-20 31.666 -20 54.999c0 32 9 57.167 27 75.5s43.333 27.5 76 27.5c24.667 0 43.834 -6.33301 57.501 -19s20.5 -31 20.5 -55c0 -32 -9.33301 -57.333 -28 -76s-44 -28 -76 -28z
" />
    <glyph glyph-name="Eogonek" unicode="&#x118;" horiz-adv-x="620" 
d="M516 -133l17.0039 -73.999c-40.667 -18 -81.334 -27 -122.001 -27c-63.333 0 -95 24.667 -95 74c0 54 38 107.333 114 160h-412l10 73l63 7c7.33301 1.33301 12.166 3.16602 14.499 5.49902s3.83301 7.16602 4.5 14.499l73 523
c1.33301 7.33301 1.16602 12.333 -0.500977 15s-5.83398 4.33398 -12.501 5.00098l-62 7l10 74h521l-28 -202l-105 5l-3 76c-0.666992 8.66699 -6 13 -16 13h-155l-27 -197h230l-16 -111h-230l-27 -201h177c9.33301 0 15 3.66699 17 11l28 88h105l-28 -206
c-30.667 -12.667 -59 -30.667 -85 -54s-39 -45 -39 -65c0 -16 8.33301 -24 25 -24c14 0 32 3.33301 54 10z" />
    <glyph glyph-name="eogonek" unicode="&#x119;" horiz-adv-x="506" 
d="M374 -133l17.001 -73.998c-40.667 -18 -81.334 -27 -122.001 -27c-63.333 0 -95 24.667 -95 74c0 50.667 32.667 100.334 98 149.001c-4 -0.666992 -10 -1 -18 -1c-74 0 -128 19.167 -162 57.5s-51 90.166 -51 155.499c0 102 28.333 182.5 85 241.5
s127.334 88.5 212.001 88.5c54 0 94.833 -11.5 122.5 -34.5s41.5 -55.5 41.5 -97.5c0 -34 -8.33301 -63.667 -25 -89s-40.334 -45.333 -71.001 -60s-62.667 -25.834 -96 -33.501s-71.666 -13.834 -114.999 -18.501c4 -65.333 37 -98 99 -98c39.333 0 87.666 12 144.999 36
l22 -98c-19.333 -9.33301 -37.666 -19.333 -54.999 -30c-28.667 -18 -54.334 -38.667 -77.001 -62s-34 -45 -34 -65c0 -16 8.33301 -24 25 -24c14 0 32 3.33301 54 10zM201.001 295.002c110 15.333 164.999 45.333 164.999 90c0 25.333 -16 38 -48 38
c-28 0 -52.667 -11.5 -74 -34.5s-35.666 -54.167 -42.999 -93.5z" />
    <glyph glyph-name="Ecaron" unicode="&#x11a;" horiz-adv-x="620" 
d="M561 0l-542.997 0.000976562l10 73l63 7c7.33301 1.33301 12.166 3.16602 14.499 5.49902s3.83301 7.16602 4.5 14.499l73 523c1.33301 7.33301 1.16602 12.333 -0.500977 15s-5.83398 4.33398 -12.501 5.00098l-62 7l10 74h521l-28 -202l-105 5l-3 76
c-0.666992 8.66699 -6 13 -16 13h-155l-27 -197h230l-16 -111h-230l-27 -201h177c9.33301 0 15 3.66699 17 11l28 88h105zM587.003 890.001l-136 -111h-104l-106 111l60 57l107 -81l130 81z" />
    <glyph glyph-name="ecaron" unicode="&#x11b;" horiz-adv-x="506" 
d="M439 136l22 -97.9971c-72 -33.333 -141 -50 -207 -50c-74 0 -128 19.167 -162 57.5s-51 90.166 -51 155.499c0 102 28.333 182.5 85 241.5s127.334 88.5 212.001 88.5c54 0 94.833 -11.5 122.5 -34.5s41.5 -55.5 41.5 -97.5c0 -34 -8.33301 -63.667 -25 -89
s-40.334 -45.333 -71.001 -60s-62.667 -25.834 -96 -33.501s-71.666 -13.834 -114.999 -18.501c4 -65.333 37 -98 99 -98c39.333 0 87.666 12 144.999 36zM201 295.003c110 15.333 164.999 45.333 164.999 90c0 25.333 -16 38 -48 38c-28 0 -52.667 -11.5 -74 -34.5
s-35.666 -54.167 -42.999 -93.5zM527.999 711.003l-141 -129h-104l-104 129l64 52l102 -93l128 93z" />
    <glyph glyph-name="Gcircumflex" unicode="&#x11c;" horiz-adv-x="717" 
d="M721 269l-40.002 -4c-11.333 -0.666992 -17.333 -5.33398 -18 -14.001l-29 -215c-71.333 -32 -158.666 -48 -261.999 -48c-108.667 0 -188.167 28.333 -238.5 85s-75.5 132.334 -75.5 227.001c0 130 36.333 235.333 109 316s176.334 121 311.001 121
c39.333 0 79.333 -5 120 -15s73.667 -24.333 99 -43l-25 -189l-108 8l-3 89c0 12 -4 19 -12 21c-27.333 8.66699 -57 13 -89 13c-74 0 -132.833 -28.167 -176.5 -84.5s-65.5 -131.833 -65.5 -226.5c0 -138 58.667 -207 176 -207c38 0 67.333 3.33301 88 10
c7.33301 2 12 7.66699 14 17l19 129h-110l26 90h301zM638.998 823l-61 -56l-107 81l-129 -81l-49 56l137 112h104z" />
    <glyph glyph-name="gcircumflex" unicode="&#x11d;" horiz-adv-x="589" 
d="M366 -5l12 86l-3 2c-34 -29.333 -64.167 -51.5 -90.5 -66.5s-55.833 -22.5 -88.5 -22.5c-102 0 -153 64.667 -153 194c0 40 4.5 79 13.5 117s22.667 74.5 41 109.5s44.5 63.167 78.5 84.5s73.333 32 118 32c55.333 0 101.333 -19 138 -57l19 47h129
c-14 -63.333 -22.667 -108 -26 -134l-56 -403c-18.667 -138 -100 -207 -244 -207c-45.333 0 -88.5 6 -129.5 18s-70.5 24.333 -88.5 37l47 93c12 -8.66699 33.333 -18 64 -28s61.334 -15 92.001 -15c39.333 0 69.166 8.83301 89.499 26.5s32.833 46.5 37.5 86.5zM384 193
l27.002 185.999c-26.667 25.333 -56.334 38 -89.001 38c-30.667 0 -56 -13.667 -76 -41s-33.167 -56.166 -39.5 -86.499s-9.5 -60.5 -9.5 -90.5c0 -28.667 4.66699 -49.167 14 -61.5s23.666 -18.5 42.999 -18.5c36 0 79.333 24.667 130 74zM525.002 613.999l-65 -52l-101 93
l-129 -93l-54 52l140 129h104z" />
    <glyph glyph-name="Gbreve" unicode="&#x11e;" horiz-adv-x="717" 
d="M721 269l-40.002 -4c-11.333 -0.666992 -17.333 -5.33398 -18 -14.001l-29 -215c-71.333 -32 -158.666 -48 -261.999 -48c-108.667 0 -188.167 28.333 -238.5 85s-75.5 132.334 -75.5 227.001c0 130 36.333 235.333 109 316s176.334 121 311.001 121
c39.333 0 79.333 -5 120 -15s73.667 -24.333 99 -43l-25 -189l-108 8l-3 89c0 12 -4 19 -12 21c-27.333 8.66699 -57 13 -89 13c-74 0 -132.833 -28.167 -176.5 -84.5s-65.5 -131.833 -65.5 -226.5c0 -138 58.667 -207 176 -207c38 0 67.333 3.33301 88 10
c7.33301 2 12 7.66699 14 17l19 129h-110l26 90h301zM574.998 941l74 -28c-34 -87.333 -94.667 -131 -182 -131c-92.667 0 -143.667 43.667 -153 131l78 27c10 -45.333 37.333 -68 82 -68c43.333 0 77 23 101 69z" />
    <glyph glyph-name="gbreve" unicode="&#x11f;" horiz-adv-x="589" 
d="M366 -5l12 86l-3 2c-34 -29.333 -64.167 -51.5 -90.5 -66.5s-55.833 -22.5 -88.5 -22.5c-102 0 -153 64.667 -153 194c0 40 4.5 79 13.5 117s22.667 74.5 41 109.5s44.5 63.167 78.5 84.5s73.333 32 118 32c55.333 0 101.333 -19 138 -57l19 47h129
c-14 -63.333 -22.667 -108 -26 -134l-56 -403c-18.667 -138 -100 -207 -244 -207c-45.333 0 -88.5 6 -129.5 18s-70.5 24.333 -88.5 37l47 93c12 -8.66699 33.333 -18 64 -28s61.334 -15 92.001 -15c39.333 0 69.166 8.83301 89.499 26.5s32.833 46.5 37.5 86.5zM384 193
l27.002 185.999c-26.667 25.333 -56.334 38 -89.001 38c-30.667 0 -56 -13.667 -76 -41s-33.167 -56.166 -39.5 -86.499s-9.5 -60.5 -9.5 -90.5c0 -28.667 4.66699 -49.167 14 -61.5s23.666 -18.5 42.999 -18.5c36 0 79.333 24.667 130 74zM458.002 736.999l73.999 -28
c-35.333 -91.333 -98.333 -137 -189 -137c-94 0 -145.667 45.667 -155 137l78 28c10.667 -50 39.334 -75 86.001 -75c44 0 79.333 25 106 75z" />
    <glyph glyph-name="Gdotaccent" unicode="&#x120;" horiz-adv-x="717" 
d="M721 269l-40.002 -4c-11.333 -0.666992 -17.333 -5.33398 -18 -14.001l-29 -215c-71.333 -32 -158.666 -48 -261.999 -48c-108.667 0 -188.167 28.333 -238.5 85s-75.5 132.334 -75.5 227.001c0 130 36.333 235.333 109 316s176.334 121 311.001 121
c39.333 0 79.333 -5 120 -15s73.667 -24.333 99 -43l-25 -189l-108 8l-3 89c0 12 -4 19 -12 21c-27.333 8.66699 -57 13 -89 13c-74 0 -132.833 -28.167 -176.5 -84.5s-65.5 -131.833 -65.5 -226.5c0 -138 58.667 -207 176 -207c38 0 67.333 3.33301 88 10
c7.33301 2 12 7.66699 14 17l19 129h-110l26 90h301zM569.998 885c0 -31.333 -9.33301 -56.499 -28 -75.499s-44.334 -28.5 -77.001 -28.5c-25.333 0 -45 6.66699 -59 20s-21 31.666 -21 54.999c0 32 9.33301 57.167 28 75.5s44.334 27.5 77.001 27.5
c25.333 0 45 -6.33301 59 -19s21 -31 21 -55z" />
    <glyph glyph-name="gdotaccent" unicode="&#x121;" horiz-adv-x="589" 
d="M366 -5l12 86l-3 2c-34 -29.333 -64.167 -51.5 -90.5 -66.5s-55.833 -22.5 -88.5 -22.5c-102 0 -153 64.667 -153 194c0 40 4.5 79 13.5 117s22.667 74.5 41 109.5s44.5 63.167 78.5 84.5s73.333 32 118 32c55.333 0 101.333 -19 138 -57l19 47h129
c-14 -63.333 -22.667 -108 -26 -134l-56 -403c-18.667 -138 -100 -207 -244 -207c-45.333 0 -88.5 6 -129.5 18s-70.5 24.333 -88.5 37l47 93c12 -8.66699 33.333 -18 64 -28s61.334 -15 92.001 -15c39.333 0 69.166 8.83301 89.499 26.5s32.833 46.5 37.5 86.5zM384 193
l27.002 185.999c-26.667 25.333 -56.334 38 -89.001 38c-30.667 0 -56 -13.667 -76 -41s-33.167 -56.166 -39.5 -86.499s-9.5 -60.5 -9.5 -90.5c0 -28.667 4.66699 -49.167 14 -61.5s23.666 -18.5 42.999 -18.5c36 0 79.333 24.667 130 74zM344.002 602.999
c-24.667 0 -43.668 6.66797 -57.001 20.001s-20 31.666 -20 54.999c0 32 9 57.167 27 75.5s43.333 27.5 76 27.5c24.667 0 43.834 -6.33301 57.501 -19s20.5 -31 20.5 -55c0 -32 -9.33301 -57.333 -28 -76s-44 -28 -76 -28z" />
    <glyph glyph-name="Gcommaaccent" unicode="&#x122;" horiz-adv-x="717" 
d="M721 269l-40.002 -4c-11.333 -0.666992 -17.333 -5.33398 -18 -14.001l-29 -215c-71.333 -32 -158.666 -48 -261.999 -48c-108.667 0 -188.167 28.333 -238.5 85s-75.5 132.334 -75.5 227.001c0 130 36.333 235.333 109 316s176.334 121 311.001 121
c39.333 0 79.333 -5 120 -15s73.667 -24.333 99 -43l-25 -189l-108 8l-3 89c0 12 -4 19 -12 21c-27.333 8.66699 -57 13 -89 13c-74 0 -132.833 -28.167 -176.5 -84.5s-65.5 -131.833 -65.5 -226.5c0 -138 58.667 -207 176 -207c38 0 67.333 3.33301 88 10
c7.33301 2 12 7.66699 14 17l19 129h-110l26 90h301zM331.998 -293l-61 18.999l34 96c2 6.66699 0.666992 10.667 -4 12l-36 13l34 98c40.667 -0.666992 71.5 -5.16699 92.5 -13.5s31.5 -25.166 31.5 -50.499c0 -19.333 -10 -45 -30 -77z" />
    <glyph glyph-name="gcommaaccent" unicode="&#x123;" horiz-adv-x="589" 
d="M366 -5l12 86l-3 2c-34 -29.333 -64.167 -51.5 -90.5 -66.5s-55.833 -22.5 -88.5 -22.5c-102 0 -153 64.667 -153 194c0 40 4.5 79 13.5 117s22.667 74.5 41 109.5s44.5 63.167 78.5 84.5s73.333 32 118 32c55.333 0 101.333 -19 138 -57l19 47h129
c-14 -63.333 -22.667 -108 -26 -134l-56 -403c-18.667 -138 -100 -207 -244 -207c-45.333 0 -88.5 6 -129.5 18s-70.5 24.333 -88.5 37l47 93c12 -8.66699 33.333 -18 64 -28s61.334 -15 92.001 -15c39.333 0 69.166 8.83301 89.499 26.5s32.833 46.5 37.5 86.5zM384 193
l27.002 185.999c-26.667 25.333 -56.334 38 -89.001 38c-30.667 0 -56 -13.667 -76 -41s-33.167 -56.166 -39.5 -86.499s-9.5 -60.5 -9.5 -90.5c0 -28.667 4.66699 -49.167 14 -61.5s23.666 -18.5 42.999 -18.5c36 0 79.333 24.667 130 74zM417.002 658.999l-33.999 -97.999
c-40.667 0.666992 -71.334 5.16699 -92.001 13.5s-31 25.166 -31 50.499c0 19.333 10 45 30 77l60 97l61 -19l-34 -96c-2 -6.66699 -1 -10.667 3 -12z" />
    <glyph glyph-name="Hcircumflex" unicode="&#x124;" horiz-adv-x="802" 
d="M749 0l-309.997 -0.00292969l11 73l62 7c6.66699 0.666992 11 2.33398 13 5.00098s3.66699 7.66699 5 15l31 216h-269l-30 -215c-1.33301 -8 -1.33301 -13.167 0 -15.5s5.33301 -3.83301 12 -4.5l65 -8l-10 -73h-310l10 73l63 7c6.66699 0.666992 11 2.33398 13 5.00098
s3.66699 7.66699 5 15l73 522c1.33301 7.33301 1 12.333 -1 15s-6.33301 4.33398 -13 5.00098l-60 7l10 75h310l-10 -75l-67 -8c-7.33301 -1.33301 -12 -3 -14 -5s-3.33301 -6.66699 -4 -14l-26 -194h268l27 194c1.33301 8 1.16602 13.167 -0.500977 15.5
s-5.83398 3.83301 -12.501 4.5l-61 7l10 75h310l-10 -75l-66 -8c-7.33301 -0.666992 -11.833 -2 -13.5 -4s-3.16699 -7 -4.5 -15l-73 -521c-1.33301 -8 -1.33301 -13.167 0 -15.5s5.66602 -3.83301 12.999 -4.5l65 -8zM666.003 822.997l-61 -56l-107 81l-129 -81l-49 56
l137 112h104z" />
    <glyph glyph-name="hcircumflex" unicode="&#x125;" horiz-adv-x="620" 
d="M583 0l-213.998 0.00195312l-2 4l19 108l30 221c4 20.667 4.33301 37.167 1 49.5s-12 18.5 -26 18.5c-30.667 0 -74.334 -23.667 -131.001 -71l-32 -229c-1.33301 -8 -1.16602 -13.167 0.500977 -15.5s6.16699 -3.83301 13.5 -4.5l50 -7l-10 -74h-273l10 75l44 6
c6.66699 1.33301 11.167 3.16602 13.5 5.49902s3.83301 7.16602 4.5 14.499l76 540c2 11.333 -1 18.333 -9 21l-50 17l11 76h204l-44 -316l3 -2l60 49.5c11.333 9 28.666 18.667 51.999 29s47 15.5 71 15.5c35.333 0 63.5 -10.667 84.5 -32s31.5 -51.333 31.5 -90
c0 -10.667 -1.33301 -28 -4 -52l-36 -256c-1.33301 -8 -1.33301 -13.167 0 -15.5s5.66602 -3.83301 12.999 -4.5l49 -7zM400.002 823.002l-61 -56l-107 81l-129 -81l-49 56l137 112h104z" />
    <glyph glyph-name="Hbar" unicode="&#x126;" horiz-adv-x="812" 
d="M754 0l-309.997 -0.00292969l11 73l62 7c6.66699 0.666992 11 2.33398 13 5.00098s3.66699 7.66699 5 15l31 216h-269l-30 -215c-1.33301 -8 -1.33301 -13.167 0 -15.5s5.33301 -3.83301 12 -4.5l65 -8l-10 -73h-310l10 73l63 7c6.66699 0.666992 11 2.33398 13 5.00098
s3.66699 7.66699 5 15l53 379h-65l14 102h65l6 41c1.33301 7.33301 1 12.333 -1 15s-6.33301 4.33398 -13 5.00098l-60 7l10 75h310l-10 -75l-67 -8c-7.33301 -1.33301 -12 -3 -14 -5s-3.33301 -6.66699 -4 -14l-6 -46h268l7 46c1.33301 8 1.16602 13.167 -0.500977 15.5
s-5.83398 3.83301 -12.501 4.5l-61 7l10 75h310l-10 -75l-66 -8c-7.33301 -0.666992 -11.833 -2 -13.5 -4s-3.16699 -7 -4.5 -15l-6 -41h68l-14 -102h-68l-53 -378c-1.33301 -8 -1.33301 -13.167 0 -15.5s5.66602 -3.83301 12.999 -4.5l65 -8zM313.003 427.997h268l9 70
h-268z" />
    <glyph glyph-name="hbar" unicode="&#x127;" horiz-adv-x="621" 
d="M257 296l-28.998 -194.995c-1.33301 -8 -1.33301 -13 0 -15s5.66602 -3.66699 12.999 -5l48 -7l-10 -74h-270l10 75l44 6c6.66699 1.33301 11.167 3.16602 13.5 5.49902s3.83301 7.16602 4.5 14.499l61 436h-61l12 83h61l3 21c2 11.333 -1 18.333 -9 21l-50 17l11 76h204
l-19 -135h165l-12 -83h-164l-18 -132l3 -2c27.333 23.333 47.333 39.833 60 49.5s30.5 19.5 53.5 29.5s46.167 15 69.5 15c77.333 0 116 -44 116 -132c0 -14 -1 -28 -3 -42l-33 -222c-1.33301 -8 -1.33301 -13.167 0 -15.5s5.66602 -3.83301 12.999 -4.5l49 -7l-10 -74h-214
l-2 6l46 293c4.66699 15.333 5 30.666 1 45.999s-14 22.666 -30 21.999c-34 -0.666992 -76.333 -24.334 -127 -71.001z" />
    <glyph glyph-name="Itilde" unicode="&#x128;" horiz-adv-x="382" 
d="M340 0l-329 -0.000976562l8 73l73 7c6.66699 0.666992 11 2.16699 13 4.5s3.66699 7.5 5 15.5l74 522c1.33301 7.33301 1 12.333 -1 15s-6.33301 4.33398 -13 5.00098l-70 7l10 75h330l-11 -75l-76 -8c-7.33301 -0.666992 -11.833 -2 -13.5 -4s-3.16699 -7 -4.5 -15
l-73 -521c-1.33301 -8 -1.33301 -13.167 0 -15.5s5.33301 -3.83301 12 -4.5l75 -8zM468 881.999l-27.999 -41c-15.333 -22 -28.666 -37.5 -39.999 -46.5s-24.333 -13.5 -39 -13.5c-18 0 -44.667 4.66699 -80 14l-75 20c-6.66699 2 -12.334 0.666992 -17.001 -4l-35 -32
l-58 39l36 52c20.667 31.333 45.667 47 75 47c21.333 0 53.666 -5.66699 96.999 -17c34.667 -9.33301 55 -14 61 -14c6.66699 0 11.667 2 15 6l27 29z" />
    <glyph glyph-name="itilde" unicode="&#x129;" horiz-adv-x="318" 
d="M372 677l-28.999 -41.002c-14.667 -21.333 -27.5 -36.666 -38.5 -45.999s-23.5 -14 -37.5 -14s-36 5.33301 -66 16l-27.5 8.5l-29.5 9.5c-8 2.66699 -14 4.33398 -18 5.00098c-5.33301 1.33301 -11 -1 -17 -7l-35 -32l-54 37l37 51c23.333 33.333 47.666 50 72.999 50
c12 0 29.333 -4 52 -12c45.333 -16 73.333 -24.667 84 -26c4 0 8.66699 2 14 6l32 32zM280.001 -0.00195312h-216.001l-2 5l24 135l37 267c2 11.333 -1.33301 18.333 -10 21l-49 17l10 76h213l-59 -420c-1.33301 -8 -1.16602 -13.167 0.500977 -15.5
s6.16699 -3.83301 13.5 -4.5l48 -7z" />
    <glyph glyph-name="Imacron" unicode="&#x12a;" horiz-adv-x="382" 
d="M340 0l-329 -0.000976562l8 73l73 7c6.66699 0.666992 11 2.16699 13 4.5s3.66699 7.5 5 15.5l74 522c1.33301 7.33301 1 12.333 -1 15s-6.33301 4.33398 -13 5.00098l-70 7l10 75h330l-11 -75l-76 -8c-7.33301 -0.666992 -11.833 -2 -13.5 -4s-3.16699 -7 -4.5 -15
l-73 -521c-1.33301 -8 -1.33301 -13.167 0 -15.5s5.33301 -3.83301 12 -4.5l75 -8zM445 784.999h-317l13 100h317z" />
    <glyph glyph-name="imacron" unicode="&#x12b;" horiz-adv-x="318" 
d="M343 596h-291l14 100h291zM280 0h-216.001l-2 5l24 135l37 267c2 11.333 -1.33301 18.333 -10 21l-49 17l10 76h213l-59 -420c-1.33301 -8 -1.16602 -13.167 0.500977 -15.5s6.16699 -3.83301 13.5 -4.5l48 -7z" />
    <glyph glyph-name="Ibreve" unicode="&#x12c;" horiz-adv-x="382" 
d="M340 0l-329 -0.000976562l8 73l73 7c6.66699 0.666992 11 2.16699 13 4.5s3.66699 7.5 5 15.5l74 522c1.33301 7.33301 1 12.333 -1 15s-6.33301 4.33398 -13 5.00098l-70 7l10 75h330l-11 -75l-76 -8c-7.33301 -0.666992 -11.833 -2 -13.5 -4s-3.16699 -7 -4.5 -15
l-73 -521c-1.33301 -8 -1.33301 -13.167 0 -15.5s5.33301 -3.83301 12 -4.5l75 -8zM393 940.999l74 -28c-34 -87.333 -94.667 -131 -182 -131c-92.667 0 -143.667 43.667 -153 131l78 27c10 -45.333 37.333 -68 82 -68c43.333 0 77 23 101 69z" />
    <glyph glyph-name="ibreve" unicode="&#x12d;" horiz-adv-x="318" 
d="M303 734l74.001 -28c-33.333 -91.333 -93 -137 -179 -137c-88 0 -136.333 45.667 -145 137l78 28c9.33301 -50 34.666 -75 75.999 -75c40 0 72 25 96 75zM280.001 0h-216.001l-2 5l24 135l37 267c2 11.333 -1.33301 18.333 -10 21l-49 17l10 76h213l-59 -420
c-1.33301 -8 -1.16602 -13.167 0.500977 -15.5s6.16699 -3.83301 13.5 -4.5l48 -7z" />
    <glyph glyph-name="Iogonek" unicode="&#x12e;" horiz-adv-x="382" 
d="M235 -133l17.001 -74.001c-40.667 -18 -81.334 -27 -122.001 -27c-63.333 0 -95 24.667 -95 74c0 54 38 107.333 114 160h-138l8 73l73 7c6.66699 0.666992 11 2.16699 13 4.5s3.66699 7.5 5 15.5l74 522c1.33301 7.33301 1 12.333 -1 15s-6.33301 4.33398 -13 5.00098
l-70 7l10 75h330l-11 -75l-76 -8c-7.33301 -0.666992 -11.833 -2 -13.5 -4s-3.16699 -7 -4.5 -15l-73 -521c-1.33301 -8 -1.33301 -13.167 0 -15.5s5.33301 -3.83301 12 -4.5l75 -8l-9 -73h-92c-61.333 -47.333 -92 -87 -92 -119c0 -16 8.33301 -24 25 -24
c14 0 32 3.33301 54 10z" />
    <glyph glyph-name="iogonek" unicode="&#x12f;" horiz-adv-x="318" 
d="M240 -133l17 -74c-40.667 -18 -81.334 -27 -122.001 -27c-63.333 0 -95 24.667 -95 74c0 54 38 107.333 114 160h-90l-2 5l24 135l37 267c2 11.333 -1.33301 18.333 -10 21l-49 17l10 76h213l-59 -420c-1.33301 -8 -1.16602 -13.167 0.500977 -15.5
s6.16699 -3.83301 13.5 -4.5l48 -7l-10 -74c-30 -16 -57.333 -35.333 -82 -58s-37 -43 -37 -61c0 -16 8.33301 -24 25 -24c14 0 32 3.33301 54 10zM210 601c-24.667 0 -43.668 6.66797 -57.001 20.001s-20 31.666 -20 54.999c0 32 9 57.167 27 75.5s43.333 27.5 76 27.5
c24.667 0 43.834 -6.33301 57.501 -19s20.5 -31 20.5 -55c0 -32 -9.33301 -57.333 -28 -76s-44 -28 -76 -28z" />
    <glyph glyph-name="Idotaccent" unicode="&#x130;" horiz-adv-x="382" 
d="M340 0l-329 -0.000976562l8 73l73 7c6.66699 0.666992 11 2.16699 13 4.5s3.66699 7.5 5 15.5l74 522c1.33301 7.33301 1 12.333 -1 15s-6.33301 4.33398 -13 5.00098l-70 7l10 75h330l-11 -75l-76 -8c-7.33301 -0.666992 -11.833 -2 -13.5 -4s-3.16699 -7 -4.5 -15
l-73 -521c-1.33301 -8 -1.33301 -13.167 0 -15.5s5.33301 -3.83301 12 -4.5l75 -8zM389 884.999c0 -31.333 -9.50098 -56.499 -28.501 -75.499s-44.5 -28.5 -76.5 -28.5c-25.333 0 -45 6.66699 -59 20s-21 31.666 -21 54.999c0 32 9.33301 57.167 28 75.5
s44.334 27.5 77.001 27.5c25.333 0 45 -6.33301 59 -19s21 -31 21 -55z" />
    <glyph glyph-name="dotlessi" unicode="&#x131;" horiz-adv-x="318" 
d="M280 0h-216.001l-2 5l24 135l37 267c2 11.333 -1.33301 18.333 -10 21l-49 17l10 76h213l-59 -420c-1.33301 -8 -1.16602 -13.167 0.500977 -15.5s6.16699 -3.83301 13.5 -4.5l48 -7z" />
    <glyph glyph-name="IJ" unicode="&#x132;" horiz-adv-x="882" 
d="M340 0l-329 -0.000976562l8 73l73 7c6.66699 0.666992 11 2.16699 13 4.5s3.66699 7.5 5 15.5l74 522c1.33301 7.33301 1 12.333 -1 15s-6.33301 4.33398 -13 5.00098l-70 7l10 75h330l-11 -75l-76 -8c-7.33301 -0.666992 -11.833 -2 -13.5 -4s-3.16699 -7 -4.5 -15
l-73 -521c-1.33301 -8 -1.33301 -13.167 0 -15.5s5.33301 -3.83301 12 -4.5l75 -8zM636 163.999l63.998 459c2 12 -2.66699 18.333 -14 19l-87 7l10 75h337l-11 -75l-67 -8c-4.66699 -0.666992 -8 -1.5 -10 -2.5s-3.5 -2.5 -4.5 -4.5s-1.83301 -5.66699 -2.5 -11l-65 -460
c-8 -60 -28.333 -104.167 -61 -132.5s-81.667 -42.5 -147 -42.5c-37.333 0 -73.166 4 -107.499 12s-58.166 17 -71.499 27l25 178l106 -8l1 -71c0 -8 2.33301 -12.667 7 -14c10.667 -4 24.667 -6 42 -6c18 0 31 4.33301 39 13s13.667 23.667 17 45z" />
    <glyph glyph-name="ij" unicode="&#x133;" horiz-adv-x="633" 
d="M210 601c-24.667 0 -43.668 6.66797 -57.001 20.001s-20 31.666 -20 54.999c0 32 9 57.167 27 75.5s43.333 27.5 76 27.5c24.667 0 43.834 -6.33301 57.501 -19s20.5 -31 20.5 -55c0 -32 -9.33301 -57.333 -28 -76s-44 -28 -76 -28zM279.999 0.000976562h-216.001l-2 5
l24 135l37 267c2 11.333 -1.33301 18.333 -10 21l-49 17l10 76h213l-59 -420c-1.33301 -8 -1.16602 -13.167 0.500977 -15.5s6.16699 -3.83301 13.5 -4.5l48 -7zM379.998 -27.999l61.998 435c0.666992 10.667 -2.66602 17.667 -9.99902 21l-51 17l10 76h213l-79 -574
c-8 -59.333 -28.167 -102.5 -60.5 -129.5s-76.833 -40.5 -133.5 -40.5c-35.333 0 -67.5 5.83301 -96.5 17.5s-48.833 22.834 -59.5 33.501l51 83c26.667 -17.333 54.334 -26 83.001 -26c20.667 0 36.5 6.16699 47.5 18.5s18.833 35.166 23.5 68.499zM527.996 601.001
c-24.667 0 -43.833 6.66797 -57.5 20.001s-20.5 31.666 -20.5 54.999c0 32 9.16699 57.167 27.5 75.5s43.5 27.5 75.5 27.5c25.333 0 44.833 -6.33301 58.5 -19s20.5 -31 20.5 -55c0 -31.333 -9.33301 -56.5 -28 -75.5s-44 -28.5 -76 -28.5z" />
    <glyph glyph-name="Jcircumflex" unicode="&#x134;" 
d="M254 164l63.998 459c2 12 -2.66699 18.333 -14 19l-87 7l10 75h337l-11 -75l-67 -8c-4.66699 -0.666992 -8 -1.5 -10 -2.5s-3.5 -2.5 -4.5 -4.5s-1.83301 -5.66699 -2.5 -11l-65 -460c-8 -60 -28.333 -104.167 -61 -132.5s-81.667 -42.5 -147 -42.5
c-37.333 0 -73.166 4 -107.499 12s-58.166 17 -71.499 27l25 178l106 -8l1 -71c0 -8 2.33301 -12.667 7 -14c10.667 -4 24.667 -6 42 -6c18 0 31 4.33301 39 13s13.667 23.667 17 45zM586.998 823l-61 -56l-107 81l-129 -81l-49 56l137 112h104z" />
    <glyph glyph-name="jcircumflex" unicode="&#x135;" horiz-adv-x="315" 
d="M374 618l-65 -52l-101 93l-129 -93l-54 52l140 129h104zM72 -28l61.998 435c0.666992 10.667 -2.66602 17.667 -9.99902 21l-52 17l11 76h213l-79 -574c-8 -59.333 -28.167 -102.5 -60.5 -129.5s-76.833 -40.5 -133.5 -40.5c-35.333 0 -67.5 5.83301 -96.5 17.5
s-48.833 22.834 -59.5 33.501l51 83c26.667 -17.333 54.334 -26 83.001 -26c20.667 0 36.5 6.16699 47.5 18.5s18.833 35.166 23.5 68.499z" />
    <glyph glyph-name="Kcommaaccent" unicode="&#x136;" horiz-adv-x="735" 
d="M710 0h-203.998l-7 5l-35 84l-102 209l-85 -88l-16 -108c-1.33301 -8 -1.33301 -13.167 0 -15.5s5.33301 -3.83301 12 -4.5l66 -8l-10 -74h-310l10 74l62 7c7.33301 0.666992 12.166 2.16699 14.499 4.5s3.83301 7.5 4.5 15.5l73 522c2 12 -2.33301 18.667 -13 20l-60 7
l9 74h310l-9 -74l-68 -8c-7.33301 -1.33301 -12 -3 -14 -5s-3.33301 -6.66699 -4 -14l-36 -254l269 272l-59 8l10 75h257l-10 -75l-42 -7c-12.667 -2 -23.334 -7.66699 -32.001 -17l-210 -213l153 -309c5.33301 -10.667 14.333 -17 27 -19l59 -10zM333.002 -293l-61 18.999
l34 96c2 6.66699 0.666992 10.667 -4 12l-36 13l34 98c40.667 -0.666992 71.5 -5.16699 92.5 -13.5s31.5 -25.166 31.5 -50.499c0 -19.333 -10 -45 -30 -77z" />
    <glyph glyph-name="kcommaaccent" unicode="&#x137;" horiz-adv-x="608" 
d="M583 0l-187.998 0.00195312l-3 2l-33 110l-53 144l-63 -60l-14 -95c-1.33301 -8 -1.33301 -13.167 0 -15.5s5.66602 -3.83301 12.999 -4.5l50 -7l-10 -74h-273l9 75l46 6c6.66699 1.33301 11.167 3.16602 13.5 5.49902s3.83301 7.16602 4.5 14.499l75 540
c2 10.667 -1.33301 17.667 -10 21l-50 17l11 76h213l-59 -425l154 143c25.333 23.333 47.833 38.833 67.5 46.5s41.5 11.5 65.5 11.5c14.667 0 34 -2 58 -6l-11 -87c-36.667 2 -70.334 -11.333 -101.001 -40l-60 -56l87 -244c4 -10 13.333 -16 28 -18l44 -7z
M274.002 -292.998l-61 18.999l34 96c2 6.66699 0.666992 10.667 -4 12l-36 13l34 98c40.667 -0.666992 71.5 -5.16699 92.5 -13.5s31.5 -25.166 31.5 -50.499c0 -19.333 -10 -45 -30 -77z" />
    <glyph glyph-name="kgreenlandic" unicode="&#x138;" horiz-adv-x="608" 
d="M583 0l-187.998 0.00195312l-3 2l-33 110l-53 144l-63 -60l-14 -95c-1.33301 -8 -1.33301 -13.167 0 -15.5s5.66602 -3.83301 12.999 -4.5l50 -7l-10 -74h-273l9 75l46 6c6.66699 1.33301 11.167 3.16602 13.5 5.49902s3.83301 7.16602 4.5 14.499l43 306
c2 10.667 -1.33301 17.667 -10 21l-50 17l11 76h213l-27 -191l154 143c25.333 23.333 47.833 38.833 67.5 46.5s41.5 11.5 65.5 11.5c14.667 0 34 -2 58 -6l-11 -87c-36.667 2 -70.334 -11.333 -101.001 -40l-60 -56l87 -244c4 -10 13.333 -16 28 -18l44 -7z" />
    <glyph glyph-name="Lacute" unicode="&#x139;" horiz-adv-x="607" 
d="M562 0h-542.997l10 74l62 7c7.33301 1.33301 12.166 3.16602 14.499 5.49902s3.83301 7.16602 4.5 14.499l73 522c1.33301 7.33301 1.16602 12.333 -0.500977 15s-5.83398 4.33398 -12.501 5.00098l-60 7l8 74h327l-10 -74l-83 -8
c-6.66699 -0.666992 -11 -2.16699 -13 -4.5s-3.66699 -7.16602 -5 -14.499l-72 -516h176c9.33301 0 15.333 3.66699 18 11l29 100h107zM418.003 852l-225 -85l-32 71l212 117z" />
    <glyph glyph-name="lacute" unicode="&#x13a;" horiz-adv-x="318" 
d="M279 0h-215.999l-3 5l24 135l71 501c2 11.333 -1.33301 18.333 -10 21l-50 17l11 76h213l-92 -654c-1.33301 -8 -1.33301 -13.167 0 -15.5s5.66602 -3.83301 12.999 -4.5l48 -7zM364.001 872l-225 -85l-32 71l212 117z" />
    <glyph glyph-name="Lcommaaccent" unicode="&#x13b;" horiz-adv-x="607" 
d="M562 0h-542.997l10 74l62 7c7.33301 1.33301 12.166 3.16602 14.499 5.49902s3.83301 7.16602 4.5 14.499l73 522c1.33301 7.33301 1.16602 12.333 -0.500977 15s-5.83398 4.33398 -12.501 5.00098l-60 7l8 74h327l-10 -74l-83 -8
c-6.66699 -0.666992 -11 -2.16699 -13 -4.5s-3.66699 -7.16602 -5 -14.499l-72 -516h176c9.33301 0 15.333 3.66699 18 11l29 100h107zM259.003 -293l-61 18.999l34 96c2 6.66699 0.666992 10.667 -4 12l-36 13l34 98c40.667 -0.666992 71.5 -5.16699 92.5 -13.5
s31.5 -25.166 31.5 -50.499c0 -19.333 -10 -45 -30 -77z" />
    <glyph glyph-name="lcommaaccent" unicode="&#x13c;" horiz-adv-x="318" 
d="M279 0h-215.999l-3 5l24 135l71 501c2 11.333 -1.33301 18.333 -10 21l-50 17l11 76h213l-92 -654c-1.33301 -8 -1.33301 -13.167 0 -15.5s5.66602 -3.83301 12.999 -4.5l48 -7zM136.001 -293l-61 18.999l34 96c2 6.66699 0.666992 10.667 -4 12l-36 13l34 98
c40.667 -0.666992 71.5 -5.16699 92.5 -13.5s31.5 -25.166 31.5 -50.499c0 -19.333 -10 -45 -30 -77z" />
    <glyph glyph-name="Lcaron" unicode="&#x13d;" horiz-adv-x="607" 
d="M562 0h-542.997l10 74l62 7c7.33301 1.33301 12.166 3.16602 14.499 5.49902s3.83301 7.16602 4.5 14.499l73 522c1.33301 7.33301 1.16602 12.333 -0.500977 15s-5.83398 4.33398 -12.501 5.00098l-60 7l8 74h327l-10 -74l-83 -8
c-6.66699 -0.666992 -11 -2.16699 -13 -4.5s-3.66699 -7.16602 -5 -14.499l-72 -516h176c9.33301 0 15.333 3.66699 18 11l29 100h107zM542.003 500l-69 29c25.333 56 38 100.667 38 134c0 11.333 -3 27 -9 47l98 34c18.667 -20 28 -38 28 -54
c0 -18 -4.66699 -37.667 -14 -59c-9.33301 -23.333 -33.333 -67 -72 -131z" />
    <glyph glyph-name="lcaron" unicode="&#x13e;" horiz-adv-x="428" 
d="M279 0h-215.999l-3 5l24 135l71 501c2 11.333 -1.33301 18.333 -10 21l-50 17l11 76h213l-92 -654c-1.33301 -8 -1.33301 -13.167 0 -15.5s5.66602 -3.83301 12.999 -4.5l48 -7zM399.001 527l-69 29c25.333 56 38 100.667 38 134c0 11.333 -3 27 -9 47l98 34
c18.667 -20 28 -38 28 -54c0 -18 -4.66699 -37.667 -14 -59c-9.33301 -23.333 -33.333 -67 -72 -131z" />
    <glyph glyph-name="Ldot" unicode="&#x13f;" horiz-adv-x="607" 
d="M562 0h-542.997l10 74l62 7c7.33301 1.33301 12.166 3.16602 14.499 5.49902s3.83301 7.16602 4.5 14.499l73 522c1.33301 7.33301 1.16602 12.333 -0.500977 15s-5.83398 4.33398 -12.501 5.00098l-60 7l8 74h327l-10 -74l-83 -8
c-6.66699 -0.666992 -11 -2.16699 -13 -4.5s-3.66699 -7.16602 -5 -14.499l-72 -516h176c9.33301 0 15.333 3.66699 18 11l29 100h107zM615.003 417c0 -30 -9 -54.001 -27 -72.001s-42.667 -27 -74 -27c-24 0 -42.667 6.33301 -56 19s-20 30.334 -20 53.001
c0 30.667 8.83301 54.667 26.5 72s42.167 26 73.5 26c24.667 0 43.667 -6.16699 57 -18.5s20 -29.833 20 -52.5z" />
    <glyph glyph-name="ldot" unicode="&#x140;" horiz-adv-x="425" 
d="M279 0h-215.999l-3 5l24 135l71 501c2 11.333 -1.33301 18.333 -10 21l-50 17l11 76h213l-92 -654c-1.33301 -8 -1.33301 -13.167 0 -15.5s5.66602 -3.83301 12.999 -4.5l48 -7zM391.001 312c-23.333 0 -41.332 6.16699 -53.999 18.5s-19 29.833 -19 52.5
c0 30 8.66699 53.833 26 71.5s41.333 26.5 72 26.5c23.333 0 41.5 -6.16699 54.5 -18.5s19.5 -29.833 19.5 -52.5c0 -30 -8.83301 -53.833 -26.5 -71.5s-41.834 -26.5 -72.501 -26.5z" />
    <glyph glyph-name="Lslash" unicode="&#x141;" horiz-adv-x="597" 
d="M562 0h-542.997l10 74l62 7c7.33301 1.33301 12.166 3.16602 14.499 5.49902s3.83301 7.16602 4.5 14.499l24 175l-95 -36l16 111l95 37l33 235c1.33301 7.33301 1.16602 12.333 -0.500977 15s-5.83398 4.33398 -12.501 5.00098l-60 7l8 74h327l-10 -74l-83 -8
c-6.66699 -0.666992 -11 -2.16699 -13 -4.5s-3.66699 -7.16602 -5 -14.499l-27 -189l193 75l-16 -113l-192 -74l-30 -215h176c9.33301 0 15.333 3.66699 18 11l29 100h107z" />
    <glyph glyph-name="lslash" unicode="&#x142;" horiz-adv-x="324" 
d="M279 0h-215.999l-3 5l24 135l25 176l-72 -30l15 112l73 30l30 213c2 11.333 -1.33301 18.333 -10 21l-50 17l11 76h213l-40 -284l77 32l-16 -112l-77 -32l-36 -258c-1.33301 -8 -1.33301 -13.167 0 -15.5s5.66602 -3.83301 12.999 -4.5l48 -7z" />
    <glyph glyph-name="Nacute" unicode="&#x143;" horiz-adv-x="812" 
d="M682 0h-159.997l-240 525l-59 -424c-1.33301 -8 -1.16602 -13.167 0.500977 -15.5s5.83398 -3.83301 12.501 -4.5l65 -8l-9 -73h-273l9 73l63 7c7.33301 1.33301 12.166 3.16602 14.499 5.49902s3.83301 7.16602 4.5 14.499l73 523
c1.33301 8 1.16602 13.167 -0.500977 15.5s-5.83398 3.83301 -12.501 4.5l-60 7l8 74h243l236 -526l60 424c1.33301 7.33301 1.16602 12.333 -0.500977 15s-5.83398 4.33398 -12.501 5.00098l-61 7l9 75h272l-10 -75l-67 -8c-4.66699 -0.666992 -8 -1.5 -10 -2.5
s-3.5 -2.66699 -4.5 -5s-1.83301 -6.16602 -2.5 -11.499zM645.003 852l-225 -85l-32 71l212 117z" />
    <glyph glyph-name="nacute" unicode="&#x144;" horiz-adv-x="620" 
d="M584 0h-216.001l-2 3l22 122l29 208c4 20.667 4.16699 37.334 0.5 50.001s-12.5 19 -26.5 19c-32 0 -75.333 -24 -130 -72l-31 -229c-1.33301 -8 -1.33301 -13.167 0 -15.5s5.66602 -3.83301 12.999 -4.5l50 -7l-10 -74h-274l10 75l44 6
c6.66699 1.33301 11.167 3.16602 13.5 5.49902s3.83301 7.16602 4.5 14.499l42 305c2 11.333 -1 18.333 -9 21l-49 18l11 76h198l-11 -82l3 -1c24 20.667 43.333 36.334 58 47.001s33.834 21 57.501 31s47.834 15 72.501 15c76 0 115.333 -39.667 118 -119
c0 -20 -1.33301 -38.333 -4 -55l-36 -256c-1.33301 -8 -1.33301 -13.167 0 -15.5s5.33301 -3.83301 12 -4.5l50 -7zM500.999 697l-186 -136l-55 58l164 163z" />
    <glyph glyph-name="Ncommaaccent" unicode="&#x145;" horiz-adv-x="812" 
d="M682 0h-159.997l-240 525l-59 -424c-1.33301 -8 -1.16602 -13.167 0.500977 -15.5s5.83398 -3.83301 12.501 -4.5l65 -8l-9 -73h-273l9 73l63 7c7.33301 1.33301 12.166 3.16602 14.499 5.49902s3.83301 7.16602 4.5 14.499l73 523
c1.33301 8 1.16602 13.167 -0.500977 15.5s-5.83398 3.83301 -12.501 4.5l-60 7l8 74h243l236 -526l60 424c1.33301 7.33301 1.16602 12.333 -0.500977 15s-5.83398 4.33398 -12.501 5.00098l-61 7l9 75h272l-10 -75l-67 -8c-4.66699 -0.666992 -8 -1.5 -10 -2.5
s-3.5 -2.66699 -4.5 -5s-1.83301 -6.16602 -2.5 -11.499zM360.003 -293l-61 18.999l34 96c3.33301 6 2.33301 10 -3 12l-37 13l34 98c40.667 -0.666992 71.5 -5.16699 92.5 -13.5s31.5 -25.166 31.5 -50.499c0 -19.333 -10 -45 -30 -77z" />
    <glyph glyph-name="ncommaaccent" unicode="&#x146;" horiz-adv-x="620" 
d="M584 0h-216.001l-2 3l22 122l29 208c4 20.667 4.16699 37.334 0.5 50.001s-12.5 19 -26.5 19c-32 0 -75.333 -24 -130 -72l-31 -229c-1.33301 -8 -1.33301 -13.167 0 -15.5s5.66602 -3.83301 12.999 -4.5l50 -7l-10 -74h-274l10 75l44 6
c6.66699 1.33301 11.167 3.16602 13.5 5.49902s3.83301 7.16602 4.5 14.499l42 305c2 11.333 -1 18.333 -9 21l-49 18l11 76h198l-11 -82l3 -1c24 20.667 43.333 36.334 58 47.001s33.834 21 57.501 31s47.834 15 72.501 15c76 0 115.333 -39.667 118 -119
c0 -20 -1.33301 -38.333 -4 -55l-36 -256c-1.33301 -8 -1.33301 -13.167 0 -15.5s5.33301 -3.83301 12 -4.5l50 -7zM273.999 -293l-61 18.999l34 96c2 6.66699 0.666992 10.667 -4 12l-36 13l34 98c40.667 -0.666992 71.5 -5.16699 92.5 -13.5s31.5 -25.166 31.5 -50.499
c0 -19.333 -10 -45 -30 -77z" />
    <glyph glyph-name="Ncaron" unicode="&#x147;" horiz-adv-x="812" 
d="M682 0h-159.997l-240 525l-59 -424c-1.33301 -8 -1.16602 -13.167 0.500977 -15.5s5.83398 -3.83301 12.501 -4.5l65 -8l-9 -73h-273l9 73l63 7c7.33301 1.33301 12.166 3.16602 14.499 5.49902s3.83301 7.16602 4.5 14.499l73 523
c1.33301 8 1.16602 13.167 -0.500977 15.5s-5.83398 3.83301 -12.501 4.5l-60 7l8 74h243l236 -526l60 424c1.33301 7.33301 1.16602 12.333 -0.500977 15s-5.83398 4.33398 -12.501 5.00098l-61 7l9 75h272l-10 -75l-67 -8c-4.66699 -0.666992 -8 -1.5 -10 -2.5
s-3.5 -2.66699 -4.5 -5s-1.83301 -6.16602 -2.5 -11.499zM675.003 890l-136 -111h-104l-106 111l60 57l107 -81l130 81z" />
    <glyph glyph-name="ncaron" unicode="&#x148;" horiz-adv-x="620" 
d="M584 0h-216.001l-2 3l22 122l29 208c4 20.667 4.16699 37.334 0.5 50.001s-12.5 19 -26.5 19c-32 0 -75.333 -24 -130 -72l-31 -229c-1.33301 -8 -1.33301 -13.167 0 -15.5s5.66602 -3.83301 12.999 -4.5l50 -7l-10 -74h-274l10 75l44 6
c6.66699 1.33301 11.167 3.16602 13.5 5.49902s3.83301 7.16602 4.5 14.499l42 305c2 11.333 -1 18.333 -9 21l-49 18l11 76h198l-11 -82l3 -1c24 20.667 43.333 36.334 58 47.001s33.834 21 57.501 31s47.834 15 72.501 15c76 0 115.333 -39.667 118 -119
c0 -20 -1.33301 -38.333 -4 -55l-36 -256c-1.33301 -8 -1.33301 -13.167 0 -15.5s5.33301 -3.83301 12 -4.5l50 -7zM553.999 711l-141 -129h-104l-104 129l64 52l102 -93l128 93z" />
    <glyph glyph-name="napostrophe" unicode="&#x149;" horiz-adv-x="638" 
d="M602 0h-216.001l-2 3l22 122l29 208c4 20.667 4.16699 37.334 0.5 50.001s-12.5 19 -26.5 19c-32 0 -75.333 -24 -130 -72l-31 -229c-1.33301 -8 -1.33301 -13.167 0 -15.5s5.66602 -3.83301 12.999 -4.5l50 -7l-10 -74h-274l10 75l44 6
c6.66699 1.33301 11.167 3.16602 13.5 5.49902s3.83301 7.16602 4.5 14.499l42 305c2 11.333 -1 18.333 -9 21l-49 18l11 76h198l-11 -82l3 -1c24 20.667 43.333 36.334 58 47.001s33.834 21 57.501 31s47.834 15 72.501 15c76 0 115.333 -39.667 118 -119
c0 -20 -1.33301 -38.333 -4 -55l-36 -256c-1.33301 -8 -1.33301 -13.167 0 -15.5s5.33301 -3.83301 12 -4.5l50 -7zM45.999 498l-49 19.001l30 76c2 5.33301 1 8.66602 -3 9.99902l-30 10l27 77c31.333 0 55.5 -3.33301 72.5 -10s25.5 -20 25.5 -40
c0 -17.333 -7.33301 -37.333 -22 -60z" />
    <glyph glyph-name="Eng" unicode="&#x14a;" horiz-adv-x="812" 
d="M679 -21c-3.33301 -22 -6.66797 -39.3311 -10.001 -51.998c-10 -51.333 -33.167 -89.166 -69.5 -113.499s-81.5 -36.5 -135.5 -36.5c-36.667 0 -71.5 6.16699 -104.5 18.5s-54.5 23.5 -64.5 33.5l51 83c8.66699 -6 22.5 -12 41.5 -18s36.833 -9 53.5 -9
c51.333 0 81 29 89 87l4 28l-252 525l-59 -424c-1.33301 -8 -1.16602 -13.167 0.500977 -15.5s5.83398 -3.83301 12.501 -4.5l65 -8l-9 -73h-273l9 73l63 7c10.667 0.666992 17 8 19 22l73 521c1.33301 8 1.16602 13.167 -0.500977 15.5s-5.83398 3.83301 -12.501 4.5l-60 7
l8 74h243l238 -513l58 411c0.666992 7.33301 0.333984 12.166 -0.999023 14.499s-5.33301 4.16602 -12 5.49902l-61 7l9 75h272l-10 -75l-67 -8c-10 -0.666992 -16 -7.33398 -18 -20.001z" />
    <glyph glyph-name="eng" unicode="&#x14b;" horiz-adv-x="619" 
d="M366 -28l49.998 361.002c2 12 3 22.667 3 32c0 24.667 -10 37 -30 37c-30.667 0 -73.667 -24 -129 -72l-31 -229c-1.33301 -5.33301 -1.5 -9.33301 -0.5 -12s2.33301 -4.33398 4 -5.00098s5.16699 -1.66699 10.5 -3l47 -7l-10 -74h-271l10 75l44 6
c6.66699 1.33301 11.167 3.16602 13.5 5.49902s3.83301 7.16602 4.5 14.499l42 305c2 12 -1 19 -9 21l-49 18l11 76h198l-11 -82l3 -1c24 20.667 43.333 36.334 58 47.001s33.834 21 57.501 31s47.834 15 72.501 15c76 0 115.333 -39.667 118 -119
c0 -20 -1.33301 -38.333 -4 -55l-57 -410c-8.66699 -54 -26 -94.5 -52 -121.5s-62.333 -42.5 -109 -46.5c-16 -0.666992 -32.333 -0.666992 -49 0c-32.667 1.33301 -62 7.5 -88 18.5s-43.333 21.167 -52 30.5l51 83c26.667 -17.333 54 -26 82 -26c21.333 0 37.5 6 48.5 18
s18.833 35 23.5 69z" />
    <glyph glyph-name="Omacron" unicode="&#x14c;" horiz-adv-x="757" 
d="M352 -12c-100.667 0 -174.668 26.167 -222.001 78.5s-71 125.5 -71 219.5c0 132 35.5 240.167 106.5 324.5s171.833 126.5 302.5 126.5c98.667 0 171.834 -26.667 219.501 -80s71.5 -124 71.5 -212c0 -142.667 -35.833 -254.5 -107.5 -335.5s-171.5 -121.5 -299.5 -121.5
zM374.999 111c63.333 0 114.999 24.001 154.999 72.001s63 123.667 69 227c0 26 -0.666992 44.667 -2 56c-11.333 98.667 -60.333 148 -147 148c-49.333 0 -92 -15.333 -128 -46s-62 -68.334 -78 -113.001s-24 -93 -24 -145c0 -22.667 1 -40.667 3 -54
c12.667 -96.667 63.334 -145 152.001 -145zM632.998 785.001h-317l13 100h317z" />
    <glyph glyph-name="omacron" unicode="&#x14d;" horiz-adv-x="578" 
d="M269 -12c-76 0 -132.999 19.167 -170.999 57.5s-57 90.833 -57 157.5c0 98.667 26.667 178 80 238s127.666 90 222.999 90c78.667 0 135.5 -19.333 170.5 -58s52.5 -90 52.5 -154c0 -100.667 -25.5 -181 -76.5 -241s-124.833 -90 -221.5 -90zM281.001 93
c38 0 69 18 93 54s36 92.667 36 170c0 70.667 -27.667 106 -83 106c-38 0 -69.5 -17.5 -94.5 -52.5s-37.5 -90.833 -37.5 -167.5c0 -73.333 28.667 -110 86 -110zM516.001 599h-317l14 100h317z" />
    <glyph glyph-name="Obreve" unicode="&#x14e;" horiz-adv-x="757" 
d="M352 -12c-100.667 0 -174.668 26.167 -222.001 78.5s-71 125.5 -71 219.5c0 132 35.5 240.167 106.5 324.5s171.833 126.5 302.5 126.5c98.667 0 171.834 -26.667 219.501 -80s71.5 -124 71.5 -212c0 -142.667 -35.833 -254.5 -107.5 -335.5s-171.5 -121.5 -299.5 -121.5
zM374.999 111c63.333 0 114.999 24.001 154.999 72.001s63 123.667 69 227c0 26 -0.666992 44.667 -2 56c-11.333 98.667 -60.333 148 -147 148c-49.333 0 -92 -15.333 -128 -46s-62 -68.334 -78 -113.001s-24 -93 -24 -145c0 -22.667 1 -40.667 3 -54
c12.667 -96.667 63.334 -145 152.001 -145zM580.998 941.001l74 -28c-34 -87.333 -94.667 -131 -182 -131c-92.667 0 -143.667 43.667 -153 131l78 27c10 -45.333 37.333 -68 82 -68c43.333 0 77 23 101 69z" />
    <glyph glyph-name="obreve" unicode="&#x14f;" horiz-adv-x="578" 
d="M269 -12c-76 0 -132.999 19.167 -170.999 57.5s-57 90.833 -57 157.5c0 98.667 26.667 178 80 238s127.666 90 222.999 90c78.667 0 135.5 -19.333 170.5 -58s52.5 -90 52.5 -154c0 -100.667 -25.5 -181 -76.5 -241s-124.833 -90 -221.5 -90zM281.001 93
c38 0 69 18 93 54s36 92.667 36 170c0 70.667 -27.667 106 -83 106c-38 0 -69.5 -17.5 -94.5 -52.5s-37.5 -90.833 -37.5 -167.5c0 -73.333 28.667 -110 86 -110zM465.001 737l73.999 -28c-35.333 -91.333 -98.333 -137 -189 -137c-94 0 -145.667 45.667 -155 137l78 28
c10.667 -50 39.334 -75 86.001 -75c44 0 79.333 25 106 75z" />
    <glyph glyph-name="Ohungarumlaut" unicode="&#x150;" horiz-adv-x="757" 
d="M352 -12c-100.667 0 -174.668 26.167 -222.001 78.5s-71 125.5 -71 219.5c0 132 35.5 240.167 106.5 324.5s171.833 126.5 302.5 126.5c98.667 0 171.834 -26.667 219.501 -80s71.5 -124 71.5 -212c0 -142.667 -35.833 -254.5 -107.5 -335.5s-171.5 -121.5 -299.5 -121.5
zM374.999 111c63.333 0 114.999 24.001 154.999 72.001s63 123.667 69 227c0 26 -0.666992 44.667 -2 56c-11.333 98.667 -60.333 148 -147 148c-49.333 0 -92 -15.333 -128 -46s-62 -68.334 -78 -113.001s-24 -93 -24 -145c0 -22.667 1 -40.667 3 -54
c12.667 -96.667 63.334 -145 152.001 -145zM543.998 913.001l-176 -152l-57 53l157 174zM736.998 899.001l-189 -137l-47 51l165 164z" />
    <glyph glyph-name="ohungarumlaut" unicode="&#x151;" horiz-adv-x="578" 
d="M269 -12c-76 0 -132.999 19.167 -170.999 57.5s-57 90.833 -57 157.5c0 98.667 26.667 178 80 238s127.666 90 222.999 90c78.667 0 135.5 -19.333 170.5 -58s52.5 -90 52.5 -154c0 -100.667 -25.5 -181 -76.5 -241s-124.833 -90 -221.5 -90zM281.001 93
c38 0 69 18 93 54s36 92.667 36 170c0 70.667 -27.667 106 -83 106c-38 0 -69.5 -17.5 -94.5 -52.5s-37.5 -90.833 -37.5 -167.5c0 -73.333 28.667 -110 86 -110zM419.001 710l-179 -150l-55 51l153 174zM612.001 710l-178 -150l-56 51l155 173z" />
    <glyph glyph-name="OE" unicode="&#x152;" horiz-adv-x="1002" 
d="M944 0h-505.001c-31.333 -8 -64.666 -12 -99.999 -12c-93.333 0 -163.833 28.333 -211.5 85s-71.5 132 -71.5 226c0 128 33.167 233 99.5 315s157.833 123 274.5 123c38.667 0 73 -4.33301 103 -13h489l-28 -202l-106 5l-3 76c0 8.66699 -5.33301 13 -16 13h-215
c31.333 -48 47 -113.667 47 -197h216l-15 -111h-207c-13.333 -82.667 -43 -149.667 -89 -201h215c9.33301 0 15.333 3.66699 18 11l27 88h106zM359.999 111c62.667 0 111.167 25.1689 145.5 75.502s51.5 128.166 51.5 233.499c0 129.333 -47.333 194 -142 194
c-60.667 0 -109.5 -25.833 -146.5 -77.5s-55.5 -128.834 -55.5 -231.501c0 -129.333 49 -194 147 -194z" />
    <glyph glyph-name="oe" unicode="&#x153;" horiz-adv-x="867" 
d="M793 136l21.999 -97.998c-56.667 -26.667 -111 -42.334 -163 -47.001c-18 -2 -37.667 -2.33301 -59 -1c-34 2.66699 -63.167 11.667 -87.5 27s-42.166 34 -53.499 56c-47.333 -56.667 -113.333 -85 -198 -85c-71.333 0 -124.833 19.667 -160.5 59s-53.5 93.333 -53.5 162
c0 96 25.167 173.667 75.5 233s120.5 89 210.5 89c85.333 0 145 -29.667 179 -89c51.333 59.333 115.333 89 192 89c52.667 0 92.5 -11.5 119.5 -34.5s40.5 -55.5 40.5 -97.5c0 -34 -9.33301 -64 -28 -90s-43.834 -46.333 -75.501 -61s-64.167 -25.834 -97.5 -33.501
s-69 -13.167 -107 -16.5c2 -31.333 10.333 -55.5 25 -72.5s39.334 -25.5 74.001 -25.5c38.667 0 87 12 145 36zM278.999 93.002c40.667 0 72.667 17.833 96 53.5s35 90.5 35 164.5c0 74.667 -28 112 -84 112c-88 0 -132 -71 -132 -213c0 -78 28.333 -117 85 -117z
M554.999 295.002c110 15.333 164.999 44.667 164.999 88c0 26.667 -16 40 -48 40c-28 0 -52.667 -11.5 -74 -34.5s-35.666 -54.167 -42.999 -93.5z" />
    <glyph glyph-name="Racute" unicode="&#x154;" horiz-adv-x="673" 
d="M653 0l-206.002 0.000976562l-6 5l-55 246c-3.33301 16 -8.5 27.5 -15.5 34.5s-18.833 10.5 -35.5 10.5h-47l-27 -193c-1.33301 -8 -1.33301 -13.167 0 -15.5s5.33301 -3.83301 12 -4.5l59 -8l-9 -75h-303l9 75l63 7c6.66699 0.666992 11 2.16699 13 4.5
s3.66699 7.5 5 15.5l74 521c2 12 -2.33301 18.667 -13 20l-60 7l8 74h328c72 0 124.833 -16.5 158.5 -49.5s50.5 -75.5 50.5 -127.5c0 -100.667 -52.667 -172.334 -158 -215.001c12.667 -6.66699 22.334 -16 29.001 -28s12.334 -29.333 17.001 -52l33 -148
c2.66699 -12 11 -19 25 -21l61 -8zM302.998 400.001l45.001 0.000976562c100 0 150 42.667 150 128c0 31.333 -9.33301 53.666 -28 66.999s-48.334 20 -89.001 20h-49zM542.999 852.002l-225 -85l-32 71l212 117z" />
    <glyph glyph-name="racute" unicode="&#x155;" horiz-adv-x="470" 
d="M329 0l-320.001 -0.000976562l10 75l46 6c6.66699 0.666992 11 2.33398 13 5.00098s3.66699 7.66699 5 15l42 305c1.33301 11.333 -2 18.333 -10 21l-50 18l11 76h198l-13 -90l3 -2c47.333 68 100.333 102 159 102c30.667 0 56.334 -3 77.001 -9l-25 -182l-117 4l-3 52
c-0.666992 8 -4.33398 12 -11.001 12c-18.667 0 -44.667 -17.333 -78 -52l-35 -254c-1.33301 -8 -1.16602 -13.167 0.500977 -15.5s6.16699 -3.83301 13.5 -4.5l95 -8zM452.999 696.999l-186 -136l-55 58l164 163z" />
    <glyph glyph-name="Rcommaaccent" unicode="&#x156;" horiz-adv-x="673" 
d="M653 0l-206.002 0.000976562l-6 5l-55 246c-3.33301 16 -8.5 27.5 -15.5 34.5s-18.833 10.5 -35.5 10.5h-47l-27 -193c-1.33301 -8 -1.33301 -13.167 0 -15.5s5.33301 -3.83301 12 -4.5l59 -8l-9 -75h-303l9 75l63 7c6.66699 0.666992 11 2.16699 13 4.5
s3.66699 7.5 5 15.5l74 521c2 12 -2.33301 18.667 -13 20l-60 7l8 74h328c72 0 124.833 -16.5 158.5 -49.5s50.5 -75.5 50.5 -127.5c0 -100.667 -52.667 -172.334 -158 -215.001c12.667 -6.66699 22.334 -16 29.001 -28s12.334 -29.333 17.001 -52l33 -148
c2.66699 -12 11 -19 25 -21l61 -8zM302.998 400.001l45.001 0.000976562c100 0 150 42.667 150 128c0 31.333 -9.33301 53.666 -28 66.999s-48.334 20 -89.001 20h-49zM318.999 -292.998l-61 18.999l34 96c3.33301 6 2.33301 10 -3 12l-37 13l34 98
c40.667 -0.666992 71.5 -5.16699 92.5 -13.5s31.5 -25.166 31.5 -50.499c0 -19.333 -10 -45 -30 -77z" />
    <glyph glyph-name="rcommaaccent" unicode="&#x157;" horiz-adv-x="470" 
d="M329 0l-320.001 -0.000976562l10 75l46 6c6.66699 0.666992 11 2.33398 13 5.00098s3.66699 7.66699 5 15l42 305c1.33301 11.333 -2 18.333 -10 21l-50 18l11 76h198l-13 -90l3 -2c47.333 68 100.333 102 159 102c30.667 0 56.334 -3 77.001 -9l-25 -182l-117 4l-3 52
c-0.666992 8 -4.33398 12 -11.001 12c-18.667 0 -44.667 -17.333 -78 -52l-35 -254c-1.33301 -8 -1.16602 -13.167 0.500977 -15.5s6.16699 -3.83301 13.5 -4.5l95 -8zM129.999 -293.001l-61 18.999l34 96c2 6.66699 0.666992 10.667 -4 12l-36 13l34 98
c40.667 -0.666992 71.5 -5.16699 92.5 -13.5s31.5 -25.166 31.5 -50.499c0 -19.333 -10 -45 -30 -77z" />
    <glyph glyph-name="Rcaron" unicode="&#x158;" horiz-adv-x="673" 
d="M653 0l-206.002 0.000976562l-6 5l-55 246c-3.33301 16 -8.5 27.5 -15.5 34.5s-18.833 10.5 -35.5 10.5h-47l-27 -193c-1.33301 -8 -1.33301 -13.167 0 -15.5s5.33301 -3.83301 12 -4.5l59 -8l-9 -75h-303l9 75l63 7c6.66699 0.666992 11 2.16699 13 4.5
s3.66699 7.5 5 15.5l74 521c2 12 -2.33301 18.667 -13 20l-60 7l8 74h328c72 0 124.833 -16.5 158.5 -49.5s50.5 -75.5 50.5 -127.5c0 -100.667 -52.667 -172.334 -158 -215.001c12.667 -6.66699 22.334 -16 29.001 -28s12.334 -29.333 17.001 -52l33 -148
c2.66699 -12 11 -19 25 -21l61 -8zM302.998 400.001l45.001 0.000976562c100 0 150 42.667 150 128c0 31.333 -9.33301 53.666 -28 66.999s-48.334 20 -89.001 20h-49zM578.999 890.002l-136 -111h-104l-106 111l60 57l107 -81l130 81z" />
    <glyph glyph-name="rcaron" unicode="&#x159;" horiz-adv-x="470" 
d="M329 0l-320.001 -0.000976562l10 75l46 6c6.66699 0.666992 11 2.33398 13 5.00098s3.66699 7.66699 5 15l42 305c1.33301 11.333 -2 18.333 -10 21l-50 18l11 76h198l-13 -90l3 -2c47.333 68 100.333 102 159 102c30.667 0 56.334 -3 77.001 -9l-25 -182l-117 4l-3 52
c-0.666992 8 -4.33398 12 -11.001 12c-18.667 0 -44.667 -17.333 -78 -52l-35 -254c-1.33301 -8 -1.16602 -13.167 0.500977 -15.5s6.16699 -3.83301 13.5 -4.5l95 -8zM489.999 710.999l-141 -129h-104l-104 129l64 52l102 -93l128 93z" />
    <glyph glyph-name="Sacute" unicode="&#x15a;" horiz-adv-x="588" 
d="M577 501l-109.001 8.99902l-2 86c0 12 -4.33301 19 -13 21c-11.333 3.33301 -30.666 5 -57.999 5c-36.667 0 -67.667 -8 -93 -24s-38 -38.667 -38 -68c0 -10.667 2.5 -20.5 7.5 -29.5s10.333 -16.333 16 -22s15.334 -11.834 29.001 -18.501s24.167 -11.334 31.5 -14.001
l39 -14c20.667 -7.33301 37.5 -13.833 50.5 -19.5s28.333 -14 46 -25s31.667 -23 42 -36s19.166 -29.667 26.499 -50s11 -43.166 11 -68.499c0 -81.333 -28.333 -142.5 -85 -183.5s-129.667 -61.5 -219 -61.5c-42.667 0 -85.834 4.33301 -129.501 13s-75.167 18 -94.5 28
l27 195h109l7 -94c0.666992 -11.333 6.66699 -18.666 18 -21.999c21.333 -5.33301 47 -8 77 -8c91.333 0 137 34.667 137 104c0 26 -9.16699 45.833 -27.5 59.5s-46.166 27.167 -83.499 40.5c-58.667 20.667 -98.667 38.334 -120 53.001c-45.333 32.667 -68 80 -68 142
c0 77.333 27.667 136.333 83 177s126 61 212 61c68 0 134 -13.667 198 -41zM539.999 851.999l-225 -85l-32 71l212 117z" />
    <glyph glyph-name="sacute" unicode="&#x15b;" horiz-adv-x="478" 
d="M457 357l-104.001 5.99902l-2 52c0 8.66699 -4 14 -12 16c-13.333 3.33301 -32 5 -56 5c-50 0 -75 -16 -75 -48c0 -14.667 6.16699 -25.834 18.5 -33.501s32.5 -16.167 60.5 -25.5c21.333 -7.33301 36.5 -12.666 45.5 -15.999s22.833 -9.83301 41.5 -19.5
s32.167 -19.167 40.5 -28.5s16.333 -22.333 24 -39s11.5 -35 11.5 -55c0 -61.333 -22.333 -107.166 -67 -137.499s-101.334 -45.5 -170.001 -45.5c-42.667 0 -82.667 4 -120 12s-61 15.667 -71 23l19 145l102 -6l3 -58c0 -8 3.66699 -13.333 11 -16c18 -6 41.667 -9 71 -9
c27.333 0 48.5 4.83301 63.5 14.5s22.5 23.167 22.5 40.5c0 12.667 -4.66699 23.334 -14 32.001s-18.666 14.667 -27.999 18s-26.666 8.66602 -51.999 15.999c-22.667 6.66699 -41 13 -55 19s-29.333 14.833 -46 26.5s-29 26.667 -37 45s-12 39.833 -12 64.5
c0 58 21.667 101.833 65 131.5s98.333 44.5 165 44.5c72 0 131 -9.66699 177 -29zM439.999 696.999l-186 -136l-55 58l164 163z" />
    <glyph glyph-name="Scircumflex" unicode="&#x15c;" horiz-adv-x="588" 
d="M577 501l-109.001 8.99902l-2 86c0 12 -4.33301 19 -13 21c-11.333 3.33301 -30.666 5 -57.999 5c-36.667 0 -67.667 -8 -93 -24s-38 -38.667 -38 -68c0 -10.667 2.5 -20.5 7.5 -29.5s10.333 -16.333 16 -22s15.334 -11.834 29.001 -18.501s24.167 -11.334 31.5 -14.001
l39 -14c20.667 -7.33301 37.5 -13.833 50.5 -19.5s28.333 -14 46 -25s31.667 -23 42 -36s19.166 -29.667 26.499 -50s11 -43.166 11 -68.499c0 -81.333 -28.333 -142.5 -85 -183.5s-129.667 -61.5 -219 -61.5c-42.667 0 -85.834 4.33301 -129.501 13s-75.167 18 -94.5 28
l27 195h109l7 -94c0.666992 -11.333 6.66699 -18.666 18 -21.999c21.333 -5.33301 47 -8 77 -8c91.333 0 137 34.667 137 104c0 26 -9.16699 45.833 -27.5 59.5s-46.166 27.167 -83.499 40.5c-58.667 20.667 -98.667 38.334 -120 53.001c-45.333 32.667 -68 80 -68 142
c0 77.333 27.667 136.333 83 177s126 61 212 61c68 0 134 -13.667 198 -41zM578.999 822.999l-61 -56l-107 81l-129 -81l-49 56l137 112h104z" />
    <glyph glyph-name="scircumflex" unicode="&#x15d;" horiz-adv-x="478" 
d="M457 357l-104.001 5.99902l-2 52c0 8.66699 -4 14 -12 16c-13.333 3.33301 -32 5 -56 5c-50 0 -75 -16 -75 -48c0 -14.667 6.16699 -25.834 18.5 -33.501s32.5 -16.167 60.5 -25.5c21.333 -7.33301 36.5 -12.666 45.5 -15.999s22.833 -9.83301 41.5 -19.5
s32.167 -19.167 40.5 -28.5s16.333 -22.333 24 -39s11.5 -35 11.5 -55c0 -61.333 -22.333 -107.166 -67 -137.499s-101.334 -45.5 -170.001 -45.5c-42.667 0 -82.667 4 -120 12s-61 15.667 -71 23l19 145l102 -6l3 -58c0 -8 3.66699 -13.333 11 -16c18 -6 41.667 -9 71 -9
c27.333 0 48.5 4.83301 63.5 14.5s22.5 23.167 22.5 40.5c0 12.667 -4.66699 23.334 -14 32.001s-18.666 14.667 -27.999 18s-26.666 8.66602 -51.999 15.999c-22.667 6.66699 -41 13 -55 19s-29.333 14.833 -46 26.5s-29 26.667 -37 45s-12 39.833 -12 64.5
c0 58 21.667 101.833 65 131.5s98.333 44.5 165 44.5c72 0 131 -9.66699 177 -29zM479.999 613.999l-65 -52l-101 93l-129 -93l-54 52l140 129h104z" />
    <glyph glyph-name="Scedilla" unicode="&#x15e;" horiz-adv-x="588" 
d="M162 -248l15.999 68.999c8 -2.66699 19.667 -4 35 -4c18 0 33.333 3.83301 46 11.5s19 19.834 19 36.501c0 25.333 -20.333 38.666 -61 39.999l22 83c-40.667 1.33301 -80.5 6.16602 -119.5 14.499s-67.167 17.166 -84.5 26.499l27 195h109l7 -94
c0.666992 -11.333 6.66699 -18.666 18 -21.999c21.333 -5.33301 47 -8 77 -8c91.333 0 137 34.667 137 104c0 26 -9.16699 45.833 -27.5 59.5s-46.166 27.167 -83.499 40.5c-58.667 20.667 -98.667 38.334 -120 53.001c-45.333 32.667 -68 80 -68 142
c0 77.333 27.667 136.333 83 177s126 61 212 61c68 0 134 -13.667 198 -41l-27 -195l-109 9l-2 86c0 12 -4.33301 19 -13 21c-11.333 3.33301 -30.666 5 -57.999 5c-36.667 0 -67.667 -8 -93 -24s-38 -38.667 -38 -68c0 -10.667 2.5 -20.5 7.5 -29.5s10.333 -16.333 16 -22
s15.334 -11.834 29.001 -18.501s24.167 -11.334 31.5 -14.001l39 -14c20.667 -7.33301 37.5 -13.833 50.5 -19.5s28.333 -14 46 -25s31.667 -23 42 -36s19.166 -29.667 26.499 -50s11 -43.166 11 -68.499c0 -73.333 -22.833 -130.166 -68.5 -170.499
s-106.5 -64.166 -182.5 -71.499l-9 -36c46.667 -13.333 70 -42.333 70 -87c0 -38.667 -14.667 -69 -44 -91s-64.333 -33 -105 -33c-30.667 0 -51.334 2.66699 -62.001 8z" />
    <glyph glyph-name="scedilla" unicode="&#x15f;" horiz-adv-x="478" 
d="M102 -248l15.998 69c8 -2.66699 19.667 -4 35 -4c18 0 33.333 3.83301 46 11.5s19 19.834 19 36.501c0 25.333 -20.333 38.666 -61 39.999l23 84c-37.333 2 -71 6.66699 -101 14s-49 14 -57 20l19 145l102 -6l3 -58c0 -8 3.66699 -13.333 11 -16c18 -6 41.667 -9 71 -9
c27.333 0 48.5 4.83301 63.5 14.5s22.5 23.167 22.5 40.5c0 12.667 -4.66699 23.334 -14 32.001s-18.666 14.667 -27.999 18s-26.666 8.66602 -51.999 15.999c-22.667 6.66699 -41 13 -55 19s-29.333 14.833 -46 26.5s-29 26.667 -37 45s-12 39.833 -12 64.5
c0 58 21.667 101.833 65 131.5s98.333 44.5 165 44.5c72 0 131 -9.66699 177 -29l-20 -145l-104 6l-2 52c0 8.66699 -4 14 -12 16c-13.333 3.33301 -32 5 -56 5c-50 0 -75 -16 -75 -48c0 -14.667 6.16699 -25.834 18.5 -33.501s32.5 -16.167 60.5 -25.5
c21.333 -7.33301 36.5 -12.666 45.5 -15.999s22.833 -9.83301 41.5 -19.5s32.167 -19.167 40.5 -28.5s16.333 -22.333 24 -39s11.5 -35 11.5 -55c0 -55.333 -18.167 -98 -54.5 -128s-84.166 -47.667 -143.499 -53l-9 -35c46.667 -13.333 70 -42.333 70 -87
c0 -38.667 -14.667 -69 -44 -91s-64.333 -33 -105 -33c-30.667 0 -51.334 2.66699 -62.001 8z" />
    <glyph glyph-name="Scaron" unicode="&#x160;" horiz-adv-x="588" 
d="M577 501l-109.001 8.99902l-2 86c0 12 -4.33301 19 -13 21c-11.333 3.33301 -30.666 5 -57.999 5c-36.667 0 -67.667 -8 -93 -24s-38 -38.667 -38 -68c0 -10.667 2.5 -20.5 7.5 -29.5s10.333 -16.333 16 -22s15.334 -11.834 29.001 -18.501s24.167 -11.334 31.5 -14.001
l39 -14c20.667 -7.33301 37.5 -13.833 50.5 -19.5s28.333 -14 46 -25s31.667 -23 42 -36s19.166 -29.667 26.499 -50s11 -43.166 11 -68.499c0 -81.333 -28.333 -142.5 -85 -183.5s-129.667 -61.5 -219 -61.5c-42.667 0 -85.834 4.33301 -129.501 13s-75.167 18 -94.5 28
l27 195h109l7 -94c0.666992 -11.333 6.66699 -18.666 18 -21.999c21.333 -5.33301 47 -8 77 -8c91.333 0 137 34.667 137 104c0 26 -9.16699 45.833 -27.5 59.5s-46.166 27.167 -83.499 40.5c-58.667 20.667 -98.667 38.334 -120 53.001c-45.333 32.667 -68 80 -68 142
c0 77.333 27.667 136.333 83 177s126 61 212 61c68 0 134 -13.667 198 -41zM589.999 889.999l-136 -111h-104l-106 111l60 57l107 -81l130 81z" />
    <glyph glyph-name="scaron" unicode="&#x161;" horiz-adv-x="478" 
d="M457 357l-104.001 5.99902l-2 52c0 8.66699 -4 14 -12 16c-13.333 3.33301 -32 5 -56 5c-50 0 -75 -16 -75 -48c0 -14.667 6.16699 -25.834 18.5 -33.501s32.5 -16.167 60.5 -25.5c21.333 -7.33301 36.5 -12.666 45.5 -15.999s22.833 -9.83301 41.5 -19.5
s32.167 -19.167 40.5 -28.5s16.333 -22.333 24 -39s11.5 -35 11.5 -55c0 -61.333 -22.333 -107.166 -67 -137.499s-101.334 -45.5 -170.001 -45.5c-42.667 0 -82.667 4 -120 12s-61 15.667 -71 23l19 145l102 -6l3 -58c0 -8 3.66699 -13.333 11 -16c18 -6 41.667 -9 71 -9
c27.333 0 48.5 4.83301 63.5 14.5s22.5 23.167 22.5 40.5c0 12.667 -4.66699 23.334 -14 32.001s-18.666 14.667 -27.999 18s-26.666 8.66602 -51.999 15.999c-22.667 6.66699 -41 13 -55 19s-29.333 14.833 -46 26.5s-29 26.667 -37 45s-12 39.833 -12 64.5
c0 58 21.667 101.833 65 131.5s98.333 44.5 165 44.5c72 0 131 -9.66699 177 -29zM501.999 710.999l-141 -129h-104l-104 129l64 52l102 -93l128 93z" />
    <glyph glyph-name="uni0162" unicode="&#x162;" horiz-adv-x="680" 
d="M205 -248l16.002 68.998c8 -2.66699 19.667 -4 35 -4c18 0 33.333 3.83301 46 11.5s19 19.834 19 36.501c0 25.333 -20.333 38.666 -61 39.999l26 95h-155l11 74l101 7c6.66699 0.666992 11 2.33398 13 5.00098s3.66699 7.66699 5 15l71 514h-102
c-8.66699 0 -14 -3.66699 -16 -11l-28 -87h-107l28 207h631l-28 -207h-106l-4 87c-0.666992 4.66699 -1.83398 7.66699 -3.50098 9s-5.16699 2 -10.5 2h-102l-71 -514c-1.33301 -7.33301 -1.33301 -12.166 0 -14.499s5.33301 -3.83301 12 -4.5l108 -9l-10 -73h-165l-12 -45
c46.667 -13.333 70 -42.333 70 -87c0 -38.667 -14.667 -69 -44 -91s-64.333 -33 -105 -33c-30.667 0 -51.334 2.66699 -62.001 8z" />
    <glyph glyph-name="uni0163" unicode="&#x163;" horiz-adv-x="425" 
d="M99 -248l16 69c8 -2.66699 19.667 -4 35 -4c18 0 33.333 3.83301 46 11.5s19 19.834 19 36.501c0 25.333 -20.333 38.666 -61 39.999l23 87c-32.667 4.66699 -56.5 16.167 -71.5 34.5s-22.5 44.5 -22.5 78.5c0 13.333 1 28 3 44l36 262
c1.33301 6.66699 -0.666992 10 -6 10h-69l13 92c42.667 4.66699 75.834 19 99.501 43s41.834 63 54.501 117h93l-20 -142c-0.666992 -6.66699 1.66602 -10 6.99902 -10h138l-14 -100h-146l-33 -239c-2 -13.333 -3 -24 -3 -32c0 -18 4.33301 -30.833 13 -38.5
s23.667 -11.5 45 -11.5c24.667 0 51.334 5.33301 80.001 16l18 -89c-44.667 -21.333 -92.334 -34 -143.001 -38l-9 -34c46.667 -13.333 70 -42.333 70 -87c0 -38.667 -14.667 -69 -44 -91s-64.333 -33 -105 -33c-30.667 0 -51.334 2.66699 -62.001 8z" />
    <glyph glyph-name="Tcaron" unicode="&#x164;" horiz-adv-x="680" 
d="M523 0l-391.999 -0.00195312l11 74l101 7c6.66699 0.666992 11 2.33398 13 5.00098s3.66699 7.66699 5 15l71 514h-102c-8.66699 0 -14 -3.66699 -16 -11l-28 -87h-107l28 207h631l-28 -207h-106l-4 87c-0.666992 4.66699 -1.83398 7.66699 -3.50098 9
s-5.16699 2 -10.5 2h-102l-71 -514c-1.33301 -7.33301 -1.33301 -12.166 0 -14.499s5.33301 -3.83301 12 -4.5l108 -9zM613.001 889.998l-136 -111h-104l-106 111l60 57l107 -81l130 81z" />
    <glyph glyph-name="tcaron" unicode="&#x165;" horiz-adv-x="425" 
d="M374 116l17.999 -88.999c-54.667 -26 -110.334 -39 -167.001 -39c-50 0 -86.167 9.16699 -108.5 27.5s-33.5 48.166 -33.5 89.499c0 13.333 1 28 3 44l36 262c1.33301 6.66699 -0.666992 10 -6 10h-69l13 92c42.667 4.66699 75.834 19 99.501 43s41.834 63 54.501 117h93
l-20 -142c-0.666992 -6.66699 1.66602 -10 6.99902 -10h138l-14 -100h-146l-33 -239c-2 -13.333 -3 -24 -3 -32c0 -18 4.33301 -30.833 13 -38.5s23.667 -11.5 45 -11.5c24.667 0 51.334 5.33301 80.001 16zM413.999 553.001l-67 28c24.667 56 37 99.667 37 131
c0 10.667 -3 26 -9 46l96 33c18.667 -20 28 -37.667 28 -53c0 -17.333 -4.66699 -36.333 -14 -57c-12 -28 -35.667 -70.667 -71 -128z" />
    <glyph glyph-name="Tbar" unicode="&#x166;" horiz-adv-x="680" 
d="M523 0l-391.999 -0.00195312l11 74l101 7c6.66699 0.666992 11 2.33398 13 5.00098s3.66699 7.66699 5 15l26 191h-112l15 101h111l31 222h-102c-8.66699 0 -14 -3.66699 -16 -11l-28 -87h-107l28 207h631l-28 -207h-106l-4 87
c-0.666992 4.66699 -1.83398 7.66699 -3.50098 9s-5.16699 2 -10.5 2h-102l-31 -222h116l-15 -101h-115l-26 -191c-1.33301 -7.33301 -1.33301 -12.166 0 -14.499s5.33301 -3.83301 12 -4.5l108 -9z" />
    <glyph glyph-name="tbar" unicode="&#x167;" horiz-adv-x="425" 
d="M374 116l17.999 -88.999c-54.667 -26 -110.334 -39 -167.001 -39c-50 0 -86.167 9.16699 -108.5 27.5s-33.5 48.166 -33.5 89.499c0 13.333 1 28 3 44l10 74h-72l13 99h72l13 89c1.33301 6.66699 -0.666992 10 -6 10h-69l13 92c42.667 4.66699 75.834 19 99.501 43
s41.834 63 54.501 117h93l-20 -142c-0.666992 -6.66699 1.66602 -10 6.99902 -10h138l-14 -100h-146l-14 -99h146l-14 -99h-146l-5 -41c-2 -13.333 -3 -24 -3 -32c0 -18 4.33301 -30.833 13 -38.5s23.667 -11.5 45 -11.5c24.667 0 51.334 5.33301 80.001 16z" />
    <glyph glyph-name="Utilde" unicode="&#x168;" horiz-adv-x="774" 
d="M555 287l47.001 335.996c1.33301 7.33301 1.16602 12.333 -0.500977 15s-5.83398 4.33398 -12.501 5.00098l-61 7l10 74h290l-10 -74l-68 -8c-7.33301 -0.666992 -11.833 -2.16699 -13.5 -4.5s-2.83398 -7.16602 -3.50098 -14.499l-51 -364
c-13.333 -94 -45.166 -162.667 -95.499 -206s-120.166 -65 -209.499 -65c-86 0 -150.167 17.5 -192.5 52.5s-63.5 88.5 -63.5 160.5c0 16.667 1.66699 37.334 5 62.001l49 360c2 12.667 -2 19.334 -12 20.001l-61 7l10 74h310l-10 -74l-67 -8
c-7.33301 -0.666992 -11.833 -2 -13.5 -4s-3.16699 -7 -4.5 -15l-47 -335c-4 -26 -6 -49.333 -6 -70c0 -37.333 9 -64.5 27 -81.5s47.333 -25.5 88 -25.5c52 0 90.5 13.5 115.5 40.5s41.833 72.167 50.5 135.5zM666.001 881.996l-27.999 -41
c-15.333 -22 -28.666 -37.5 -39.999 -46.5s-24.333 -13.5 -39 -13.5c-18 0 -44.667 4.66699 -80 14l-75 20c-6.66699 2 -12.334 0.666992 -17.001 -4l-35 -32l-58 39l36 52c20.667 31.333 45.667 47 75 47c21.333 0 53.666 -5.66699 96.999 -17
c34.667 -9.33301 55 -14 61 -14c6.66699 0 11.667 2 15 6l27 29z" />
    <glyph glyph-name="utilde" unicode="&#x169;" horiz-adv-x="623" 
d="M578 0l-198.002 0.000976562l10 80l-3 1c-2 -1.33301 -7.5 -6 -16.5 -14s-15.333 -13.333 -19 -16s-10.167 -7.66699 -19.5 -15s-16.833 -12.5 -22.5 -15.5l-23 -12c-9.66699 -5 -18.5 -8.66699 -26.5 -11s-17.333 -4.5 -28 -6.5s-21 -3 -31 -3
c-42 0 -72.333 10.333 -91 31s-28 52 -28 94c0 20 1.33301 39 4 57l33 242c1.33301 8.66699 1.33301 14.167 0 16.5s-5.66602 3.83301 -12.999 4.5l-39 7l12 81h195l7 -7l-44 -318c-2.66699 -22.667 -4 -37 -4 -43c0 -12.667 2.33301 -21.834 7 -27.501s13 -8.5 25 -8.5
c30.667 0 72.667 23.667 126 71l31 226c1.33301 8 1.33301 13 0 15s-5.66602 3.66699 -12.999 5l-32 5l13 82h189l7 -8l-59 -411c-2 -12.667 1.66699 -19.667 11 -21l50 -7zM543.998 684.001l-29 -41.0029c-14.667 -21.333 -27.5 -36.666 -38.5 -45.999s-23.5 -14 -37.5 -14
c-16.667 0 -42 5.33301 -76 16c-8 2 -18.5 4.83301 -31.5 8.5l-33 9.5c-9 2.66699 -15.833 4.33398 -20.5 5.00098s-10.334 -1.66602 -17.001 -6.99902l-35 -32l-54 37l37 51c23.333 33.333 47.666 50 72.999 50c14.667 0 35.334 -4 62.001 -12
c50 -15.333 81.333 -24 94 -26c4.66699 0 9.33398 2 14.001 6l32 32z" />
    <glyph glyph-name="Umacron" unicode="&#x16a;" horiz-adv-x="774" 
d="M555 287l47.001 335.996c1.33301 7.33301 1.16602 12.333 -0.500977 15s-5.83398 4.33398 -12.501 5.00098l-61 7l10 74h290l-10 -74l-68 -8c-7.33301 -0.666992 -11.833 -2.16699 -13.5 -4.5s-2.83398 -7.16602 -3.50098 -14.499l-51 -364
c-13.333 -94 -45.166 -162.667 -95.499 -206s-120.166 -65 -209.499 -65c-86 0 -150.167 17.5 -192.5 52.5s-63.5 88.5 -63.5 160.5c0 16.667 1.66699 37.334 5 62.001l49 360c2 12.667 -2 19.334 -12 20.001l-61 7l10 74h310l-10 -74l-67 -8
c-7.33301 -0.666992 -11.833 -2 -13.5 -4s-3.16699 -7 -4.5 -15l-47 -335c-4 -26 -6 -49.333 -6 -70c0 -37.333 9 -64.5 27 -81.5s47.333 -25.5 88 -25.5c52 0 90.5 13.5 115.5 40.5s41.833 72.167 50.5 135.5zM636.001 784.996h-317l13 100h317z" />
    <glyph glyph-name="umacron" unicode="&#x16b;" horiz-adv-x="623" 
d="M578 0l-198.002 0.000976562l10 80l-3 1c-2 -1.33301 -7.5 -6 -16.5 -14s-15.333 -13.333 -19 -16s-10.167 -7.66699 -19.5 -15s-16.833 -12.5 -22.5 -15.5l-23 -12c-9.66699 -5 -18.5 -8.66699 -26.5 -11s-17.333 -4.5 -28 -6.5s-21 -3 -31 -3
c-42 0 -72.333 10.333 -91 31s-28 52 -28 94c0 20 1.33301 39 4 57l33 242c1.33301 8.66699 1.33301 14.167 0 16.5s-5.66602 3.83301 -12.999 4.5l-39 7l12 81h195l7 -7l-44 -318c-2.66699 -22.667 -4 -37 -4 -43c0 -12.667 2.33301 -21.834 7 -27.501s13 -8.5 25 -8.5
c30.667 0 72.667 23.667 126 71l31 226c1.33301 8 1.33301 13 0 15s-5.66602 3.66699 -12.999 5l-32 5l13 82h189l7 -8l-59 -411c-2 -12.667 1.66699 -19.667 11 -21l50 -7zM507.998 599.001h-317l14 100h317z" />
    <glyph glyph-name="Ubreve" unicode="&#x16c;" horiz-adv-x="774" 
d="M555 287l47.001 335.996c1.33301 7.33301 1.16602 12.333 -0.500977 15s-5.83398 4.33398 -12.501 5.00098l-61 7l10 74h290l-10 -74l-68 -8c-7.33301 -0.666992 -11.833 -2.16699 -13.5 -4.5s-2.83398 -7.16602 -3.50098 -14.499l-51 -364
c-13.333 -94 -45.166 -162.667 -95.499 -206s-120.166 -65 -209.499 -65c-86 0 -150.167 17.5 -192.5 52.5s-63.5 88.5 -63.5 160.5c0 16.667 1.66699 37.334 5 62.001l49 360c2 12.667 -2 19.334 -12 20.001l-61 7l10 74h310l-10 -74l-67 -8
c-7.33301 -0.666992 -11.833 -2 -13.5 -4s-3.16699 -7 -4.5 -15l-47 -335c-4 -26 -6 -49.333 -6 -70c0 -37.333 9 -64.5 27 -81.5s47.333 -25.5 88 -25.5c52 0 90.5 13.5 115.5 40.5s41.833 72.167 50.5 135.5zM598.001 940.996l74 -28c-34 -87.333 -94.667 -131 -182 -131
c-92.667 0 -143.667 43.667 -153 131l78 27c10 -45.333 37.333 -68 82 -68c43.333 0 77 23 101 69z" />
    <glyph glyph-name="ubreve" unicode="&#x16d;" horiz-adv-x="623" 
d="M578 0l-198.002 0.000976562l10 80l-3 1c-2 -1.33301 -7.5 -6 -16.5 -14s-15.333 -13.333 -19 -16s-10.167 -7.66699 -19.5 -15s-16.833 -12.5 -22.5 -15.5l-23 -12c-9.66699 -5 -18.5 -8.66699 -26.5 -11s-17.333 -4.5 -28 -6.5s-21 -3 -31 -3
c-42 0 -72.333 10.333 -91 31s-28 52 -28 94c0 20 1.33301 39 4 57l33 242c1.33301 8.66699 1.33301 14.167 0 16.5s-5.66602 3.83301 -12.999 4.5l-39 7l12 81h195l7 -7l-44 -318c-2.66699 -22.667 -4 -37 -4 -43c0 -12.667 2.33301 -21.834 7 -27.501s13 -8.5 25 -8.5
c30.667 0 72.667 23.667 126 71l31 226c1.33301 8 1.33301 13 0 15s-5.66602 3.66699 -12.999 5l-32 5l13 82h189l7 -8l-59 -411c-2 -12.667 1.66699 -19.667 11 -21l50 -7zM464.998 737.001l73.999 -28c-35.333 -91.333 -98.333 -137 -189 -137
c-94 0 -145.667 45.667 -155 137l78 28c10.667 -50 39.334 -75 86.001 -75c44 0 79.333 25 106 75z" />
    <glyph glyph-name="Uring" unicode="&#x16e;" horiz-adv-x="774" 
d="M555 287l47.001 335.996c1.33301 7.33301 1.16602 12.333 -0.500977 15s-5.83398 4.33398 -12.501 5.00098l-61 7l10 74h290l-10 -74l-68 -8c-7.33301 -0.666992 -11.833 -2.16699 -13.5 -4.5s-2.83398 -7.16602 -3.50098 -14.499l-51 -364
c-13.333 -94 -45.166 -162.667 -95.499 -206s-120.166 -65 -209.499 -65c-86 0 -150.167 17.5 -192.5 52.5s-63.5 88.5 -63.5 160.5c0 16.667 1.66699 37.334 5 62.001l49 360c2 12.667 -2 19.334 -12 20.001l-61 7l10 74h310l-10 -74l-67 -8
c-7.33301 -0.666992 -11.833 -2 -13.5 -4s-3.16699 -7 -4.5 -15l-47 -335c-4 -26 -6 -49.333 -6 -70c0 -37.333 9 -64.5 27 -81.5s47.333 -25.5 88 -25.5c52 0 90.5 13.5 115.5 40.5s41.833 72.167 50.5 135.5zM511.001 968.996c26 0 48.167 -8.00098 66.5 -24.001
s27.5 -38 27.5 -66c0 -34.667 -10.833 -63 -32.5 -85s-50.167 -33 -85.5 -33c-28 0 -51.167 8.33301 -69.5 25s-27.5 39.334 -27.5 68.001c0 34 11.167 61.667 33.5 83s51.5 32 87.5 32zM494.001 824.995c28.667 0 43 16 43 48c0 21.333 -11.333 32 -34 32
c-12.667 0 -23.167 -4.5 -31.5 -13.5s-12.5 -20.5 -12.5 -34.5c0 -21.333 11.667 -32 35 -32z" />
    <glyph glyph-name="uring" unicode="&#x16f;" horiz-adv-x="623" 
d="M578 0l-198.002 0.000976562l10 80l-3 1c-2 -1.33301 -7.5 -6 -16.5 -14s-15.333 -13.333 -19 -16s-10.167 -7.66699 -19.5 -15s-16.833 -12.5 -22.5 -15.5l-23 -12c-9.66699 -5 -18.5 -8.66699 -26.5 -11s-17.333 -4.5 -28 -6.5s-21 -3 -31 -3
c-42 0 -72.333 10.333 -91 31s-28 52 -28 94c0 20 1.33301 39 4 57l33 242c1.33301 8.66699 1.33301 14.167 0 16.5s-5.66602 3.83301 -12.999 4.5l-39 7l12 81h195l7 -7l-44 -318c-2.66699 -22.667 -4 -37 -4 -43c0 -12.667 2.33301 -21.834 7 -27.501s13 -8.5 25 -8.5
c30.667 0 72.667 23.667 126 71l31 226c1.33301 8 1.33301 13 0 15s-5.66602 3.66699 -12.999 5l-32 5l13 82h189l7 -8l-59 -411c-2 -12.667 1.66699 -19.667 11 -21l50 -7zM370.998 767.001c23.333 0 43.168 -7.16797 59.501 -21.501s24.5 -34.166 24.5 -59.499
c0 -32 -9.83301 -58.167 -29.5 -78.5s-45.834 -30.5 -78.501 -30.5c-25.333 0 -46.166 7.5 -62.499 22.5s-24.5 35.5 -24.5 61.5c0 32 10.167 57.667 30.5 77s47.166 29 80.499 29zM354 635c26 0 39 15 39 45c0 19.333 -10 29 -30 29c-26.667 0 -40 -15 -40 -45
c0 -19.333 10.333 -29 31 -29z" />
    <glyph glyph-name="Uhungarumlaut" unicode="&#x170;" horiz-adv-x="774" 
d="M555 287l47.001 335.996c1.33301 7.33301 1.16602 12.333 -0.500977 15s-5.83398 4.33398 -12.501 5.00098l-61 7l10 74h290l-10 -74l-68 -8c-7.33301 -0.666992 -11.833 -2.16699 -13.5 -4.5s-2.83398 -7.16602 -3.50098 -14.499l-51 -364
c-13.333 -94 -45.166 -162.667 -95.499 -206s-120.166 -65 -209.499 -65c-86 0 -150.167 17.5 -192.5 52.5s-63.5 88.5 -63.5 160.5c0 16.667 1.66699 37.334 5 62.001l49 360c2 12.667 -2 19.334 -12 20.001l-61 7l10 74h310l-10 -74l-67 -8
c-7.33301 -0.666992 -11.833 -2 -13.5 -4s-3.16699 -7 -4.5 -15l-47 -335c-4 -26 -6 -49.333 -6 -70c0 -37.333 9 -64.5 27 -81.5s47.333 -25.5 88 -25.5c52 0 90.5 13.5 115.5 40.5s41.833 72.167 50.5 135.5zM561.001 912.996l-176 -152l-57 53l157 174zM754.001 898.996
l-189 -137l-47 51l165 164z" />
    <glyph glyph-name="uhungarumlaut" unicode="&#x171;" horiz-adv-x="623" 
d="M578 0l-198.002 0.000976562l10 80l-3 1c-2 -1.33301 -7.5 -6 -16.5 -14s-15.333 -13.333 -19 -16s-10.167 -7.66699 -19.5 -15s-16.833 -12.5 -22.5 -15.5l-23 -12c-9.66699 -5 -18.5 -8.66699 -26.5 -11s-17.333 -4.5 -28 -6.5s-21 -3 -31 -3
c-42 0 -72.333 10.333 -91 31s-28 52 -28 94c0 20 1.33301 39 4 57l33 242c1.33301 8.66699 1.33301 14.167 0 16.5s-5.66602 3.83301 -12.999 4.5l-39 7l12 81h195l7 -7l-44 -318c-2.66699 -22.667 -4 -37 -4 -43c0 -12.667 2.33301 -21.834 7 -27.501s13 -8.5 25 -8.5
c30.667 0 72.667 23.667 126 71l31 226c1.33301 8 1.33301 13 0 15s-5.66602 3.66699 -12.999 5l-32 5l13 82h189l7 -8l-59 -411c-2 -12.667 1.66699 -19.667 11 -21l50 -7zM420.998 710.001l-179 -150l-55 51l153 174zM613.998 710.001l-178 -150l-56 51l155 173z" />
    <glyph glyph-name="Uogonek" unicode="&#x172;" horiz-adv-x="774" 
d="M478 -133l17.0059 -74.0068c-40.667 -18 -81.334 -27 -122.001 -27c-63.333 0 -95 24.667 -95 74c0 50.667 32.667 100 98 148c-86.667 0.666992 -150.834 18.334 -192.501 53.001s-62.5 88 -62.5 160c0 16.667 1.66699 37.334 5 62.001l49 360
c2 12.667 -2 19.334 -12 20.001l-61 7l10 74h310l-10 -74l-67 -8c-7.33301 -0.666992 -11.833 -2 -13.5 -4s-3.16699 -7 -4.5 -15l-47 -335c-4 -26 -6 -49.333 -6 -70c0 -37.333 9 -64.5 27 -81.5s47.333 -25.5 88 -25.5c52 0 90.5 13.5 115.5 40.5
s41.833 72.167 50.5 135.5l47 336c1.33301 7.33301 1.16602 12.333 -0.500977 15s-5.83398 4.33398 -12.501 5.00098l-61 7l10 74h290l-10 -74l-68 -8c-7.33301 -0.666992 -11.833 -2.16699 -13.5 -4.5s-2.83398 -7.16602 -3.50098 -14.499l-51 -364
c-9.33301 -69.333 -27.5 -122.666 -54.5 -159.999s-68.167 -70.666 -123.5 -99.999c-22.667 -12 -45.834 -29.667 -69.501 -53s-35.5 -45 -35.5 -65c0 -16 8.33301 -24 25 -24c14 0 32 3.33301 54 10z" />
    <glyph glyph-name="uogonek" unicode="&#x173;" horiz-adv-x="623" 
d="M546 -133l16.998 -73.998c-40.667 -18 -81.334 -27 -122.001 -27c-63.333 0 -95 24.667 -95 74c0 54 38 107.333 114 160h-80l10 80l-3 1c-2 -1.33301 -7.5 -6 -16.5 -14s-15.333 -13.333 -19 -16s-10.167 -7.66699 -19.5 -15s-16.833 -12.5 -22.5 -15.5l-23 -12
c-9.66699 -5 -18.5 -8.66699 -26.5 -11s-17.333 -4.5 -28 -6.5s-21 -3 -31 -3c-42 0 -72.333 10.333 -91 31s-28 52 -28 94c0 20 1.33301 39 4 57l33 242c1.33301 8.66699 1.33301 14.167 0 16.5s-5.66602 3.83301 -12.999 4.5l-39 7l12 81h195l7 -7l-44 -318
c-2.66699 -22.667 -4 -37 -4 -43c0 -12.667 2.33301 -21.834 7 -27.501s13 -8.5 25 -8.5c30.667 0 72.667 23.667 126 71l31 226c1.33301 8 1.33301 13 0 15s-5.66602 3.66699 -12.999 5l-32 5l13 82h189l7 -8l-59 -411c-2 -12.667 1.66699 -19.667 11 -21l50 -7l-10 -74
c-29.333 -16.667 -55.166 -35.834 -77.499 -57.501s-33.5 -42.167 -33.5 -61.5c0 -16 8.33301 -24 25 -24c14 0 32 3.33301 54 10z" />
    <glyph glyph-name="Wcircumflex" unicode="&#x174;" horiz-adv-x="1011" 
d="M784 0h-199l-43 366h-3l-143 -366h-195l-62 615c-0.666992 9.33301 -2.16699 15.333 -4.5 18s-7.83301 5 -16.5 7l-47 11l11 73h299l-11 -73l-83 -10l47 -487h5l173 436h150l48 -446h6l168 497l-79 10l11 73h275l-11 -73l-48 -11c-12 -2 -21 -10.667 -27 -26zM786 823
l-61 -56l-107 81l-129 -81l-49 56l137 112h104z" />
    <glyph glyph-name="wcircumflex" unicode="&#x175;" horiz-adv-x="856" 
d="M669 0h-166l-41 335h-3l-118 -335h-179l-63 421c-1.33301 9.33301 -7 15 -17 17l-41 9l13 74h185l8 -9l7 -91l31 -270h3l132 361h157l44 -365h3l123 294l-55 6l12 74h166l11 -29zM671 614l-65 -52l-101 93l-129 -93l-54 52l140 129h104z" />
    <glyph glyph-name="Ycircumflex" unicode="&#x176;" horiz-adv-x="663" 
d="M516 0h-383.999l9 74l100 7c6 0.666992 10 2.16699 12 4.5s3.66699 7.5 5 15.5l24 169l-146 353c-2.66699 7.33301 -10 13 -22 17l-42 11l11 73h302l-11 -73l-78 -9l87 -240h6l152 240l-74 9l11 73h261l-11 -73l-42 -11c-14 -4.66699 -23.333 -11.334 -28 -20.001
l-224 -348l-24 -171c-1.33301 -7.33301 -1.33301 -12.166 0 -14.499s5.66602 -3.83301 12.999 -4.5l103 -8zM602.001 823l-61 -56l-107 81l-129 -81l-49 56l137 112h104z" />
    <glyph glyph-name="ycircumflex" unicode="&#x177;" horiz-adv-x="568" 
d="M181 -47l28 49.999l-112 418c-2.66699 8.66699 -8.66699 14.334 -18 17.001l-39 9l12 74h176l10 -11l27 -129l45 -209h5l127 266l-61 9l11 74h185l14 -31l-290 -571c-26.667 -50 -55.167 -86.167 -85.5 -108.5s-71.166 -33.5 -122.499 -33.5
c-32.667 0 -62.5 5.5 -89.5 16.5s-46.5 22.167 -58.5 33.5l51 85c32 -19.333 62.333 -29 91 -29c35.333 0 66.666 23.333 93.999 70zM504 613.999l-65 -52l-101 93l-129 -93l-54 52l140 129h104z" />
    <glyph glyph-name="Ydieresis" unicode="&#x178;" horiz-adv-x="663" 
d="M516 0h-383.999l9 74l100 7c6 0.666992 10 2.16699 12 4.5s3.66699 7.5 5 15.5l24 169l-146 353c-2.66699 7.33301 -10 13 -22 17l-42 11l11 73h302l-11 -73l-78 -9l87 -240h6l152 240l-74 9l11 73h261l-11 -73l-42 -11c-14 -4.66699 -23.333 -11.334 -28 -20.001
l-224 -348l-24 -171c-1.33301 -7.33301 -1.33301 -12.166 0 -14.499s5.66602 -3.83301 12.999 -4.5l103 -8zM400.001 859c0 -23.333 -7.66895 -42.167 -23.002 -56.5s-34.666 -21.5 -57.999 -21.5c-19.333 0 -34.666 5.66699 -45.999 17s-17 26.333 -17 45
c0 23.333 7.83301 42 23.5 56s35.167 21 58.5 21c20 0 35.333 -5.5 46 -16.5s16 -25.833 16 -44.5zM607.999 858.999c0 -23.333 -7.50098 -42.167 -22.501 -56.5s-34.5 -21.5 -58.5 -21.5c-19.333 0 -34.666 5.66699 -45.999 17s-17 26.333 -17 45
c0 23.333 7.83301 42 23.5 56s35.167 21 58.5 21c20 0 35.333 -5.5 46 -16.5s16 -25.833 16 -44.5z" />
    <glyph glyph-name="Zacute" unicode="&#x179;" horiz-adv-x="658" 
d="M594 0h-568l14 97l434 519h-215c-9.33301 0 -15 -3.66699 -17 -11l-29 -92l-109 -5l31 216h537l-13 -101l-431 -516h241c9.33301 0 15.333 3.66699 18 11l33 107h104zM546 852l-225 -85l-32 71l212 117z" />
    <glyph glyph-name="zacute" unicode="&#x17a;" horiz-adv-x="514" 
d="M470 0h-449l12 84l304 343h-137c-6.66699 0 -11.667 -4 -15 -12l-19 -57l-101 -4l23 167h434l-12 -86l-299 -342h144c7.33301 0 12.333 4.33301 15 13l22 69l103 4zM442 697l-186 -136l-55 58l164 163z" />
    <glyph glyph-name="Zdotaccent" unicode="&#x17b;" horiz-adv-x="658" 
d="M594 0h-568l14 97l434 519h-215c-9.33301 0 -15 -3.66699 -17 -11l-29 -92l-109 -5l31 216h537l-13 -101l-431 -516h241c9.33301 0 15.333 3.66699 18 11l33 107h104zM518 885c0 -31.333 -9.33301 -56.499 -28 -75.499s-44.334 -28.5 -77.001 -28.5
c-25.333 0 -45 6.66699 -59 20s-21 31.666 -21 54.999c0 32 9.33301 57.167 28 75.5s44.334 27.5 77.001 27.5c25.333 0 45 -6.33301 59 -19s21 -31 21 -55z" />
    <glyph glyph-name="zdotaccent" unicode="&#x17c;" horiz-adv-x="514" 
d="M470 0h-449l12 84l304 343h-137c-6.66699 0 -11.667 -4 -15 -12l-19 -57l-101 -4l23 167h434l-12 -86l-299 -342h144c7.33301 0 12.333 4.33301 15 13l22 69l103 4zM311 603c-24.667 0 -43.668 6.66797 -57.001 20.001s-20 31.666 -20 54.999c0 32 9 57.167 27 75.5
s43.333 27.5 76 27.5c24.667 0 43.834 -6.33301 57.501 -19s20.5 -31 20.5 -55c0 -32 -9.33301 -57.333 -28 -76s-44 -28 -76 -28z" />
    <glyph glyph-name="Zcaron" unicode="&#x17d;" horiz-adv-x="658" 
d="M594 0h-568l14 97l434 519h-215c-9.33301 0 -15 -3.66699 -17 -11l-29 -92l-109 -5l31 216h537l-13 -101l-431 -516h241c9.33301 0 15.333 3.66699 18 11l33 107h104zM596 890l-136 -111h-104l-106 111l60 57l107 -81l130 81z" />
    <glyph glyph-name="zcaron" unicode="&#x17e;" horiz-adv-x="514" 
d="M470 0h-449l12 84l304 343h-137c-6.66699 0 -11.667 -4 -15 -12l-19 -57l-101 -4l23 167h434l-12 -86l-299 -342h144c7.33301 0 12.333 4.33301 15 13l22 69l103 4zM501 711l-141 -129h-104l-104 129l64 52l102 -93l128 93z" />
    <glyph glyph-name="longs" unicode="&#x17f;" horiz-adv-x="427" 
d="M200 -212h-147.998l112 797c9.33301 64.667 31 111.167 65 139.5s80 42.5 138 42.5c30.667 0 62.167 -5.16699 94.5 -15.5s58.166 -22.833 77.499 -37.5l-56 -93c-38.667 24 -72.334 36 -101.001 36c-40 0 -63 -22.333 -69 -67z" />
    <glyph glyph-name="florin" unicode="&#x192;" horiz-adv-x="576" 
d="M461 287l-133 0.00195312l-61 -201c-23.333 -76 -52 -127.667 -86 -155s-80.333 -41 -139 -41c-31.333 0 -62.333 5 -93 15s-53.667 21.667 -69 35l52 92c34 -25.333 68 -38 102 -38c22 0 39.167 5.66699 51.5 17s24.166 34.666 35.499 69.999l61 196
c2 6.66699 0 10 -6 10h-88l29 95h98l30 98c20 64.667 47.333 110 82 136s83.334 39 146.001 39c64.667 0 119.334 -14.333 164.001 -43l-44 -146l-91 9l8 62c0 7.33301 -3 11.666 -9 12.999c-8.66699 4 -20.667 6 -36 6c-20 0 -35.833 -6.16699 -47.5 -18.5
s-21.834 -31.833 -30.501 -58.5l-27 -87c-2 -6.66699 0 -10 6 -10h123z" />
    <glyph glyph-name="Scommaaccent" unicode="&#x218;" horiz-adv-x="588" 
d="M577 501l-109.001 8.99902l-2 86c0 12 -4.33301 19 -13 21c-11.333 3.33301 -30.666 5 -57.999 5c-36.667 0 -67.667 -8 -93 -24s-38 -38.667 -38 -68c0 -10.667 2.5 -20.5 7.5 -29.5s10.333 -16.333 16 -22s15.334 -11.834 29.001 -18.501s24.167 -11.334 31.5 -14.001
l39 -14c20.667 -7.33301 37.5 -13.833 50.5 -19.5s28.333 -14 46 -25s31.667 -23 42 -36s19.166 -29.667 26.499 -50s11 -43.166 11 -68.499c0 -81.333 -28.333 -142.5 -85 -183.5s-129.667 -61.5 -219 -61.5c-42.667 0 -85.834 4.33301 -129.501 13s-75.167 18 -94.5 28
l27 195h109l7 -94c0.666992 -11.333 6.66699 -18.666 18 -21.999c21.333 -5.33301 47 -8 77 -8c91.333 0 137 34.667 137 104c0 26 -9.16699 45.833 -27.5 59.5s-46.166 27.167 -83.499 40.5c-58.667 20.667 -98.667 38.334 -120 53.001c-45.333 32.667 -68 80 -68 142
c0 77.333 27.667 136.333 83 177s126 61 212 61c68 0 134 -13.667 198 -41zM258.999 -293.001l-61 18.999l34 96c3.33301 6 2.33301 10 -3 12l-37 13l34 98c40.667 -0.666992 71.5 -5.16699 92.5 -13.5s31.5 -25.166 31.5 -50.499c0 -19.333 -10 -45 -30 -77z" />
    <glyph glyph-name="scommaaccent" unicode="&#x219;" horiz-adv-x="478" 
d="M457 357l-104.001 5.99902l-2 52c0 8.66699 -4 14 -12 16c-13.333 3.33301 -32 5 -56 5c-50 0 -75 -16 -75 -48c0 -14.667 6.16699 -25.834 18.5 -33.501s32.5 -16.167 60.5 -25.5c21.333 -7.33301 36.5 -12.666 45.5 -15.999s22.833 -9.83301 41.5 -19.5
s32.167 -19.167 40.5 -28.5s16.333 -22.333 24 -39s11.5 -35 11.5 -55c0 -61.333 -22.333 -107.166 -67 -137.499s-101.334 -45.5 -170.001 -45.5c-42.667 0 -82.667 4 -120 12s-61 15.667 -71 23l19 145l102 -6l3 -58c0 -8 3.66699 -13.333 11 -16c18 -6 41.667 -9 71 -9
c27.333 0 48.5 4.83301 63.5 14.5s22.5 23.167 22.5 40.5c0 12.667 -4.66699 23.334 -14 32.001s-18.666 14.667 -27.999 18s-26.666 8.66602 -51.999 15.999c-22.667 6.66699 -41 13 -55 19s-29.333 14.833 -46 26.5s-29 26.667 -37 45s-12 39.833 -12 64.5
c0 58 21.667 101.833 65 131.5s98.333 44.5 165 44.5c72 0 131 -9.66699 177 -29zM185.999 -293.001l-61 18.999l34 96c2 6.66699 0.666992 10.667 -4 12l-36 13l34 98c40.667 -0.666992 71.5 -5.16699 92.5 -13.5s31.5 -25.166 31.5 -50.499c0 -19.333 -10 -45 -30 -77z
" />
    <glyph glyph-name="uni021A" unicode="&#x21a;" horiz-adv-x="680" 
d="M523 0l-391.999 -0.00195312l11 74l101 7c6.66699 0.666992 11 2.33398 13 5.00098s3.66699 7.66699 5 15l71 514h-102c-8.66699 0 -14 -3.66699 -16 -11l-28 -87h-107l28 207h631l-28 -207h-106l-4 87c-0.666992 4.66699 -1.83398 7.66699 -3.50098 9
s-5.16699 2 -10.5 2h-102l-71 -514c-1.33301 -7.33301 -1.33301 -12.166 0 -14.499s5.33301 -3.83301 12 -4.5l108 -9zM296.001 -293.002l-61 18.999l34 96c3.33301 6 2.33301 10 -3 12l-37 13l34 98c40.667 -0.666992 71.5 -5.16699 92.5 -13.5s31.5 -25.166 31.5 -50.499
c0 -19.333 -10 -45 -30 -77z" />
    <glyph glyph-name="uni021B" unicode="&#x21b;" horiz-adv-x="425" 
d="M374 116l17.999 -88.999c-54.667 -26 -110.334 -39 -167.001 -39c-50 0 -86.167 9.16699 -108.5 27.5s-33.5 48.166 -33.5 89.499c0 13.333 1 28 3 44l36 262c1.33301 6.66699 -0.666992 10 -6 10h-69l13 92c42.667 4.66699 75.834 19 99.501 43s41.834 63 54.501 117h93
l-20 -142c-0.666992 -6.66699 1.66602 -10 6.99902 -10h138l-14 -100h-146l-33 -239c-2 -13.333 -3 -24 -3 -32c0 -18 4.33301 -30.833 13 -38.5s23.667 -11.5 45 -11.5c24.667 0 51.334 5.33301 80.001 16zM185.999 -292.999l-61 18.999l34 96
c2 6.66699 0.666992 10.667 -4 12l-36 13l34 98c40.667 -0.666992 71.5 -5.16699 92.5 -13.5s31.5 -25.166 31.5 -50.499c0 -19.333 -10 -45 -30 -77z" />
    <glyph glyph-name="dotlessj" unicode="&#x237;" horiz-adv-x="315" 
d="M72 -28l61.998 435c0.666992 10.667 -2.66602 17.667 -9.99902 21l-52 17l11 76h213l-79 -574c-8 -59.333 -28.167 -102.5 -60.5 -129.5s-76.833 -40.5 -133.5 -40.5c-35.333 0 -67.5 5.83301 -96.5 17.5s-48.833 22.834 -59.5 33.501l51 83
c26.667 -17.333 54.334 -26 83.001 -26c20.667 0 36.5 6.16699 47.5 18.5s18.833 35.166 23.5 68.499z" />
    <glyph glyph-name="apostrophe" unicode="&#x2bc;" 
d="M320 517l-49 19.001l30 76c2 5.33301 1 8.66602 -3 9.99902l-30 10l27 77c31.333 0 55.5 -3.33301 72.5 -10s25.5 -20 25.5 -40c0 -17.333 -7.33301 -37.333 -22 -60z" />
    <glyph glyph-name="circumflex" unicode="&#x2c6;" 
d="M511 614l-65 -52l-101 93l-129 -93l-54 52l140 129h104z" />
    <glyph glyph-name="caron" unicode="&#x2c7;" 
d="M524 711l-141 -129h-104l-104 129l64 52l102 -93l128 93z" />
    <glyph glyph-name="uni02C9" unicode="&#x2c9;" 
d="M493 599h-317l14 100h317z" />
    <glyph glyph-name="breve" unicode="&#x2d8;" 
d="M447 737l73.999 -28c-35.333 -91.333 -98.333 -137 -189 -137c-94 0 -145.667 45.667 -155 137l78 28c10.667 -50 39.334 -75 86.001 -75c44 0 79.333 25 106 75z" />
    <glyph glyph-name="dotaccent" unicode="&#x2d9;" 
d="M334 603c-24.667 0 -43.668 6.66797 -57.001 20.001s-20 31.666 -20 54.999c0 32 9 57.167 27 75.5s43.333 27.5 76 27.5c24.667 0 43.834 -6.33301 57.501 -19s20.5 -31 20.5 -55c0 -32 -9.33301 -57.333 -28 -76s-44 -28 -76 -28z" />
    <glyph glyph-name="ring" unicode="&#x2da;" 
d="M358 767c23.333 0 43.168 -7.16797 59.501 -21.501s24.5 -34.166 24.5 -59.499c0 -32 -9.83301 -58.167 -29.5 -78.5s-45.834 -30.5 -78.501 -30.5c-25.333 0 -46.166 7.5 -62.499 22.5s-24.5 35.5 -24.5 61.5c0 32 10.167 57.667 30.5 77s47.166 29 80.499 29z
M341.002 634.999c26 0 39 15 39 45c0 19.333 -10 29 -30 29c-26.667 0 -40 -15 -40 -45c0 -19.333 10.333 -29 31 -29z" />
    <glyph glyph-name="ogonek" unicode="&#x2db;" 
d="M330 -133l17.001 -74c-40.667 -18 -81.334 -27 -122.001 -27c-63.333 0 -95 24.667 -95 74c0 36 13.833 68.5 41.5 97.5s63.5 57.167 107.5 84.5l69 -19c-64.667 -49.333 -97 -90 -97 -122c0 -16 8.33301 -24 25 -24c14 0 32 3.33301 54 10z" />
    <glyph glyph-name="tilde" unicode="&#x2dc;" 
d="M528 684l-29 -41.0029c-14.667 -21.333 -27.5 -36.666 -38.5 -45.999s-23.5 -14 -37.5 -14c-16.667 0 -42 5.33301 -76 16c-8 2 -18.5 4.83301 -31.5 8.5l-33 9.5c-9 2.66699 -15.833 4.33398 -20.5 5.00098s-10.334 -1.66602 -17.001 -6.99902l-35 -32l-54 37l37 51
c23.333 33.333 47.666 50 72.999 50c14.667 0 35.334 -4 62.001 -12c50 -15.333 81.333 -24 94 -26c4.66699 0 9.33398 2 14.001 6l32 32z" />
    <glyph glyph-name="hungarumlaut" unicode="&#x2dd;" 
d="M371 710l-179 -150l-55 51l153 174zM564 710l-178 -150l-56 51l155 173z" />
    <glyph glyph-name="uni0394" unicode="&#x394;" horiz-adv-x="715" 
d="M693 0h-697l360 724h177zM492 120l-78 451h-6l-213 -451h297z" />
    <glyph glyph-name="uni03A9" unicode="&#x3a9;" horiz-adv-x="829" 
d="M751 0l-317.001 -0.000976562l27 190c20.667 8 40.667 18.5 60 31.5s38.5 29.667 57.5 50s34.167 46.333 45.5 78s17 66.167 17 103.5c0 54.667 -14 95.167 -42 121.5s-66.667 39.5 -116 39.5c-64 0 -116.167 -21 -156.5 -63s-60.5 -101.667 -60.5 -179
c0 -42.667 9.16699 -79.667 27.5 -111s43.833 -54.666 76.5 -69.999l-27 -191h-322l25 174h103l6 -57c0.666992 -4.66699 1.83398 -7.66699 3.50098 -9s5.16699 -2 10.5 -2h85l5 38c-46 18.667 -82.5 48.334 -109.5 89.001s-40.5 87.667 -40.5 141
c0 105.333 36 192.166 108 260.499s166.667 102.5 284 102.5c100 0 174.667 -23 224 -69s74 -110.667 74 -194c0 -82.667 -22.833 -152.167 -68.5 -208.5s-103.5 -96.833 -173.5 -121.5l-5 -38h81c9.33301 0 15.333 3.66699 18 11l21 57h104z" />
    <glyph glyph-name="uni03BC" unicode="&#x3bc;" horiz-adv-x="629" 
d="M595 0h-193l9 60l-4 2c-56.667 -44 -106.334 -66 -149.001 -66c-14.667 0 -28 2 -40 6l-14 -178h-156l98 697h151l-47 -331c-2 -16.667 -3 -31 -3 -43s4 -21.5 12 -28.5s20.667 -10.5 38 -10.5c34.667 0 69.334 14.667 104.001 44l52 369h151l-59 -420
c-2 -11.333 1.66699 -17.333 11 -18l49 -7z" />
    <glyph glyph-name="pi" unicode="&#x3c0;" horiz-adv-x="691" 
d="M613 0h-212.999l60 425h-152l-59 -425h-213l10 75l47 7c6.66699 0.666992 11 1.83398 13 3.50098s3.66699 6.16699 5 13.5l45 317c1.33301 8 1.16602 13.167 -0.500977 15.5s-5.83398 3.83301 -12.501 4.5l-48 7l11 78h585l-11 -78l-51 -7
c-7.33301 -0.666992 -12 -2.33398 -14 -5.00098s-3.66699 -7.66699 -5 -15l-45 -314c-1.33301 -8 -1.16602 -13.167 0.500977 -15.5s6.16699 -3.83301 13.5 -4.5l44 -7z" />
    </font>
</defs>
</svg>
